<svg xmlns="http://www.w3.org/2000/svg" viewBox="0 0 1920 1920" xml:space="preserve"><path fill="#4db7ad" d="M0 0h1920v1920H0z"/><path d="M1397 1070.3v112l-4-2.3v-107.4l4-2.3zm-107-86.1v2.4l106 61.2 2-1.2v-2.3l-106-61.2-2 1.1zm37 200.4 71 41v-4.6l-67-38.7-4 2.3zm-13 7.5 84 48.5v-4.6l-80-46.2-4 2.3zm26-15 58 33.5v-4.6l-54-31.2-4 2.3zm-39-199.2 97 56v-4.6l-93-53.7-4 2.3zm26-15 71 41v-4.6l-67-38.7-4 2.3zm13-7.5 58 33.5v-4.7l-54-31.1-4 2.3zm-26 15 84 48.5v-4.6l-80-46.2-4 2.3zm13 435.9 71 41v-4.6l-67-38.7-4 2.3zm66 109.7v107.4l4 2.3v-112l-4 2.3zm0-665.1v107.4l4 2.3v-112l-4 2.3zm-92 570.4 97 56v-4.6l-93-53.7-4 2.3zm0-221.7 97 56v-4.6l-93-53.7-4 2.3zm-11 228.1v2.3l106 61.2 2-1.2v-2.3l-106-61.2-2 1.2zm0-221.7v2.3l106 61.2 2-1.2v-2.3l-106-61.2-2 1.2zm50 192.8 58 33.5v-4.6l-54-31.2-4 2.3zm53-104.5v107.4l4 2.3v-112l-4 2.3zm-79 119.5 84 48.5v-4.6l-80-46.2-4 2.3zm-13-1101 97 56v-4.6l-93-53.7-4 2.3zm39 199.2 58 33.5v-4.7l-54-31.1-4 2.3zm53-104.5v107.4l4 2.3v-112l-4 2.3zm-79-102.2 84 48.5v-4.6l-80-46.2-4 2.3zm-24 13.8v2.3l106 61.2 2-1.1v-2.3L1292 318l-2 1.1zm0-221.7v2.3l106 61.2 2-1.1v-2.3l-106-61.2-2 1.1zm37 200.4 71 41v-4.6l-67-38.7-4 2.3zm-37 464.7v2.4l106 61.2 2-1.2v-2.3l-106-61.2-2 1.1zm50-472.2 58 33.5v-4.7l-54-31.1-4 2.3zm53-104.5v107.4l4 2.3v-112l-4 2.3zm89 687.6v2.3l106 61.2 2-1.1v-2.4l-106-61.2-2 1.2zm-155-132.2 71 41v-4.6l-67-38.7-4 2.3zm-13 7.5 84 48.5v-4.6l-80-46.2-4 2.3zm-13 7.5 97 56v-4.6l-93-53.7-4 2.3zm92-127v107.4l4 2.3v-112l-4 2.3zm-66-109.7 71 41v-4.6l-67-38.7-4 2.3zm-13 7.5 84 48.5v-4.6l-80-46.2-4 2.3zm-13 7.5 97 56v-4.6l-93-53.7-4 2.3zm-11 6.3v2.4l106 61.2 2-1.2v-2.3l-106-61.2-2 1.1zm3-134.5-67 38.7v4.6l71-41-4-2.3zm-27-244.2 4-2.3V97.4l-4-2.3v67zm53 480.9-93 53.7v4.6l97-56-4-2.3zm-66-473.4 4-2.3V89.9l-4-2.3v82zm81-125.3-58 33.5 4 2.3 54-31.2v-4.6zm0-15-71 41 4 2.3 67-38.7v-4.6zm-15 170.3-93 53.7v4.6l97-56-4-2.3zm-26-15-67 38.7v4.6l71-41-4-2.3zm26 236.7-93 53.7v4.6l97-56-4-2.3zm-13-229.2-80 46.2v4.6l84-48.5-4-2.3zm28-177.8-84 48.5 4 2.3 80-46.2v-4.6zm-28 399.5-80 46.2v4.6l84-48.5-4-2.3zm28-147.8-58 33.5 4 2.3 54-31.2V266zm-44-106.2 54 31.2 4-2.3-58-33.5v4.6zm-24 224 4-2.3v-62.4l-4-2.3v67zm35-292.7 97 56v-4.6l-93-53.7-4 2.3zm33 159.9-71 41 4 2.3 67-38.7V251zm0-40.4v-2.3l-2-1.2-106 61.2v2.3l2 1.2 106-61.2zm0 10.4-97 56 4 2.3 93-53.7V221zm0 15-84 48.5 4 2.3 80-46.2V236zm0 1526.5v-2.3l-2-1.1-106 61.2v2.3l2 1.1 106-61.2zm6 79.7 58 33.5v-4.6l-54-31.2-4 2.3zm53-104.5v107.4l4 2.3v-112l-4 2.3zm-66 112 71 41v-4.6l-67-38.7-4 2.3zm-13 7.5 84 48.5v-4.6l-80-46.2-4 2.3zm13-229.2 71 41v-4.6l-67-38.7-4 2.3zm7 189.9-58 33.5 4 2.3 54-31.1v-4.7zm-20-182.4 84 48.5v-4.6l-80-46.2-4 2.3zm-24 13.9v2.3l106 61.2 2-1.2v-2.3l-106-61.2-2 1.2zm11-6.4 97 56v-4.6l-93-53.7-4 2.3zm33 164.6v-4.7l-71 41 4 2.3 67-38.6zm-15-942.9-93 53.7v4.6l97-56-4-2.3zm0 665.1-93 53.7v4.7l97-56-4-2.4zm0-221.7-93 53.7v4.7l97-56-4-2.4zm0-221.7-93 53.7v4.7l97-56.1-4-2.3zm0 665.1-93 53.7v4.7l97-56-4-2.4zm15 41v-4.6l-84 48.5 4 2.3 80-46.2zm6-172 58 33.5v-4.6l-54-31.2-4 2.3zm-6 157v-4.6l-97 56 4 2.3 93-53.7zM1314 83.6l84 48.5v-4.6l-80-46.2-4 2.3zm-61 307.7 4-2.3v-77.4l-4-2.3v82zm-78 1327.9 4 2.3v-82l-4 2.4v77.3zm-77-153v4.6l80 46.2 4-2.3-84-48.5zm24 180.2 84 48.5v-4.7l-80-46.2-4 2.4zm13-7.6 71 41v-4.6l-67-38.7-4 2.3zm53-12.1 4 2.3v-97l-4 2.3v92.4zm-90-125.8 54 31.1 4-2.3-58-33.5v4.7zm0-49.7v4.6l93 53.7 4-2.3-97-56zm0 30v4.6l67 38.7 4-2.3-71-41zm64 130.5 4 2.3v-67l-4 2.4v62.3zm-114 128.2 4-2.3v-92.4l-4-2.3v97zm100-108.6 58 33.5v-4.6l-54-31.2-4 2.3zm-6-39.2-71 41 4 2.3 67-38.7v-4.6zm59-287v107.4l4 2.3v-112l-4 2.3zm0 221.7v107.4l4 2.3v-112l-4 2.3zm-127 198.1 4-2.3v-62.4l-4-2.3v67zm-13 7.5 4-2.3v-77.4l-4-2.3v82zm81-170.3-97 56 4 2.3 93-53.7v-4.6zm0 15-84 48.5 4 2.3 80-46.2v-4.6zm20-187.1 4 2.3v-67l-4 2.4v62.3zm-14 19.6 58 33.5v-4.6l-54-31.2-4 2.3zm-50-130.4 54 31.1 4-2.3-58-33.5v4.7zm0-19.7v4.6l67 38.7 4-2.3-71-41zm77 138 4 2.3v-82l-4 2.3v77.4zm-77-168v4.6l93 53.7 4-2.3-97-56zm44-65.8-58 33.5 4 2.3 54-31.2v-4.6zm0-15-71 41 4 2.3 67-38.7v-4.6zm-44 95.8v4.6l80 46.2 4-2.3-84-48.5zm90 160.5 4 2.3v-97l-4 2.3v92.4zm-140 113.2 4-2.3v-92.4l-4-2.3v97zm13-7.5 4-2.3V1531l-4-2.3v82zm81-155.3-84 48.5 4 2.3 80-46.2v-4.6zm-68 147.8 4-2.3v-62.4l-4-2.3v67zm68-132.8-71 41 4 2.3 67-38.7v-4.6zm-7 46.7 71 41v-4.6l-67-38.7-4 2.3zm7-76.7-97 56 4 2.3 93-53.7v-4.6zm-20 84.2 84 48.5v-4.6l-80-46.2-4 2.3zm20-39.2-58 33.5 4 2.3 54-31.2v-4.6zm0 226.3v-4.6l-58 33.5 4 2.3 54-31.2zm72-314.1V1520l2 1.2 2-1.2v-122.4l-2-1.1-2 1.1zm0 221.7v122.4l2 1.2 2-1.2v-122.4l-2-1.1-2 1.1zM1228.8 0l-2.8 1.6v4.6l10.8-6.2h-8zM1214 1175.9v122.4l2 1.2 2-1.2v-122.4l-2-1.1-2 1.1zm0-886.8v122.4l2 1.2 2-1.2V289.1l-2-1.1-2 1.1zM1254.8 0 1226 16.6v4.6L1262.8 0h-8zM1214 510.8v122.4l2 1.2 2-1.2V510.8l-2-1.1-2 1.1zm0 221.7v122.4l2 1.2 2-1.2V732.5l-2-1.1-2 1.1zm0 221.7v122.4l2 1.2 2-1.2V954.2l-2-1.1-2 1.1zM1371 0h-4v56.4l4 2.4V0zm-31 68.6 58 33.5v-4.7l-54-31.1-4 2.3zM1384 0h-4v63.9l4 2.4V0zm13 0h-4v71.5l4 2.3V0zm-70 76.1 71 41v-4.7l-67-38.6-4 2.3zm-86-18.5 93-53.7V0h-1.2L1237 55.3l4 2.3zM1280.8 0 1226 31.6v4.6L1288.8 0h-8zM1214 67.4v122.4l2 1.2 2-1.2V67.4l-2-1.1-2 1.1zM1314.8 0h-8L1226 46.6v2.3l2 1.2L1314.8 0zm43.2 0h-4v48.9l4 2.3V0zm-170 174.8 4 2.3v-97l-4 2.3v92.4zm13 343.5v107.4l4 2.3V516l-4 2.3zM1195.2 0l10.8 6.2V1.6l-2.8-1.6h-8zM1148 622.8l58 33.5v-4.6l-54-31.2-4 2.3zm0-221.7 58 33.5V430l-54-31.2-4 2.3zm53-104.5V404l4 2.3v-112l-4 2.3zm-53 991.3 58 33.5v-4.6l-54-31.2-4 2.3zm53-547.9v107.4l4 2.3v-112l-4 2.3zm0 221.7v107.4l4 2.3v-112l-4 2.3zm-53 104.5 58 33.5v-4.6l-54-31.2-4 2.3zm0-221.7 58 33.5v-4.6l-54-31.2-4 2.3zM1143.2 0l62.8 36.2v-4.6L1151.2 0h-8zm57.8 74.9v107.4l4 2.3v-112l-4 2.3zm-100-1.1-67 38.6v4.7l71-41-4-2.3zM1169.2 0l36.8 21.2v-4.6L1177.2 0h-8zm-52 0 86.8 50.1 2-1.2v-2.3L1125.2 0h-8zM1088 66.3l-54 31.1v4.7l58-33.5-4-2.3zm113 1117.1v107.4l4 2.3v-112l-4 2.3zm-53-1004 58 33.5v-4.6l-54-31.2-4 2.3zm132 219.4-54 31.2v4.6l58-33.5-4-2.3zm87 766.2 4 2.3v-82l-4 2.3v77.4zm-77-153v4.6l80 46.2 4-2.3-84-48.5zm0 15v4.6l67 38.7 4-2.3-71-41zm90 145.5 4 2.3v-97l-4 2.3v92.4zm-13 214.2 4 2.3v-82l-4 2.3v77.4zM1290 997v4.6l93 53.7 4-2.3-97-56zm90 397.2 4 2.3v-97l-4 2.3v92.4zm-90-175.5v4.6l93 53.7 4-2.3-97-56zm64-61.2 4 2.3v-67l-4 2.3v62.4zm-64 76.2v4.6l80 46.2 4-2.3-84-48.5zm0-650.1v4.6l67 38.7 4-2.3-71-41zm64 130.4 4 2.4v-67l-4 2.3V714zm-64 61.2v4.7l93 53.7 4-2.3-97-56.1zm77-53.6 4 2.3v-82l-4 2.3v77.4zm-77 68.7v4.6l80 46.2 4-2.3-84-48.5zm90 160.5 4 2.3v-97l-4 2.3v92.4zm-90-145.5v4.6l67 38.7 4-2.3-71-41zm77 138 4 2.3v-82l-4 2.3v77.4zm-13-7.5 4 2.3v-67l-4 2.3v62.4zm-74 793.2-54 31.2v4.6l58-33.5-4-2.3zm10-36.9v4.6l67 38.7 4-2.3-71-41zm77 138 4 2.3v-82l-4 2.3v77.4zm-77-153v4.6l80 46.2 4-2.3-84-48.5zm64 145.5 4 2.3v-67l-4 2.3v62.4zm-64-573.9v4.6l67 38.7 4-2.3-71-41zm0-680.1v4.6l80 46.2 4-2.3-84-48.5zm-37 1152.9 4-2.3v-77.3l-4-2.4v82zm-13 7.5 4-2.3v-92.4l-4-2.3v97zm-13 7.5 4-2.3v-107.4l-4-2.3v112zm153 101.1 4 2.3v-97l-4 2.3v92.4zm-90-397.2v4.6l93 53.7 4-2.3-97-56zm90 175.5 4 2.3v-97l-4 2.3v92.4zm-90-160.5v4.6l80 46.2 4-2.3-84-48.5zm64-76.2 4 2.3v-67l-4 2.3v62.4zm-64 91.2v4.6l67 38.7 4-2.3-71-41zm64 130.5 4 2.3v-67l-4 2.3v62.4zm13 7.5 4 2.3v-82l-4 2.3v77.4zm-77 53.7v4.6l93 53.7 4-2.3-97-56zm116 68.1v122.4l2 1.1 2-1.1v-122.4l-2-1.2-2 1.2zM1423 0h-4v73.8l4-2.3V0zm-157 1714 4-2.3v-62.3l-4-2.4v67zm140-205.5v122.4l2 1.1 2-1.1v-122.4l-2-1.2-2 1.2zm0-1108.5v122.4l2 1.1 2-1.1V400l-2-1.2-2 1.2zm0 443.4v122.4l2 1.1 2-1.1V843.4l-2-1.2-2 1.2zM1449 0h-4v58.8l4-2.4V0zm-43 621.7v122.4l2 1.1 2-1.1V621.7l-2-1.2-2 1.2zm-26 107.4 4 2.3v-97l-4 2.3v92.4zm26 336v122.4l2 1.1 2-1.1v-122.4l-2-1.2-2 1.2zM1436 0h-4v66.3l4-2.4V0zm46 430v2.3l106 61.2 2-1.2V490l-106-61.2-2 1.2zm0 221.7v2.3l106 61.2 2-1.2v-2.3l-106-61.2-2 1.2zm11-6.4 97 56v-4.6l-93-53.7-4 2.3zM1462 0h-4v51.2l4-2.3V0zm31 867 97 56v-4.6l-93-53.7-4 2.3zm0-665.1 97 56v-4.6l-93-53.7-4 2.3zm0 221.7 97 56V475l-93-53.7-4 2.3zm86-368.3L1483.2 0h-1.2v3.9l93 53.7 4-2.3zm-97 153v2.3l106 61.2 2-1.2v-2.3l-106-61.2-2 1.2zm-76 1078.5v122.4l2 1.1 2-1.1v-122.4l-2-1.2-2 1.2zm-26-779.4 4 2.3v-97l-4 2.3v92.4zm-90-160.5v4.6l80 46.2 4-2.3-84-48.5zm0-15.1v4.7l93 53.7 4-2.4-97-56zm64-61.2 4 2.4v-67l-4 2.3v62.3zm0 221.7 4 2.4v-67l-4 2.3v62.3zm-64 61.2v4.7l93 53.7 4-2.4-97-56zm0-413.3v4.6l67 38.7 4-2.3-71-41zm0 221.7v4.6l67 38.7 4-2.3-71-41zm77 138 4 2.3v-82l-4 2.3v77.4zm39-321.6v122.4l2 1.1 2-1.1V178.3l-2-1.2-2 1.2zm-166-1.2 4-2.3V82.4l-4-2.3v97zm40 0-54 31.2v4.6l58-33.5-4-2.3zm87 101 4 2.4v-82l-4 2.3v77.3zM1406 79l2 1.1 2-1.1V0h-4v79zm-179 105.6 4-2.3V74.9l-4-2.3v112zm63-59.5v4.7l80 46.2 4-2.4-84-48.5zm0-15v4.7l93 53.7 4-2.4-97-56zm90 175.6 4 2.3v-97l-4 2.3v92.4zm-46 1280.5-84 48.5 4 2.3 80-46.2v-4.6zm-81-731.5 4-2.3V755l-4-2.3v82zm13-7.5 4-2.3v-62.4l-4-2.3v67zm14 15-54 31.2v4.6l58-33.5-4-2.3zm-53 7.5 4-2.3V740l-4-2.3v112zm13-7.5 4-2.3v-92.4l-4-2.3v97zm53 7.5-67 38.7v4.6l71-41-4-2.3zm41-140.3-58 33.5 4 2.3 54-31.2v-4.6zm0-15-71 41 4 2.3 67-38.7v-4.6zm-28 162.8-80 46.2v4.6l84-48.5-4-2.3zm28 18.5v-2.3l-2-1.2-106 61.2v2.4l2 1.1 106-61.2zm-28 203.2-80 46.2v4.6l84-48.5-4-2.3zm-13-7.5-67 38.7v4.6l71-41-4-2.3zm41-140.3-58 33.5 4 2.3 54-31.1v-4.7zm-68 117.8 4-2.3v-62.4l-4-2.3v67zm68-369.5-84 48.5 4 2.3 80-46.2v-4.6zm0 206.7-97 56 4 2.3 93-53.7v-4.6zm-44-61.2 54 31.2 4-2.3-58-33.5v4.6zm44 76.2-84 48.5 4 2.3 80-46.2v-4.6zm0 15-71 41 4 2.3 67-38.7v-4.6zm0-428.4-58 33.5 4 2.3 54-31.2v-4.6zm0-15-71 41 4 2.3 67-38.7v-4.6zm0-15-84 48.5 4 2.3 80-46.2v-4.6zm0-15-97 56 4 2.3 93-53.7v-4.6zm-81 613.7 4-2.3v-77.4l-4-2.3v82zm-26-650.1 4-2.3V296.6l-4-2.3v112zm-153 975.2 4-2.3v-62.4l-4-2.3v67zm260-949.2V430l-2-1.2-106 61.2v2.3l2 1.2 106-61.2zm-28 203.2-80 46.2v4.6l84-48.5-4-2.3zm-16-254 54 31.2 4-2.3-58-33.5v4.6zm-50 239 4-2.3v-92.4l-4-2.3v97zm-13 7.5 4-2.3V518.3l-4-2.3v112zm63-24.8 54 31.2 4-2.3-58-33.5v4.6zm-10 17.3-54 31.2v4.6l58-33.5-4-2.3zm54 33.5v-2.3l-2-1.2-106 61.2v2.3l2 1.2 106-61.2zm-41-26-67 38.7v4.6l71-41-4-2.3zm41 36.4-97 56 4 2.3 93-53.7v-4.6zm-41 1072.1-67 38.7v4.6l71-41-4-2.3zM1253 613l4-2.3v-77.4l-4-2.3v82zm13-7.5 4-2.3v-62.4l-4-2.3v67zm-26 901.8 4-2.3v-92.4l-4-2.3v97zm40 0-54 31.2v4.6l58-33.5-4-2.3zm54-162.8-84 48.5 4 2.3 80-46.2v-4.6zm-68 147.8 4-2.3v-62.3l-4-2.4v67zm-13 7.5 4-2.3v-77.4l-4-2.3v82zm81-140.3-71 41 4 2.3 67-38.7v-4.6zm0 15-58 33.5 4 2.3 54-31.1v-4.7zm-41 140.3-67 38.7v4.6l71-41-4-2.3zm13 7.5-80 46.2v4.6l84-48.5-4-2.3zm-79-7.5 4-2.3v-107.4l-4-2.3v112zm63-24.8 54 31.2 4-2.3-58-33.5v4.6zm0 221.7 54 31.2 4-2.3-58-33.5v4.6zm16 32.3-80 46.2v4.7l84-48.5-4-2.4zm28-162.8-71 41 4 2.3 67-38.7v-4.6zm0 15-58 33.5 4 2.3 54-31.1v-4.7zm0-55.4v-2.3l-2-1.1-106 61.2v2.3l2 1.1 106-61.2zm-94-1142 4-2.3v-92.4l-4-2.3v97zm94 1152.4-97 56 4 2.3 93-53.7v-4.6zm-44-504.6 54 31.2 4-2.3-58-33.5v4.6zm44 76.2-84 48.5 4 2.3 80-46.2v-4.6zm0 15-71 41 4 2.3 67-38.7v-4.6zm0 15-58 33.5 4 2.3 54-31.1v-4.7zm-28 147.8-80 46.2v4.6l84-48.5-4-2.3zm28-192.8-97 56 4 2.3 93-53.7v-4.6zm-54-43.9-54 31.2v4.6l58-33.5-4-2.3zm54 33.5v-2.3l-2-1.2-106 61.2v2.4l2 1.1 106-61.2zm-107-26 4-2.3V961.7l-4-2.3v112zm13-7.5 4-2.3v-92.4l-4-2.3v97zm40 221.7-54 31.2v4.6l58-33.5-4-2.3zm10-17.3 54 31.2 4-2.3-58-33.5v4.6zm44 61.2-97 56 4 2.3 93-53.7v-4.6zm-41-36.4-67 38.7v4.6l71-41-4-2.3zm41 26v-2.3l-2-1.2-106 61.2v2.4l2 1.1 106-61.2zm-107-26 4-2.3v-107.4l-4-2.3v112zm13-7.5 4-2.3v-92.4l-4-2.3v97zm26-15 4-2.3V1206l-4-2.4v67zm-13 7.5 4-2.3v-77.4l-4-2.3v82zm87-544.4 58 33.5v-4.7l-54-31.1-4 2.3zM896 398.8 842 430v4.6l58-33.5-4-2.3zm-53 7.5 4-2.3V296.6l-4-2.3v112zM950 221l-97 56 4 2.3 93-53.7V221zm-41 185.3L842 445v4.6l71-41-4-2.3zm-53-7.5 4-2.3v-92.4l-4-2.3v97zm140 330.3 4 2.3v-97l-4 2.3v92.4zm-90-382.2v4.6l80 46.2 4-2.3-84-48.5zm29 74.4L842 475v4.6l97-56-4-2.3zm-13-7.5L842 460v4.6l84-48.5-4-2.3zm-16 139.7v4.7l93 53.7 4-2.4-97-56zm-37-162.2 4-2.3v-77.4l-4-2.3v82zm37-29.4v4.6l67 38.7 4-2.3-71-41zm77 138 4 2.3v-82l-4 2.3v77.4zm-77-118.4 54 31.2 4-2.3-58-33.5v4.6zm64 110.8 4 2.4v-67l-4 2.3v62.3zM950 266l-58 33.5 4 2.3 54-31.2V266zm0-30-84 48.5 4 2.3 80-46.2V236zm-68 147.8 4-2.3v-62.4l-4-2.3v67zM950 251l-71 41 4 2.3 67-38.7V251zm0 181.3V430l-2-1.2L842 490v2.3l2 1.2 106-61.2zm-54 188.2-54 31.2v4.6l58-33.5-4-2.3zm-53 7.5 4-2.3V518.3l-4-2.3v112zm13-7.5 4-2.3v-92.4l-4-2.3v97zm13-7.5 4-2.3v-77.4l-4-2.3v82zm81-170.3-97 56 4 2.3 93-53.7v-4.6zm0 211.3v-2.3l-2-1.2-106 61.2v2.3l2 1.2L950 654zm-15-11-93 53.7v4.6l97-56-4-2.3zm-26-15-67 38.7v4.6l71-41-4-2.3zm13 7.5-80 46.2v4.6l84-48.5-4-2.3zm48 78.5 4 2.4v-67l-4 2.3V714zm-64-145.4v4.6l80 46.2 4-2.3-84-48.5zm0 15v4.6l67 38.7 4-2.3-71-41zm77 138 4 2.3v-82l-4 2.3v77.4zm-77 53.6v4.7l93 53.7 4-2.3-97-56.1zm44-287.5-58 33.5 4 2.3 54-31.2v-4.6zm0-30-84 48.5 4 2.3 80-46.2v-4.6zm-68 147.8 4-2.3v-62.4l-4-2.3v67zm68-132.8-71 41 4 2.3 67-38.7v-4.6zm-44 130.5 54 31.2 4-2.3-58-33.5v4.6zm116 240.2v122.4l2 1.1 2-1.1V843.4l-2-1.2-2 1.2zm0 221.7v122.4l2 1.1 2-1.1v-122.4l-2-1.2-2 1.2zm0 221.7v122.4l2 1.1 2-1.1v-122.4l-2-1.2-2 1.2zm0-665.1v122.4l2 1.1 2-1.1V621.7l-2-1.2-2 1.2zm-26-114.3 4 2.3v-97l-4 2.3v92.4zM896 177.1l-54 31.2v4.6l58-33.5-4-2.3zM1022 79l2 1.1 2-1.1V0h-4v79zm0 1651.2v122.4l2 1.1 2-1.1v-122.4l-2-1.2-2 1.2zm0-1551.9v122.4l2 1.1 2-1.1V178.3l-2-1.2-2 1.2zM1052 0h-4v66.3l4-2.4V0zm46 208.3v2.3l106 61.2 2-1.2v-2.3l-106-61.2-2 1.2zm97-153L1099.2 0h-1.2v3.9l93 53.7 4-2.3zm-86 146.6 97 56v-4.6l-93-53.7-4 2.3zm0 221.7 97 56V475l-93-53.7-4 2.3zM1039 0h-4v73.8l4-2.3V0zm39 0h-4v51.2l4-2.3V0zM843 184.6l4-2.3V74.9l-4-2.3v112zm179 1323.9v122.4l2 1.1 2-1.1v-122.4l-2-1.2-2 1.2zM1065 0h-4v58.8l4-2.4V0zm-43 400v122.4l2 1.1 2-1.1V400l-2-1.2-2 1.2zM950 14.3l-84 48.5 4 2.3 80-46.2v-4.6zm-81 155.3 4-2.3V89.9l-4-2.3v82zm81-140.3-71 41 4 2.3 67-38.7v-4.6zm-68 132.8 4-2.3V97.4l-4-2.3v67zm27 22.5-67 38.7v4.6l71-41-4-2.3zm-3 147.2v4.7l93 53.7 4-2.4-97-56zm44-121.2v-2.3l-2-1.2-106 61.2v2.3l2 1.2 106-61.2zm-15-11-93 53.7v4.6l97-56-4-2.3zm-13-7.5-80 46.2v4.6l84-48.5-4-2.3zm74 93.6 4 2.3v-97l-4 2.3v92.4zM856 177.1l4-2.3V82.4l-4-2.3v97zm127 101 4 2.4v-82l-4 2.3v77.3zm-77-153v4.7l80 46.2 4-2.4-84-48.5zm0-15v4.7l93 53.7 4-2.4-97-56zm0 49.7 54 31.2 4-2.3-58-33.5v4.6zm44-115.5-58 33.5 4 2.3 54-31.2v-4.6zm20 226.3 4 2.4v-67l-4 2.3v62.3zm-64-130.4v4.6l67 38.7 4-2.3-71-41zm77 1246.5 4 2.3v-82l-4 2.3v77.4zm-140-93.6 4-2.3v-107.4l-4-2.3v112zm107-185.3-97 56 4 2.3 93-53.7v-4.6zm-94 177.8 4-2.3v-92.4l-4-2.3v97zm13-7.5 4-2.3v-77.4l-4-2.3v82zm27 7.5-54 31.2v4.6l58-33.5-4-2.3zm26 15-80 46.2v4.6l84-48.5-4-2.3zm28 18.5v-2.3l-2-1.2-106 61.2v2.4l2 1.1 106-61.2zm-41-26-67 38.7v4.6l71-41-4-2.3zm41-170.3-84 48.5 4 2.3 80-46.2v-4.6zm-15 185.3-93 53.7v4.7l97-56-4-2.4zM1098 430v2.3l106 61.2 2-1.2V490l-106-61.2-2 1.2zm-192 803.7v4.6l80 46.2 4-2.3-84-48.5zm0 15v4.6l67 38.7 4-2.3-71-41zm90 145.5 4 2.3v-97l-4 2.3v92.4zm-26-15 4 2.3v-67l-4 2.3v62.4zm-88-108.6 4-2.3V1206l-4-2.4v67zm68-117.8-58 33.5 4 2.3 54-31.1v-4.7zm0-15-71 41 4 2.3 67-38.7v-4.6zm-44 130.5 54 31.2 4-2.3-58-33.5v4.6zm-37 231.5 4-2.3v-77.4l-4-2.3v82zm81-170.3-97 56 4 2.3 93-53.7v-4.6zm-94 177.8 4-2.3v-92.4l-4-2.3v97zm50-288.6v4.6l93 53.7 4-2.3-97-56zm-24 273.6 4-2.3v-62.3l-4-2.4v67zm68-147.8-84 48.5 4 2.3 80-46.2v-4.6zm-107 170.3 4-2.3v-107.4l-4-2.3v112zm63-74.4v4.6l93 53.7 4-2.3-97-56zm16 81.9-80 46.2v4.6l84-48.5-4-2.3zm-26-15-54 31.2v4.6l58-33.5-4-2.3zm13 7.5-67 38.7v4.6l71-41-4-2.3zm74 93.6 4 2.3v-82l-4 2.3v77.4zm-77-153v4.6l80 46.2 4-2.3-84-48.5zm90 160.5 4 2.3v-97l-4 2.3v92.4zm-90-145.5v4.6l67 38.7 4-2.3-71-41zm44-95.9-58 33.5 4 2.3 54-31.1v-4.7zm20 226.4 4 2.3v-67l-4 2.3v62.4zm-20-241.4-71 41 4 2.3 67-38.7v-4.6zM906 1490l54 31.2 4-2.3-58-33.5v4.6zm-50-426.1 4-2.3v-92.4l-4-2.3v97zm40-221.7-54 31.2v4.6l58-33.5-4-2.3zm-40 0 4-2.3v-92.4l-4-2.3v97zm-13 7.5 4-2.3V740l-4-2.3v112zm107-185.3-97 56 4 2.3 93-53.7v-4.6zm-81 170.3 4-2.3V755l-4-2.3v82zm81 41v-2.3l-2-1.2-106 61.2v2.4l2 1.1 106-61.2zm-41-26-67 38.7v4.6l71-41-4-2.3zm26 15-93 53.7v4.6l97-56-4-2.3zm-13-7.5-80 46.2v4.6l84-48.5-4-2.3zm-16-66.9v4.6l80 46.2 4-2.3-84-48.5zm77 153 4 2.3v-82l-4 2.3v77.4zm-33-263.9-84 48.5 4 2.3 80-46.2v-4.6zm-44 125.9v4.6l67 38.7 4-2.3-71-41zm0 191.7v4.6l93 53.7 4-2.3-97-56zm64-61.2 4 2.3v-67l-4 2.3v62.4zm-88-108.6 4-2.3v-62.4l-4-2.3v67zm68-132.8-71 41 4 2.3 67-38.7v-4.6zm-44 130.5 54 31.2 4-2.3-58-33.5v4.6zm44-115.5-58 33.5 4 2.3 54-31.2v-4.6zm-44 337.2 54 31.2 4-2.3-58-33.5v4.6zm-63 24.8 4-2.3V961.7l-4-2.3v112zm153-120.6 4 2.3v-97l-4 2.3v92.4zm-46-64.7-97 56 4 2.3 93-53.7v-4.6zm-81 170.3 4-2.3v-77.4l-4-2.3v82zm81-155.3-84 48.5 4 2.3 80-46.2v-4.6zm-28 177.8-80 46.2v4.6l84-48.5-4-2.3zm-26-15-54 31.2v4.6l58-33.5-4-2.3zm39 22.5-93 53.7v4.7l97-56.1-4-2.3zm61 86.1 4 2.3v-97l-4 2.3v92.4zm-87-101.1-67 38.7v4.6l71-41-4-2.3zm-27-22.5 4-2.3v-62.4l-4-2.3v67zM983 1165l4 2.3v-82l-4 2.3v77.4zm-13-7.5 4 2.3v-67l-4 2.3v62.4zM906 1012v4.6l80 46.2 4-2.3-84-48.5zm0 15v4.6l67 38.7 4-2.3-71-41zm44 70.4v-2.3l-2-1.2-106 61.2v2.4l2 1.1 106-61.2zm0-181.3-71 41 4 2.3 67-38.7v-4.6zm0 15-58 33.5 4 2.3 54-31.1v-4.7zm192 80.9-84 48.5 4 2.3 80-46.2v-4.6zm-7-381.7 71 41v-4.6l-67-38.7-4 2.3zm-74 93.6 4-2.3v-77.4l-4-2.3v82zm-13 7.5 4-2.3v-92.4l-4-2.3v97zm94-177.9-97 56 4 2.4 93-53.7v-4.7zm-20 84.3 84 48.5v-4.6l-80-46.2-4 2.3zm-24-180.1v4.6l80 46.2 4-2.3-84-48.5zm0 15v4.6l67 38.7 4-2.3-71-41zm64 130.5 4 2.3v-67l-4 2.3v62.4zm13 7.5 4 2.3v-82l-4 2.3v77.4zm-33-12.1-58 33.5 4 2.3 54-31.2v-4.6zm46 241.3 4 2.3v-97l-4 2.3v92.4zM1098 714l54 31.2 4-2.3-58-33.5v4.6zm64 110.9 4 2.3v-67l-4 2.3v62.4zm-64-130.5v4.6l67 38.7 4-2.3-71-41zm0-30v4.6l93 53.7 4-2.3-97-56zm44-95.8-84 48.5 4 2.3 80-46.2v-4.6zm-68 147.8 4-2.4v-62.3l-4-2.3v67zm68-132.8-71 41 4 2.3 67-38.7v-4.6zm-44-91.3 54 31.2 4-2.3-58-33.5v4.6zm44-160.5-97 56 4 2.4 93-53.7v-4.7zm-20 84.3 84 48.5V460l-80-46.2-4 2.3zm53-27.1 4 2.3v-82l-4 2.3V389zm-77-153v4.6l80 46.2 4-2.3-84-48.5zm90 382.2 4 2.3v-97l-4 2.3v92.4zM1098 251v4.6l67 38.7 4-2.3-71-41zm64 130.5 4 2.3v-67l-4 2.3v62.4zm26 15 4 2.3v-97l-4 2.3v92.4zM1098 221v4.6l93 53.7 4-2.3-97-56zm0 49.6 54 31.2 4-2.3-58-33.5v4.6zm37 138 71 41V445l-67-38.7-4 2.3zm7-31.7-58 33.5 4 2.3 54-31.2v-4.6zm0-15-71 41 4 2.3 67-38.7v-4.6zm-94 147.8 4-2.3V415l-4-2.3v97zm50-67v4.6l93 53.7 4-2.3-97-56zm-24 52 4-2.4V430l-4-2.3v67zm68-147.8-84 48.5 4 2.3 80-46.2v-4.6zm33 485.5 4 2.3v-82l-4 2.3v77.4zm-114-330.2 4-2.3v-77.4l-4-2.3v82zm37 413.9v4.6l67 38.7 4-2.3-71-41zm0-236.7v4.6l80 46.2 4-2.3-84-48.5zm44 362.6-58 33.5 4 2.3 54-31.2v-4.6zm-44 65.8v4.6l93 53.7 4-2.3-97-56zm90 175.5 4 2.3v-97l-4 2.3v92.4zM1142 997l-97 56 4 2.3 93-53.7V997zm-44 160.5 54 31.1 4-2.3-58-33.5v4.7zm-24 2.3 4-2.3v-62.4l-4-2.3v67zm-13 7.5 4-2.3v-77.4l-4-2.3v82zm81 66.4-84 48.5 4 2.3 80-46.2v-4.6zm0-15-97 56 4 2.3 93-53.7v-4.6zm-94-43.9 4-2.3v-92.4l-4-2.3v97zm74 128.1 84 48.5v-4.6l-80-46.2-4 2.3zm-74 93.6 4-2.3v-92.4l-4-2.3v97zm13-7.5 4-2.3v-77.4l-4-2.3v82zm37-251.2v4.6l67 38.7 4-2.3-71-41zm37 157.6 71 41v-4.6l-67-38.7-4 2.3zm40-19.6 4 2.3v-82l-4 2.3v77.4zm-13-7.5 4 2.3v-67l-4 2.4v62.3zm-64-145.5v4.6l80 46.2 4-2.3-84-48.5zm44-95.8-71 41 4 2.3 67-38.7v-4.6zm-81-81.4 4-2.3v-77.4l-4-2.3v82zm81-125.3-58 33.5 4 2.3 54-31.2v-4.6zm-33-175 97 56v-4.6l-93-53.7-4 2.3zm33 160-71 41 4 2.3 67-38.7v-4.6zm0-15-84 48.5 4 2.3 80-46.2v-4.6zm-7 61.7 71 41v-4.6l-67-38.7-4 2.3zm-13 7.5 84 48.5v-4.6l-80-46.2-4 2.3zm-74 93.6 4-2.3v-92.4l-4-2.3v97zm94-177.9-97 56.1 4 2.3 93-53.7v-4.7zm20 271.4 4 2.3v-67l-4 2.3v62.4zm-64-160.5v4.6l93 53.7 4-2.3-97-56zm77 168 4 2.3v-82l-4 2.3v77.4zm-33-898.9-58 33.5 4 2.3 54-31.2v-4.6zm-7 918.5 71 41v-4.6l-67-38.7-4 2.3zm-37-172.6v4.6l80 46.2 4-2.3-84-48.5zm90 160.5 4 2.3v-97l-4 2.3v92.4zm-66 19.6 84 48.5v-4.6l-80-46.2-4 2.3zm-24-145.4 54 31.1 4-2.3-58-33.5v4.7zm-24 2.3 4-2.3v-62.4l-4-2.3v67zm68 491.9v-2.3l-2-1.2-106 61.2v2.3l2 1.2 106-61.2zm-54 188.2-54 31.2v4.6l58-33.5-4-2.3zm54-631.6v-2.4l-2-1.1-106 61.2v2.3l2 1.2 106-61.2zm-15 432.4-93 53.7v4.6l97-56-4-2.3zm-26 206.7-67 38.7v4.6l71-41-4-2.3zm41 26v-2.3l-2-1.2-106 61.2v2.3l2 1.2 106-61.2zm-15-11-93 53.7v4.6l97-56-4-2.3zm-13-229.2-80 46.2v4.6l84-48.5-4-2.3zm0 221.7-80 46.2v4.6l84-48.5-4-2.3zm28-424.9v-2.3l-2-1.2-106 61.2v2.3l2 1.2 106-61.2zm-54-33.5-54 31.2v4.6l58-33.5-4-2.3zm13 7.5-67 38.7v4.6l71-41-4-2.3zm-66 0 4-2.3v-107.4l-4-2.3v112zm66 221.7-67 38.7v4.6l71-41-4-2.3zm13-214.2-80 46.2v4.6l84-48.5-4-2.3zm-26 206.7-54 31.2v4.6l58-33.5-4-2.3zm39-199.2-93 53.7v4.6l97-56-4-2.3zm-92 206.7 4-2.3v-107.4l-4-2.3v112zm0 443.4 4-2.3v-107.4l-4-2.3v112zm0-221.7 4-2.3V1516l-4-2.3v112zm63-308.9v2.3l106 61.2 2-1.1v-2.4l-106-61.2-2 1.2zm11-6.3 97 56v-4.7l-93-53.7-4 2.4zm0 221.7 97 56v-4.7l-93-53.7-4 2.4zm-11-437.1v2.3l106 61.2 2-1.1v-2.4l-106-61.2-2 1.2zm11-6.4 97 56.1v-4.7l-93-53.7-4 2.3zm0-221.7 97 56v-4.6l-93-53.7-4 2.3zm-11-215.3v2.3l106 61.2 2-1.2v-2.3l-106-61.2-2 1.2zm0 221.7v2.3l106 61.2 2-1.1v-2.4l-106-61.2-2 1.2zm0 665.1v2.3l106 61.2 2-1.1v-2.3l-106-61.2-2 1.1zm0 239 93 53.7 4-2.3-97-56v4.6zm0 30.1 67 38.6 4-2.3-71-41v4.7zm11-53.7 97 56v-4.7l-93-53.7-4 2.4zm-11 68.7 54 31.1 4-2.3-58-33.5v4.7zm3 24.8-67 38.7v4.6l71-41-4-2.3zm13 7.5-80 46.2v4.6l84-48.5-4-2.3zm-16-94.7v2.3l106 61.2 2-1.1v-2.3l-106-61.2-2 1.1zm0 32.3 80 46.2 4-2.3-84-48.5v4.6zm-10 47.4-54 31.2v4.6l58-33.5-4-2.3zm13-1544.4-67 38.7v4.6l71-41-4-2.3zm81-232.7-84-48.5v4.6l80 46.2 4-2.3zm-68 18.5-80 46.2v4.6l84-48.5-4-2.3zm42-3.5-58-33.5v4.6l54 31.2 4-2.3zm-29 11-93 53.7v4.6l97-56-4-2.3zm48 78.5 4 2.3v-82l-4 2.3v77.4zM1088 288l-54 31.1v4.7l58-33.5-4-2.3zm26 15-80 46.2v4.6l84-48.5-4-2.3zm28-162.8-71 41 4 2.3 67-38.7v-4.6zm-107 155.3 4-2.3V185.8l-4-2.3v112zm107-195.8v-2.3l-2-1.1-106 61.2v2.3l2 1.1 106-61.2zm0 10.4-97 56 4 2.4 93-53.7v-4.7zm0 15-84 48.5 4 2.4 80-46.2v-4.7zm20 34.7 4 2.3v-67l-4 2.3v62.4zM1074 273l4-2.4v-62.3l-4-2.3v67zm-13 7.5 4-2.4v-77.3l-4-2.3v82zm108-210.2-71-41v4.6l67 38.7 4-2.3zM1048 288l4-2.3v-92.4l-4-2.3v97zm87-101.1 71 41v-4.6l-67-38.7-4 2.3zm-13 7.5 84 48.5v-4.6l-80-46.2-4 2.3zm-87 766.2 4-2.3V850.9l-4-2.3v112zm79-214.2-80 46.2v4.6l84-48.5-4-2.3zm13 7.5-93 53.7v4.6l97-56-4-2.3zm15 11v-2.4l-2-1.1-106 61.2v2.3l2 1.2 106-61.2zm-41-26-67 38.7v4.6l71-41-4-2.3zm-13 214.2-54 31.1v4.7l58-33.5-4-2.3zm26 15-80 46.2v4.6l84-48.5-4-2.3zm13 7.5-93 53.7v4.6l97-56-4-2.3zm-26-15-67 38.7v4.6l71-41-4-2.3zm-13-229.2-54 31.1v4.7l58-33.5-4-2.3zm-53-214.2 4-2.3V407.5l-4-2.3v112zm92-206.7-93 53.7v4.6l97-56-4-2.3zm-39 199.2-54 31.1v4.7l58-33.5-4-2.3zm13 7.5-67 38.7v4.6l71-41-4-2.3zm41-195.8v-2.3l-2-1.1-106 61.2v2.3l2 1.1 106-61.2zm-15 210.8-93 53.7v4.6l97-56-4-2.3zm-13-7.5-80 46.2v4.6l84-48.5-4-2.3zm28 18.5v-2.4l-2-1.1-106 61.2v2.3l2 1.2 106-61.2zm-107 195.7 4-2.3V629.2l-4-2.3v112zm447 827.3v4.6l80 46.2 4-2.3-84-48.5zm192-1204.3v4.6l67 38.7 4-2.3-71-41zm0 19.6 54 31.2 4-2.3-58-33.5v4.6zm44-115.5-58 33.5 4 2.3 54-31.2V266zm20 226.3 4 2.4v-67l-4 2.3v62.3zM1718 251l-71 41 4 2.3 67-38.7V251zm0-236.7-84 48.5 4 2.3 80-46.2v-4.6zm0 206.7-97 56 4 2.3 93-53.7V221zm-68 162.8 4-2.3v-62.4l-4-2.3v67zm68-147.8-84 48.5 4 2.3 80-46.2V236zm-94 162.8 4-2.3v-92.4l-4-2.3v97zm53-214.2-67 38.7v4.6l71-41-4-2.3zm74 315.3 4 2.3v-82l-4 2.3v77.4zm-48-300.3-93 53.7v4.6l97-56-4-2.3zm-66-30 4-2.3V89.9l-4-2.3v82zm53 22.5-80 46.2v4.6l84-48.5-4-2.3zm-16 154.8v4.6l80 46.2 4-2.3-84-48.5zm90 160.5 4 2.3v-97l-4 2.3v92.4zm-46-296.8v-2.3l-2-1.2-106 61.2v2.3l2 1.2 106-61.2zm-44 121.2v4.7l93 53.7 4-2.4-97-56zm-37 59.5 4-2.3v-77.4l-4-2.3v82zm37 211.9 54 31.2 4-2.3-58-33.5v4.6zm64 110.8 4 2.4v-67l-4 2.3V714zm-64-130.4v4.6l67 38.7 4-2.3-71-41zm77 138 4 2.3v-82l-4 2.3v77.4zm-33-233.9-58 33.5 4 2.3 54-31.2v-4.6zm0-30-84 48.5 4 2.3 80-46.2v-4.6zM1637 613l4-2.3v-77.4l-4-2.3v82zm13-7.5 4-2.3v-62.4l-4-2.3v67zm68-132.8-71 41 4 2.3 67-38.7v-4.6zm-44 80.8v4.7l93 53.7 4-2.4-97-56zm3-147.2-67 38.7v4.6l71-41-4-2.3zm13 7.5-80 46.2v4.6l84-48.5-4-2.3zm-26-15-54 31.2v4.6l58-33.5-4-2.3zm39 22.5-93 53.7v4.6l97-56-4-2.3zm15 11V430l-2-1.2-106 61.2v2.3l2 1.2 106-61.2zm-44 136.3v4.6l80 46.2 4-2.3-84-48.5zm90 160.5 4 2.3v-97l-4 2.3v92.4zm-153-322.8 4-2.3V296.6l-4-2.3v112zm153-120.6 4 2.3v-97l-4 2.3v92.4zM1846 0h-4v51.2l4-2.3V0zm57 186.9 17 9.8v-4.6l-13-7.5-4 2.3zm-113 1099.9v122.4l2 1.1 2-1.1v-122.4l-2-1.2-2 1.2zm130-1105.1v-4.6l-4 2.3 4 2.3zM1833 0h-4v58.8l4-2.4V0zm-43 1730.2v122.4l2 1.1 2-1.1v-122.4l-2-1.2-2 1.2zM1820 0h-4v66.3l4-2.4V0zm-30 1508.5v122.4l2 1.1 2-1.1v-122.4l-2-1.2-2 1.2zM1807 0h-4v73.8l4-2.3V0zm59 0v3.9l54 31.2v-4.6L1867.2 0h-1.2zm0 447.3 54 31.2v-4.6l-54-31.2v4.6zm44-65.8v-4.6l-58 33.5 4 2.3 54-31.2zm-20 34.6 30 17.4v-4.7l-26-15-4 2.3zm0-221.7 30 17.4v-4.7l-26-15-4 2.3zm30 430.7v-4.6l-4 2.3 4 2.3zm-17-216.5 17 9.8v-4.6l-13-7.5-4 2.3zm7-248.8v-4.6l-58 33.5 4 2.3 54-31.2zm-44 65.8 54 31.2v-4.6l-54-31.2v4.6zm-216-63.5 4-2.3V97.4l-4-2.3v67zm270 241.3v-4.6l-4 2.3 4 2.3zm-246-263.2v4.6l67 38.7 4-2.3-71-41zm0-15.1v4.7l80 46.2 4-2.4-84-48.5zm77 153 4 2.4v-82l-4 2.3v77.3zm-33 164.6-97 56 4 2.3 93-53.7v-4.6zm0-398.4-58 33.5 4 2.3 54-31.2v-4.6zm-44 65.8v4.7l93 53.7 4-2.4-97-56zm44-80.8-71 41 4 2.3 67-38.7v-4.6zm20 241.3 4 2.4v-67l-4 2.3v62.3zm-64-110.8 54 31.2 4-2.3-58-33.5v4.6zm116 683.6v122.4l2 1.1 2-1.1V843.4l-2-1.2-2 1.2zm0-665.1v122.4l2 1.1 2-1.1V178.3l-2-1.2-2 1.2zm0 221.7v122.4l2 1.1 2-1.1V400l-2-1.2-2 1.2zm0 221.7v122.4l2 1.1 2-1.1V621.7l-2-1.2-2 1.2zm-166-444.6 4-2.3V82.4l-4-2.3v97zm166 888v122.4l2 1.1 2-1.1v-122.4l-2-1.2-2 1.2zm0-986.1 2 1.1 2-1.1V0h-4v79zm-179 105.6 4-2.3V74.9l-4-2.3v112zm53-7.5-54 31.2v4.6l58-33.5-4-2.3zm100 1438.8 4 2.3v-97l-4 2.3v92.4zm-90-382.2v4.6l80 46.2 4-2.3-84-48.5zm0 34.6 54 31.2 4-2.3-58-33.5v4.6zm44 76.2-84 48.5 4 2.3 80-46.2v-4.6zm33 42.2 4 2.3v-82l-4 2.3v77.4zm-114-108.6 4-2.3v-77.4l-4-2.3v82zm81-155.3-84 48.5 4 2.3 80-46.2v-4.6zm-68 147.8 4-2.3V1206l-4-2.4v67zm68-117.8-58 33.5 4 2.3 54-31.1v-4.7zm0-15-71 41 4 2.3 67-38.7v-4.6zm20 241.4 4 2.3v-67l-4 2.3v62.4zm26 15 4 2.3v-97l-4 2.3v92.4zm-153-322.8 4-2.3V961.7l-4-2.3v112zm13-7.5 4-2.3v-92.4l-4-2.3v97zm53 7.5-67 38.7v4.6l71-41-4-2.3zm-13-7.5-54 31.2v4.6l58-33.5-4-2.3zm10 154.8v4.6l93 53.7 4-2.3-97-56zm44-121.3v-2.3l-2-1.2-106 61.2v2.4l2 1.1 106-61.2zm-15-11-93 53.7v4.7l97-56.1-4-2.3zm-13-7.5-80 46.2v4.6l84-48.5-4-2.3zm28 295.6-58 33.5 4 2.3 54-31.1v-4.7zm-44 95.9v4.6l67 38.7 4-2.3-71-41zm-50-849.9 4-2.3v-92.4l-4-2.3v97zm127 987.9 4 2.3v-82l-4 2.3v77.4zm-77-153v4.6l80 46.2 4-2.3-84-48.5zm44-95.9-71 41 4 2.3 67-38.7v-4.6zm185-729.2 17 9.8v-4.6l-13-7.5-4 2.3zm-185 477.5-97 56 4 2.3 93-53.7v-4.6zm-68 384.5 4-2.3v-62.3l-4-2.4v67zm68-606.2-97 56 4 2.3 93-53.7v-4.6zm-44 603.9 54 31.2 4-2.3-58-33.5v4.6zm-63-196.9 4-2.3v-107.4l-4-2.3v112zm66 0-67 38.7v4.6l71-41-4-2.3zm-13-7.5-54 31.2v4.6l58-33.5-4-2.3zm10 154.8v4.6l93 53.7 4-2.3-97-56zm-50-154.8 4-2.3v-92.4l-4-2.3v97zm94 33.5v-2.3l-2-1.2-106 61.2v2.4l2 1.1 106-61.2zm-28-18.5-80 46.2v4.6l84-48.5-4-2.3zm13 7.5-93 53.7v4.7l97-56-4-2.4zm35 292.8 4 2.3v-67l-4 2.3v62.4zm-20-891.5-58 33.5 4 2.3 54-31.2v-4.6zm20 226.4 4 2.3v-67l-4 2.3v62.4zm-64-110.9 54 31.2 4-2.3-58-33.5v4.6zm0-19.6v4.6l67 38.7 4-2.3-71-41zm77 138 4 2.3v-82l-4 2.3v77.4zm-114 113.1 4-2.3v-77.4l-4-2.3v82zm81-377-84 48.5 4 2.3 80-46.2v-4.6zm-81 155.3 4-2.3V755l-4-2.3v82zm13-7.5 4-2.3v-62.4l-4-2.3v67zm24-52v4.7l93 53.7 4-2.3-97-56.1zm16-139.7-80 46.2v4.6l84-48.5-4-2.3zm-26-15-54 31.2v4.6l58-33.5-4-2.3zm13 7.5-67 38.7v4.6l71-41-4-2.3zm-66 0 4-2.3V518.3l-4-2.3v112zm107 36.4-97 56 4 2.3 93-53.7v-4.6zm-15-21.4-93 53.7v4.6l97-56-4-2.3zm61 307.8 4 2.3v-97l-4 2.3v92.4zm-90-160.5v4.6l80 46.2 4-2.3-84-48.5zm44-136.3v-2.3l-2-1.2-106 61.2v2.3l2 1.2 106-61.2zm0 40.4-71 41 4 2.3 67-38.7v-4.6zm-44 332.6v4.6l67 38.7 4-2.3-71-41zm0-15v4.6l80 46.2 4-2.3-84-48.5zm77 153 4 2.3v-82l-4 2.3v77.4zm-77-118.4 54 31.2 4-2.3-58-33.5v4.6zm64 110.9 4 2.3v-67l-4 2.3v62.4zm-20-256.4-84 48.5 4 2.3 80-46.2v-4.6zm-68 147.8 4-2.3v-62.4l-4-2.3v67zm68-132.8-71 41 4 2.3 67-38.7v-4.6zm0 15-58 33.5 4 2.3 54-31.1v-4.7zm0-55.4v-2.3l-2-1.2-106 61.2v2.4l2 1.1 106-61.2zm-54-33.5-54 31.2v4.6l58-33.5-4-2.3zm13 7.5-67 38.7v4.6l71-41-4-2.3zm87 322.8 4 2.3v-97l-4 2.3v92.4zm-153-322.8 4-2.3V740l-4-2.3v112zm79 7.5-80 46.2v4.6l84-48.5-4-2.3zm13 7.5-93 53.7v4.6l97-56-4-2.3zM1674 997v4.6l93 53.7 4-2.3-97-56zm-50-154.8 4-2.3v-92.4l-4-2.3v97zm50 406.5v4.6l67 38.7 4-2.3-71-41zm129-509.8 4-2.3V629.2l-4-2.3v112zm53-7.5-54 31.1v4.7l58-33.5-4-2.3zm-40 0 4-2.3v-92.4l-4-2.3v97zm94-177.9-97 56 4 2.4 93-53.7v-4.7zM1866 714l54 31.2v-4.6l-54-31.2v4.6zm-37 9.9 4-2.3v-77.4l-4-2.3v82zm37-24.9 54 31.2v-4.6l-54-31.2v4.6zm3 39.9-67 38.7v4.6l71-41-4-2.3zm-3-54.9 54 31.2v-4.6l-54-31.2v4.6zm29-151.8-93 53.7v4.6l97-56-4-2.3zm-29-54.9 54 31.2v-4.6l-54-31.2v4.6zm16 47.4-80 46.2v4.6l84-48.5-4-2.3zm-16-32.4 54 31.2v-4.6l-54-31.2v4.6zm0-30 54 31.2v-4.6l-54-31.2v4.6zm-24 254.1 4-2.4v-62.3l-4-2.3v67zm68-132.8-71 41 4 2.3 67-38.7v-4.6zm-28 162.8-80 46.2v4.6l84-48.5-4-2.3zm8-108.6 30 17.4v-4.7l-26-15-4 2.3zm20-94.6v-2.4l-2-1.1-106 61.2v2.3l2 1.2 106-61.2zm-94 409.9 4-2.3v-92.4l-4-2.3v97zm79-199.2-93 53.7v4.6l97-56-4-2.3zm-29 166.8 54 31.2v-4.6l-54-31.2v4.6zm0-15 54 31.2v-4.6l-54-31.2v4.6zm3 54.9-67 38.7v4.6l71-41-4-2.3zm-13-7.5-54 31.1v4.7l58-33.5-4-2.3zm54 33.5v-2.4l-2-1.1-106 61.2v2.3l2 1.2 106-61.2zm0 40.4-71 41 4 2.3 67-38.7v-4.6zm-15-51.4-93 53.7v4.6l97-56-4-2.3zm-13-7.5-80 46.2v4.6l84-48.5-4-2.3zm-16-32.3 54 31.1v-4.6l-54-31.2v4.7zm44-130.5-71 41 4 2.3 67-38.7v-4.6zm-68 132.8 4-2.3v-62.4l-4-2.3v67zm-39 22.5 4-2.3V850.9l-4-2.3v112zm107-195.7v-2.4l-2-1.1-106 61.2v2.3l2 1.2 106-61.2zm0 25.4-84 48.5 4 2.3 80-46.2v-4.6zm-41-273.1-67 38.7v4.6l71-41-4-2.3zm-40 428.4 4-2.3v-77.4l-4-2.3v82zm81-170.4-97 56.1 4 2.3 93-53.7v-4.7zm-68-280.5 4-2.4V430l-4-2.3v67zm53-405.9-93 53.7v4.6l97-56-4-2.3zm-66 191.7 4-2.4v-77.3l-4-2.3v82zm37-231.6 54 31.2v-4.6l-54-31.2v4.6zm0-15 54 31.2v-4.6l-54-31.2v4.6zm0-15 54 31.2v-4.6l-54-31.2v4.6zM1842 273l4-2.4v-62.3l-4-2.3v67zm68-173.3v-2.3l-2-1.1-106 61.2v2.3l2 1.1 106-61.2zm0 25.4-84 48.5 4 2.4 80-46.2v-4.7zm0 15.1-71 41 4 2.3 67-38.7v-4.6zm-28-58.9-80 46.2v4.6l84-48.5-4-2.3zM1855.2 1920l54.8-31.6v-4.6l-62.8 36.2h8zm-34 0h8l80.8-46.6v-2.3l-2-1.2-86.8 50.1zm86 0 2.8-1.6v-4.6l-10.8 6.2h8zm-26 0 28.8-16.6v-4.6l-36.8 21.2h8zM1869 73.8l-67 38.6v4.7l71-41-4-2.3zm-13 435.9-54 31.1v4.7l58-33.5-4-2.3zm0 1330.2-54 31.2v4.6l58-33.5-4-2.3zm26 15-80 46.2v4.6l84-48.5-4-2.3zm-13-7.5-67 38.7v4.6l71-41-4-2.3zM1856 66.3l-54 31.1v4.7l58-33.5-4-2.3zm54 280.6-84 48.5 4 2.3 80-46.2v-4.6zm-68 812.9 4-2.3v-62.4l-4-2.3v67zm68-797.9-71 41 4 2.3 67-38.7v-4.6zm-15-51.4-93 53.7v4.6l97-56-4-2.3zm15 10.9v-2.3l-2-1.1-106 61.2v2.3l2 1.1 106-61.2zm-94 188.3 4-2.3V415l-4-2.3v97zm-13 7.5 4-2.3V407.5l-4-2.3v112zm107-185.4-97 56 4 2.4 93-53.7v-4.7zm-81 170.4 4-2.3v-77.4l-4-2.3v82zm37-261.6 54 31.2v-4.6l-54-31.2v4.6zm3 54.9-67 38.7v4.6l71-41-4-2.3zm-13-7.5-54 31.1v4.7l58-33.5-4-2.3zm26 15-80 46.2v4.6l84-48.5-4-2.3zm-66-15 4-2.3v-92.4l-4-2.3v97zm-13 7.5 4-2.3V185.8l-4-2.3v112zm63-24.9 54 31.2v-4.6l-54-31.2v4.6zm44-160.5-97 56 4 2.4 93-53.7v-4.7zm-44 145.5 54 31.2v-4.6l-54-31.2v4.6zm44 313-84 48.5 4 2.3 80-46.2v-4.6zm-20 1177.8 30 17.3v-4.6l-26-15.1-4 2.4zm-24-160.6 54 31.2v-4.6l-54-31.2v4.6zm37 153 17 9.9v-4.7l-13-7.5-4 2.3zm-100 108.6 4-2.3v-107.4l-4-2.3v112zm107-357.4v-4.6l-58 33.5 4 2.3 54-31.2zm-94 349.9 4-2.3v-92.4l-4-2.3v97zm87-322.8 17 9.9v-4.7l-13-7.5-4 2.3zm-13 7.5 30 17.4v-4.6l-26-15.1-4 2.3zm-24 31.2 54 31.2v-4.6l-54-31.2v4.6zm54 177.9v-4.7l-4 2.3 4 2.4zm-25-93-93 53.7v4.6l97-56-4-2.3zm-13-7.5-80 46.2v4.6l84-48.5-4-2.3zm28 18.5v-2.3l-2-1.2-106 61.2v2.3l2 1.2 106-61.2zm0 10.4-97 56 4 2.3 93-53.7v-4.6zm-44-61.2 54 31.1v-4.6l-54-31.2v4.7zm44 76.2-84 48.5 4 2.3 80-46.2v-4.6zm-81 155.3 4-2.3v-77.4l-4-2.3v82zm13-7.5 4-2.3v-62.4l-4-2.3v67zm68-132.8-71 41 4 2.3 67-38.7v-4.6zm0-680.1-84 48.5 4 2.3 80-46.2v-4.6zm-44-121.3 54 31.2v-4.6l-54-31.2v4.6zm44-65.8v-4.6l-58 33.5 4 2.3 54-31.2zm10 243.6v-4.6l-4 2.3 4 2.3zm-17 5.2 17 9.9v-4.7l-13-7.5-4 2.3zm-13-214.2 30 17.4v-4.7l-26-15-4 2.3zM1866 669l54 31.2v-4.6l-54-31.2v4.6zm44-65.8v-4.6l-58 33.5 4 2.3 54-31.2zm-7 248.8 17 9.8v-4.6l-13-7.5-4 2.3zm17-5.2v-4.6l-4 2.3 4 2.3zm-10 199.8v-4.6l-58 33.5 4 2.3 54-31.2zm-20 256.3 30 17.4v-4.7l-26-15-4 2.3zm20-34.6v-4.6l-58 33.5 4 2.3 54-31.2zm-7 27.1 17 9.9v-4.7l-13-7.5-4 2.3zm-37 38.7 54 31.2v-4.6l-54-31.2v4.6zm0-221.7 54 31.2v-4.6l-54-31.2v4.6zm54 177.8v-4.6l-4 2.3 4 2.3zm0 221.7v-4.6l-4 2.3 4 2.3zm-30-430.7 30 17.4v-4.7l-26-15-4 2.3zm20 630.5v-4.6l-58 33.5 4 2.3 54-31.2zm-15-514.4-93 53.7v4.6l97-56-4-2.3zm15 11v-2.3l-2-1.2-106 61.2v2.3l2 1.2 106-61.2zm-28-18.5-80 46.2v4.6l84-48.5-4-2.3zm28 58.9-71 41 4 2.3 67-38.7v-4.6zm-44-91.2 54 31.1v-4.6l-54-31.2v4.7zm-37 231.5 4-2.3v-77.4l-4-2.3v82zm81-170.3-97 56 4 2.3 93-53.7v-4.6zm-68 162.8 4-2.3v-62.4l-4-2.3v67zm68-147.8-84 48.5 4 2.3 80-46.2v-4.6zm-41-51.4-67 38.7v4.6l71-41-4-2.3zm-66 0 4-2.3v-107.4l-4-2.3v112zM1910 997l-97 56 4 2.3 93-53.7V997zm-94 177.8 4-2.3v-92.4l-4-2.3v97zm13-7.5 4-2.3v-77.4l-4-2.3v82zm37-39.9 54 31.2v-4.6l-54-31.2v4.6zm0 443.4 54 31.2v-4.6l-54-31.2v4.6zm0-428.4 54 31.2v-4.6l-54-31.2v4.6zm-50 254.1 4-2.3v-92.4l-4-2.3v97zm40-221.7-54 31.2v4.6l58-33.5-4-2.3zm-53 229.2 4-2.3v-107.4l-4-2.3v112zm26 206.7 4-2.3V1531l-4-2.3v82zm81-170.3-97 56 4 2.3 93-53.7v-4.6zm-68 162.8 4-2.3v-62.4l-4-2.3v67zm68-132.8-71 41 4 2.3 67-38.7v-4.6zm-41 155.3-67 38.7v4.6l71-41-4-2.3zm-13-7.5-54 31.2v4.6l58-33.5-4-2.3zm-40 0 4-2.3v-92.4l-4-2.3v97zm-13 7.5 4-2.3V1516l-4-2.3v112zm107-170.3-84 48.5 4 2.3 80-46.2v-4.6zm-44-106.3 54 31.2v-4.6l-54-31.2v4.6zm3 54.9-67 38.7v4.6l71-41-4-2.3zm-3-39.9 54 31.2v-4.6l-54-31.2v4.6zm-10 32.4-54 31.2v4.6l58-33.5-4-2.3zm39 22.5-93 53.7v4.6l97-56-4-2.3zm15 11v-2.3l-2-1.2-106 61.2v2.3l2 1.2 106-61.2zm-44-50.8 54 31.1v-4.6l-54-31.2v4.7zm16 32.3-80 46.2v4.6l84-48.5-4-2.3zm-310-571.6 4 2.3v-97l-4 2.3v92.4zm-46-271.3-84 48.5 4 2.3 80-46.2v-4.6zm-68 147.8 4-2.4v-62.3l-4-2.3v67zm68-117.8-58 33.5 4 2.3 54-31.2v-4.6zm-81 125.3 4-2.3v-77.4l-4-2.3v82zm81-140.3-71 41 4 2.3 67-38.7v-4.6zm-20 54.2 84 48.5v-4.6l-80-46.2-4 2.3zm20-84.3-97 56 4 2.4 93-53.7v-4.7zm-7 76.8 71 41v-4.6l-67-38.7-4 2.3zm-87 101.1 4-2.3v-92.4l-4-2.3v97zm50-52v4.6l80 46.2 4-2.3-84-48.5zm37 172.6 71 41v-4.6l-67-38.7-4 2.3zm-87 101.1 4-2.3v-92.4l-4-2.3v97zm74-93.6 84 48.5v-4.6l-80-46.2-4 2.3zm53-27.1 4 2.3v-82l-4 2.3v77.4zM1482 714l54 31.2 4-2.3-58-33.5v4.6zm0-19.6v4.6l67 38.7 4-2.3-71-41zm0-30v4.6l93 53.7 4-2.3-97-56zm11 424.3 97 56.1v-4.7l-93-53.7-4 2.3zm53-263.8 4 2.3v-67l-4 2.3v62.4zm-64-367.2v4.6l80 46.2 4-2.3-84-48.5zm-50 52 4-2.3V415l-4-2.3v97zm74-93.6 84 48.5V460l-80-46.2-4 2.3zm20-84.3-97 56 4 2.4 93-53.7v-4.7zm-81 170.4 4-2.3v-77.4l-4-2.3v82zm37-266.2v4.6l80 46.2 4-2.3-84-48.5zm0 15v4.6l67 38.7 4-2.3-71-41zm77 138 4 2.3v-82l-4 2.3V389zm0 221.7 4 2.3v-82l-4 2.3v77.4zm-33-263.8-84 48.5 4 2.3 80-46.2v-4.6zm-7 61.7 71 41V445l-67-38.7-4 2.3zm53 209.6 4 2.3v-97l-4 2.3v92.4zm-114-123.5 4-2.4V430l-4-2.3v67zm24-2.4 54 31.2 4-2.3-58-33.5v4.6zm64-110.8 4 2.3v-67l-4 2.3v62.4zm0 221.7 4 2.3v-67l-4 2.3v62.4zm-64-160.5v4.6l93 53.7 4-2.3-97-56zm44-80.8-71 41 4 2.3 67-38.7v-4.6zm0 15-58 33.5 4 2.3 54-31.2v-4.6zm-44 95.8v4.6l67 38.7 4-2.3-71-41zm0 665.1v4.6l67 38.7 4-2.3-71-41zm0-15v4.6l80 46.2 4-2.3-84-48.5zm64 145.5 4 2.3v-67l-4 2.4v62.3zm13 7.5 4 2.3v-82l-4 2.3v77.4zm-77-118.3 54 31.1 4-2.3-58-33.5v4.7zm90 125.8 4 2.3v-97l-4 2.3v92.4zm-46-241.3-58 33.5 4 2.3 54-31.2v-4.6zm0-15-71 41 4 2.3 67-38.7v-4.6zm-44 80.8v4.6l93 53.7 4-2.3-97-56zm37 187.6 71 41v-4.6l-67-38.7-4 2.3zm-61-135.6 4-2.3v-62.4l-4-2.3v67zm68 88.9-71 41 4 2.3 67-38.7v-4.6zm-68 132.8 4-2.3v-62.4l-4-2.3v67zm68-117.8-58 33.5 4 2.3 54-31.2v-4.6zm0-30-84 48.5 4 2.3 80-46.2v-4.6zm-81 155.3 4-2.3v-77.4l-4-2.3v82zm-13 7.5 4-2.3v-92.4l-4-2.3v97zm74-93.6 84 48.5v-4.6l-80-46.2-4 2.3zm20-84.2-97 56 4 2.3 93-53.7v-4.6zm0-428.4-84 48.5 4 2.3 80-46.2v-4.6zm0 30-58 33.5 4 2.3 54-31.2v-4.6zm46 241.3 4 2.3v-97l-4 2.3v92.4zm-26-15 4 2.3v-67l-4 2.3v62.4zm-64-110.8 54 31.1 4-2.3-58-33.5v4.7zm0-49.7v4.6l93 53.7 4-2.3-97-56zm44-110.9-97 56.1 4 2.3 93-53.7v-4.7zm0 30.1-71 41 4 2.3 67-38.7v-4.6zm-81 140.3 4-2.3v-77.4l-4-2.3v82zm13-7.5 4-2.3v-62.4l-4-2.3v67zm-13 229.2 4-2.3v-77.4l-4-2.3v82zm37-251.2v4.6l67 38.7 4-2.3-71-41zm-50 258.7 4-2.3v-92.4l-4-2.3v97zm94-162.8-84 48.5 4 2.3 80-46.2v-4.6zm-20 69.2 84 48.5v-4.6l-80-46.2-4 2.3zm20-84.2-97 56 4 2.3 93-53.7V997zm33 57.1 4 2.3v-82l-4 2.3v77.4zm-40 19.6 71 41v-4.6l-67-38.7-4 2.3zm-37-172.6v4.6l80 46.2 4-2.3-84-48.5zm44 307.2v-2.3l-2-1.2-106 61.2v2.3l2 1.2 106-61.2zm-28 203.2-80 46.2v4.6l84-48.5-4-2.3zm-26-15-54 31.2v4.6l58-33.5-4-2.3zm13 7.5-67 38.7v4.6l71-41-4-2.3zm-66 0 4-2.3v-107.4l-4-2.3v112zm92 15-93 53.7v4.6l97-56-4-2.3zm-92 206.7 4-2.3V1516l-4-2.3v112zm53-7.5-54 31.2v4.6l58-33.5-4-2.3zm10-288.7v4.6l93 53.7 4-2.3-97-56zm44 100.5v-2.3l-2-1.2-106 61.2v2.3l2 1.2 106-61.2zm-41-247.7-67 38.7v4.6l71-41-4-2.3zm13-214.2-80 46.2v4.6l84-48.5-4-2.3zm13 7.5-93 53.7v4.6l97-56-4-2.3zm-26-15-67 38.7v4.6l71-41-4-2.3zm41 26v-2.4l-2-1.1-106 61.2v2.3l2 1.2 106-61.2zm-107 195.7 4-2.3v-107.4l-4-2.3v112zm79 7.5-80 46.2v4.6l84-48.5-4-2.3zm-13 435.9-67 38.7v4.6l71-41-4-2.3zm-13-450.9-54 31.2v4.6l58-33.5-4-2.3zm39 22.5-93 53.7v4.6l97-56-4-2.3zm0 443.4-93 53.7v4.6l97-56-4-2.3zm-29-1370.1 54 31.2 4-2.3-58-33.5v4.6zm0 1489.6v2.3l106 61.2 2-1.1v-2.3l-106-61.2-2 1.1zm0-221.7v2.3l106 61.2 2-1.1v-2.3l-106-61.2-2 1.1zm0 239 93 53.7 4-2.3-97-56v4.6zm11-245.3 97 56v-4.7l-93-53.7-4 2.4zm0-221.7 97 56v-4.7l-93-53.7-4 2.4zm-11 482 80 46.2 4-2.3-84-48.5v4.6zm0-697.4v2.3l106 61.2 2-1.1v-2.4l-106-61.2-2 1.2zm16 538.1-80 46.2v4.6l84-48.5-4-2.3zm-16-316.4v2.3l106 61.2 2-1.1v-2.4l-106-61.2-2 1.2zm-10 523.1-54 31.2v4.6l58-33.5-4-2.3zm-53 7.5 4-2.3v-107.4l-4-2.3v112zm107-195.7v-2.3l-2-1.2-106 61.2v2.3l2 1.2 106-61.2zm-44 155.9 67 38.6 4-2.3-71-41v4.7zm-10-854.5-54 31.1v4.7l58-33.5-4-2.3zm10 869.5 54 31.1 4-2.3-58-33.5v4.7zm3 24.8-67 38.7v4.6l71-41-4-2.3zm13 7.5-80 46.2v4.6l84-48.5-4-2.3zm-5-101 97 56v-4.7l-93-53.7-4 2.4zm66-1586.6 4 2.3v-82l-4 2.3v77.4zm-13-7.5 4 2.3v-67l-4 2.3v62.4zm-27 27.1 71 41v-4.6l-67-38.7-4 2.3zm47-124.1-84-48.5v4.6l80 46.2 4-2.3zm-26 15-58-33.5v4.6l54 31.2 4-2.3zm-29 11-93 53.7v4.6l97-56-4-2.3zm42-18.5-71-41v4.6l67 38.7 4-2.3zm-55 11-80 46.2v4.6l84-48.5-4-2.3zm8 113.1 84 48.5v-4.6l-80-46.2-4 2.3zm20-39.2-58 33.5 4 2.3 54-31.2v-4.6zm0-15-71 41 4 2.3 67-38.7v-4.6zm-44 80.8v4.6l93 53.7 4-2.3-97-56zm44-121.3v-2.3l-2-1.1-106 61.2v2.3l2 1.1 106-61.2zM1432 288l4-2.3v-92.4l-4-2.3v97zm140 108.5 4 2.3v-97l-4 2.3v92.4zm-46-286.4-97 56 4 2.4 93-53.7v-4.7zM1458 273l4-2.4v-62.3l-4-2.3v67zm-13 7.5 4-2.4v-77.3l-4-2.3v82zm81-155.4-84 48.5 4 2.4 80-46.2v-4.7zm-28 399.6-80 46.2v4.6l84-48.5-4-2.3zm-79-229.2 4-2.3V185.8l-4-2.3v112zm53 435.9-54 31.1v4.7l58-33.5-4-2.3zm-53 7.5 4-2.3V629.2l-4-2.3v112zm92-206.7-93 53.7v4.6l97-56-4-2.3zm-13 214.2-80 46.2v4.6l84-48.5-4-2.3zm28 18.5v-2.4l-2-1.1-106 61.2v2.3l2 1.2 106-61.2zm-15-11-93 53.7v4.6l97-56-4-2.3zm-92 206.7 4-2.3V850.9l-4-2.3v112zm66-221.7-67 38.7v4.6l71-41-4-2.3zm41-195.7v-2.4l-2-1.1-106 61.2v2.3l2 1.2 106-61.2zM1498 303l-80 46.2v4.6l84-48.5-4-2.3zm-13-7.5-67 38.7v4.6l71-41-4-2.3zm26 15-93 53.7v4.6l97-56-4-2.3zm-39-22.5-54 31.1v4.7l58-33.5-4-2.3zm13 229.2-67 38.7v4.6l71-41-4-2.3zm41-195.8v-2.3l-2-1.1-106 61.2v2.3l2 1.1 106-61.2zm-54 188.3-54 31.1v4.7l58-33.5-4-2.3zm-53 7.5 4-2.3V407.5l-4-2.3v112zm305 1103.3 58 33.5v-4.6l-54-31.2-4 2.3zm-26-428.4 84 48.5v-4.6l-80-46.2-4 2.3zm13-7.5 71 41v-4.6l-67-38.7-4 2.3zm-26 15 97 56v-4.6l-93-53.7-4 2.3zm-11 6.4v2.3l106 61.2 2-1.2v-2.3l-106-61.2-2 1.2zm50-28.9 58 33.5v-4.6l-54-31.2-4 2.3zm-26-206.7 84 48.5v-4.6l-80-46.2-4 2.3zm13-7.5 71 41v-4.6l-67-38.7-4 2.3zm-13 672.6 84 48.5v-4.6l-80-46.2-4 2.3zm-24-651.3v2.4l106 61.2 2-1.2v-2.3l-106-61.2-2 1.1zm103 88.4V1180l4 2.3v-112l-4 2.3zm-140 427.2 4-2.3v-77.4l-4-2.3v82zm140 16.2v107.4l4 2.3v-112l-4 2.3zm-66 112 71 41v-4.6l-67-38.7-4 2.3zm-37-200.3v2.3l106 61.2 2-1.2v-2.3l-106-61.2-2 1.2zm50-28.9 58 33.5v-4.6l-54-31.2-4 2.3zm-13 7.5 71 41v-4.6l-67-38.7-4 2.3zm-26 15 97 56v-4.6l-93-53.7-4 2.3zm92-127v107.4l4 2.3v-112l-4 2.3zm-79 119.5 84 48.5v-4.6l-80-46.2-4 2.3zm-13-435.9 97 56v-4.6l-93-53.7-4 2.3zm39-465.9 58 33.5v-4.7l-54-31.1-4 2.3zm-39 22.5 97 56v-4.6l-93-53.7-4 2.3zm26-15 71 41v-4.6l-67-38.7-4 2.3zm-13 7.5 84 48.5v-4.6l-80-46.2-4 2.3zm79-119.5v107.4l4 2.3v-112l-4 2.3zm-103-88.4v2.3l106 61.2 2-1.1v-2.3L1676 318l-2 1.1zm24-13.8 84 48.5v-4.6l-80-46.2-4 2.3zm13-7.5 71 41v-4.6l-67-38.7-4 2.3zm-26 15 97 56v-4.6l-93-53.7-4 2.3zm39 420.9 58 33.5v-4.7l-54-31.1-4 2.3zm-50 28.8v2.4l106 61.2 2-1.2v-2.3l-106-61.2-2 1.1zm11-6.3 97 56v-4.6l-93-53.7-4 2.3zm92 94.7v107.4l4 2.3v-112l-4 2.3zm-79-102.2 84 48.5v-4.6l-80-46.2-4 2.3zm79-119.5v107.4l4 2.3v-112l-4 2.3zm-103-88.4v2.4l106 61.2 2-1.2v-2.3l-106-61.2-2 1.1zm37 200.4 71 41v-4.6l-67-38.7-4 2.3zm13 214.2 58 33.5v-4.7l-54-31.1-4 2.3zm53 782.3v107.4l4 2.3v-112l-4 2.3zm-103-45.6v4.6l67 38.7 4-2.3-71-41zm77 138 4 2.3v-82l-4 2.3v77.4zm-13-7.5 4 2.3v-67l-4 2.3v62.4zm-64-145.5v4.6l80 46.2 4-2.3-84-48.5zm90 160.5 4 2.3v-97l-4 2.3v92.4zm-46-256.4-71 41 4 2.3 67-38.7v-4.6zm-44 130.5 54 31.2 4-2.3-58-33.5v4.6zm-24 2.3 4-2.3v-62.3l-4-2.4v67zm68-117.8-58 33.5 4 2.3 54-31.1v-4.7zm-41-81.4-67 38.7v4.6l71-41-4-2.3zm-13-7.5-54 31.2v4.6l58-33.5-4-2.3zm-40 0 4-2.3v-92.4l-4-2.3v97zm-13 7.5 4-2.3v-107.4l-4-2.3v112zm63 147.3v4.6l93 53.7 4-2.3-97-56zm44-332.6-97 56 4 2.3 93-53.7v-4.6zm0 211.3v-2.3l-2-1.1-106 61.2v2.3l2 1.1 106-61.2zm-15-11-93 53.7v4.7l97-56-4-2.4zm15 36.4-84 48.5 4 2.3 80-46.2v-4.6zm-28-43.9-80 46.2v4.6l84-48.5-4-2.3zm13 229.2-93 53.7v4.7l97-56-4-2.4zm15 56.1v-4.7l-71 41 4 2.3 67-38.6zm0-30.1v-4.6l-97 56 4 2.3 93-53.7zm0 40.4-58 33.5 4 2.3 54-31.1v-4.7zm0-25.4v-4.6l-84 48.5 4 2.3 80-46.2zm-20 64.7 84 48.5v-4.6l-80-46.2-4 2.3zm26-1566.9 58 33.5v-4.7l-54-31.1-4 2.3zm-13 1559.4 71 41v-4.6l-67-38.7-4 2.3zm-37-200.3v2.3l106 61.2 2-1.2v-2.3l-106-61.2-2 1.2zm50 192.8 58 33.5v-4.6l-54-31.2-4 2.3zM1624 1729l4-2.3v-92.4l-4-2.3v97zm13-7.5 4-2.3v-77.3l-4-2.4v82zm-26 15 4-2.3v-107.4l-4-2.3v112zm53-7.5-54 31.2v4.6l58-33.5-4-2.3zm54-177.8-97 56 4 2.3 93-53.7v-4.6zm-33 91.8 97 56v-4.6l-93-53.7-4 2.3zm-8 93.5-67 38.7v4.6l71-41-4-2.3zm41 26v-2.3l-2-1.1-106 61.2v2.3l2 1.1 106-61.2zm-28-18.5-80 46.2v4.7l84-48.5-4-2.4zM1585 740v107.4l4 2.3v-112l-4 2.3zm-59 971.7v-4.6l-58 33.5 4 2.3 54-31.2zm-94 128.2 4-2.3v-92.4l-4-2.3v97zm94-177.8-97 56 4 2.3 93-53.7v-4.6zm-81 170.3 4-2.3v-77.4l-4-2.3v82zm81-155.3-84 48.5 4 2.3 80-46.2v-4.6zm6-610.9 58 33.5v-4.6l-54-31.2-4 2.3zm-597 463.6-93 53.7v4.7l97-56-4-2.4zm547 51.4v4.6l67 38.7 4-2.3-71-41zm24 165.2 84 48.5v-4.7l-80-46.2-4 2.4zm13-7.6 71 41v-4.6l-67-38.7-4 2.3zm13-229.2 58 33.5v-4.6l-54-31.2-4 2.3zm0-221.7 58 33.5v-4.6l-54-31.2-4 2.3zm53-104.5v107.4l4 2.3v-112l-4 2.3zm0-221.7v107.4l4 2.3v-112l-4 2.3zm0 443.4v107.4l4 2.3v-112l-4 2.3zm0 221.7v107.4l4 2.3v-112l-4 2.3zm-59 65.3-71 41 4 2.3 67-38.7v-4.6zm6 39.2 58 33.5v-4.6l-54-31.2-4 2.3zm-74 93.6 4-2.3v-62.4l-4-2.3v67zm101-105.7 4 2.3v-82l-4 2.4v77.3zm-40-202.1 71 41v-4.6l-67-38.7-4 2.3zm-37-172.6v4.6l80 46.2 4-2.3-84-48.5zm24 180.1 84 48.5v-4.6l-80-46.2-4 2.3zm40 187.1 4 2.3v-67l-4 2.4v62.3zm0-221.7 4 2.3v-67l-4 2.4v62.3zm-64-110.8 54 31.1 4-2.3-58-33.5v4.7zm44 61.2-97 56 4 2.3 93-53.7v-4.6zm33 57.1 4 2.3v-82l-4 2.3v77.4zm-77-138v4.6l67 38.7 4-2.3-71-41zm-50 258.7 4-2.3v-92.4l-4-2.3v97zm94-132.8-58 33.5 4 2.3 54-31.2v-4.6zm46 241.3 4 2.3v-97l-4 2.3v92.4zm-90-175.5v4.6l93 53.7 4-2.3-97-56zm0 49.7 54 31.1 4-2.3-58-33.5v4.7zm-37 9.8 4-2.3V1531l-4-2.3v82zm81-155.3-84 48.5 4 2.3 80-46.2v-4.6zm-68 147.8 4-2.3v-62.4l-4-2.3v67zm68-132.8-71 41 4 2.3 67-38.7v-4.6zM1579.2 0l10.8 6.2V1.6l-2.8-1.6h-8zm85.6 0L1610 31.6v4.6L1672.8 0h-8zm34 0h-8L1610 46.6v2.3l2 1.2L1698.8 0zm43.2 0h-4v48.9l4 2.3V0zm-103.2 0L1610 16.6v4.6L1646.8 0h-8zM1625 57.6l93-53.7V0h-1.2L1621 55.3l4 2.3zm-27 1118.3v122.4l2 1.2 2-1.2v-122.4l-2-1.1-2 1.1zm0 443.4v122.4l2 1.2 2-1.2v-122.4l-2-1.1-2 1.1zM1612.8 0l-2.8 1.6v4.6l10.8-6.2h-8zM1572 1505l4 2.3v-97l-4 2.3v92.4zM1685 91.1l97 56v-4.6l-93-53.7-4 2.3zm13-7.5 84 48.5v-4.6l-80-46.2-4 2.3zM1755 0h-4v56.4l4 2.4V0zm-157 954.2v122.4l2 1.2 2-1.2V954.2l-2-1.1-2 1.1zm76-856.8v2.3l106 61.2 2-1.1v-2.3l-106-61.2-2 1.1zm37-21.3 71 41v-4.7l-67-38.6-4 2.3zM1768 0h-4v63.9l4 2.4V0zm-44 68.6 58 33.5v-4.7l-54-31.1-4 2.3zM1781 0h-4v71.5l4 2.3V0zm-183 1397.6V1520l2 1.2 2-1.2v-122.4l-2-1.1-2 1.1zM1585 74.9v107.4l4 2.3v-112l-4 2.3zm-53 326.2 58 33.5V430l-54-31.2-4 2.3zm40-226.3 4 2.3v-97l-4 2.3v92.4zm-40 4.6 58 33.5v-4.6l-54-31.2-4 2.3zm0 665.1 58 33.5v-4.6l-54-31.2-4 2.3zm53-326.2v107.4l4 2.3V516l-4 2.3zm0-221.7V404l4 2.3v-112l-4 2.3zM1472 66.3l-54 31.1v4.7l58-33.5-4-2.3zm60 556.5 58 33.5v-4.6l-54-31.2-4 2.3zM1527.2 0l62.8 36.2v-4.6L1535.2 0h-8zm70.8 67.4v122.4l2 1.2 2-1.2V67.4l-2-1.1-2 1.1zm0 221.7v122.4l2 1.2 2-1.2V289.1l-2-1.1-2 1.1zm179-103.3v107.4l4 2.3v-112l-4 2.3zm-179 325v122.4l2 1.2 2-1.2V510.8l-2-1.1-2 1.1zM1501.2 0l86.8 50.1 2-1.2v-2.3L1509.2 0h-8zm52 0 36.8 21.2v-4.6L1561.2 0h-8zM1485 73.8l-67 38.6v4.7l71-41-4-2.3zm113 658.7v122.4l2 1.2 2-1.2V732.5l-2-1.1-2 1.1zm-1305-8.6 4-2.3v-77.4l-4-2.3v82zm-155 731.5v4.6l80 46.2 4-2.3-84-48.5zm0 15v4.6l67 38.7 4-2.3-71-41zm77 138 4 2.3v-82l-4 2.3v77.4zm-77-168v4.6l93 53.7 4-2.3-97-56zm90 175.5 4 2.3v-97l-4 2.3v92.4zm0 221.7 4 2.3v-97l-4 2.3v92.4zm-13-7.5 4 2.3v-82l-4 2.3v77.4zm-77-153v4.6l80 46.2 4-2.3-84-48.5zm0-15v4.6l93 53.7 4-2.3-97-56zm64-61.2 4 2.3v-67l-4 2.3v62.4zm-64-382.2v4.6l93 53.7 4-2.3-97-56zm0-206.7v4.6l80 46.2 4-2.3-84-48.5zm64 145.5 4 2.3v-67l-4 2.3v62.4zm13 7.5 4 2.3v-82l-4 2.3v77.4zm-77-138v4.6l67 38.7 4-2.3-71-41zm77 359.7 4 2.3v-82l-4 2.3v77.4zm13 7.5 4 2.3v-97l-4 2.3v92.4zm-90-145.5v4.6l67 38.7 4-2.3-71-41zm0-15v4.6l80 46.2 4-2.3-84-48.5zm64 145.5 4 2.3v-67l-4 2.3v62.4zm-20 202-71 41 4 2.3 67-38.7v-4.6zm0-15-84 48.5 4 2.3 80-46.2v-4.6zm0-15-97 56 4 2.3 93-53.7v-4.6zm0 45-58 33.5 4 2.3 54-31.1v-4.7zm0-55.4v-2.3l-2-1.1-106 61.2v2.3l2 1.1 106-61.2zm-107-26 4-2.3v-107.4l-4-2.3v112zm63 196.9 54 31.2 4-2.3-58-33.5v4.6zm-10-204.4-54 31.2v4.6l58-33.5-4-2.3zm10-17.3 54 31.2 4-2.3-58-33.5v4.6zm-37 231.5 4-2.3v-77.3l-4-2.4v82zm-13 7.5 4-2.3v-92.4l-4-2.3v97zm66 15-80 46.2v4.7l84-48.5-4-2.4zm-79-7.5 4-2.3v-107.4l-4-2.3v112zm127 86.1 4 2.3v-67l-4 2.3v62.4zm-74-93.6-54 31.2v4.6l58-33.5-4-2.3zm13 7.5-67 38.7v4.6l71-41-4-2.3zm-3-44.4v4.6l67 38.7 4-2.3-71-41zm-24 21.9 4-2.3v-62.3l-4-2.4v67zm24-1160.5v4.7l93 53.7 4-2.4-97-56zm0-443.4v4.7l93 53.7 4-2.4-97-56zm90 175.6 4 2.3v-97l-4 2.3v92.4zM88 177.1l4-2.3V82.4l-4-2.3v97zm-13 7.5 4-2.3V74.9l-4-2.3v112zm127 86 4 2.4v-67l-4 2.3v62.3zm-74-93.5-54 31.2v4.6l58-33.5-4-2.3zm10 154.7v4.7l93 53.7 4-2.4-97-56zm0-191.6v4.6l67 38.7 4-2.3-71-41zm77 137.9 4 2.4v-82l-4 2.3v77.3zm-77-153v4.7l80 46.2 4-2.4-84-48.5zm116 1161.7v122.4l2 1.1 2-1.1v-122.4l-2-1.2-2 1.2zm0 443.4v122.4l2 1.1 2-1.1v-122.4l-2-1.2-2 1.2zm0-665.1v122.4l2 1.1 2-1.1v-122.4l-2-1.2-2 1.2zm0 443.4v122.4l2 1.1 2-1.1v-122.4l-2-1.2-2 1.2zM254 79l2 1.1 2-1.1V0h-4v79zm0 321v122.4l2 1.1 2-1.1V400l-2-1.2-2 1.2zm-26 772.5 4 2.3v-97l-4 2.3v92.4zm26-329.1v122.4l2 1.1 2-1.1V843.4l-2-1.2-2 1.2zm0-221.7v122.4l2 1.1 2-1.1V621.7l-2-1.2-2 1.2zm0-443.4v122.4l2 1.1 2-1.1V178.3l-2-1.2-2 1.2zm-26 772.5 4 2.3v-97l-4 2.3v92.4zm-90-160.5v4.6l80 46.2 4-2.3-84-48.5zm0-15.1v4.7l93 53.7 4-2.3-97-56.1zm64-61.2 4 2.4v-67l-4 2.3V714zm13 229.3 4 2.3v-82l-4 2.3v77.4zM138 997v4.6l93 53.7 4-2.3-97-56zm0-413.4v4.6l67 38.7 4-2.3-71-41zm64 352.2 4 2.3v-67l-4 2.3v62.4zm-64-130.5v4.6l67 38.7 4-2.3-71-41zm0-458.4v4.6l80 46.2 4-2.3-84-48.5zm64 145.4 4 2.4v-67l-4 2.3v62.3zm-64-130.4v4.6l67 38.7 4-2.3-71-41zm77 138 4 2.3v-82l-4 2.3v77.4zm0 221.7 4 2.3v-82l-4 2.3v77.4zm13-214.2 4 2.3v-97l-4 2.3v92.4zm-90 61.2v4.6l80 46.2 4-2.3-84-48.5zm-50 938.7 4-2.3v-92.4l-4-2.3v97zm140-778.2 4 2.3v-97l-4 2.3v92.4zm-100 334.8-54 31.2v4.6l58-33.5-4-2.3zm0-443.4-54 31.2v4.6l58-33.5-4-2.3zm-27-7.5 4-2.3v-77.4l-4-2.3v82zm13-7.5 4-2.3v-62.4l-4-2.3v67zM75 628l4-2.3V518.3l-4-2.3v112zm13-7.5 4-2.3v-92.4l-4-2.3v97zm94-147.8-71 41 4 2.3 67-38.7v-4.6zm0 15-58 33.5 4 2.3 54-31.2v-4.6zm-28 147.8-80 46.2v4.6l84-48.5-4-2.3zm-53 199.2 4-2.3V755l-4-2.3v82zm81-125.3-58 33.5 4 2.3 54-31.2v-4.6zm-81 790.4 4-2.3v-77.4l-4-2.3v82zm81-1042.1-84 48.5 4 2.3 80-46.2v-4.6zm-41 392-67 38.7v4.6l71-41-4-2.3zm-27-22.5 4-2.3v-62.4l-4-2.3v67zm24-224 54 31.2 4-2.3-58-33.5v4.6zm44 91.2-71 41 4 2.3 67-38.7v-4.6zm0-30-97 56 4 2.3 93-53.7v-4.6zm0-10.4v-2.3l-2-1.2-106 61.2v2.3l2 1.2L182 654zm0 25.4-84 48.5 4 2.3 80-46.2v-4.6zM141 628l-67 38.7v4.6l71-41-4-2.3zm41-407-97 56 4 2.3 93-53.7V221zm-28 192.8L74 460v4.6l84-48.5-4-2.3zM182 251l-71 41 4 2.3 67-38.7V251zm0 15-58 33.5 4 2.3 54-31.2V266zm0-30-84 48.5 4 2.3 80-46.2V236zm0 206.7-97 56 4 2.3 93-53.7v-4.6zm0-232.1v-2.3l-2-1.2-106 61.2v2.3l2 1.2 106-61.2zm0-166.3-58 33.5 4 2.3 54-31.2v-4.6zm-44 115.5 54 31.2 4-2.3-58-33.5v4.6zm44-130.5-71 41 4 2.3 67-38.7v-4.6zm-41 377L74 445v4.6l71-41-4-2.3zm-13-7.5L74 430v4.6l58-33.5-4-2.3zm54 33.5V430l-2-1.2L74 490v2.3l2 1.2 106-61.2zm-107-26 4-2.3V296.6l-4-2.3v112zm63-24.8 54 31.2 4-2.3-58-33.5v4.6zm-50 17.3 4-2.3v-92.4l-4-2.3v97zm26-15 4-2.3v-62.4l-4-2.3v67zm-13 7.5 4-2.3v-77.4l-4-2.3v82zm53 465.9-80 46.2v4.6l84-48.5-4-2.3zm-26 428.4-54 31.2v4.6l58-33.5-4-2.3zm-27-7.5 4-2.3v-77.4l-4-2.3v82zm-26 15 4-2.3v-107.4l-4-2.3v112zm39-22.5 4-2.3V1206l-4-2.4v67zm-26 15 4-2.3v-92.4l-4-2.3v97zm94-147.8-71 41 4 2.3 67-38.7v-4.6zm-41 155.3-67 38.7v4.6l71-41-4-2.3zm41-140.3-58 33.5 4 2.3 54-31.1v-4.7zm-28 147.8-80 46.2v4.6l84-48.5-4-2.3zm-13 214.2-67 38.7v4.6l71-41-4-2.3zm41-392-84 48.5 4 2.3 80-46.2v-4.6zm-28 399.5-80 46.2v4.6l84-48.5-4-2.3zM88 842.2l4-2.3v-92.4l-4-2.3v97zm26 650.1 4-2.3v-62.3l-4-2.4v67zm68-117.8-58 33.5 4 2.3 54-31.1v-4.7zm0-45-97 56 4 2.3 93-53.7v-4.6zm0-10.4v-2.3l-2-1.2-106 61.2v2.4l2 1.1 106-61.2zm0 25.4L98 1393l4 2.3 80-46.2v-4.6zm0 15-71 41 4 2.3 67-38.7v-4.6zm-44-91.2 54 31.2 4-2.3-58-33.5v4.6zm44-367.2-84 48.5 4 2.3 80-46.2v-4.6zm0 15-71 41 4 2.3 67-38.7v-4.6zm0 15-58 33.5 4 2.3 54-31.1v-4.7zm0-45-97 56 4 2.3 93-53.7v-4.6zm-54-43.9-54 31.2v4.6l58-33.5-4-2.3zm54 265.6-97 56 4 2.3 93-53.7v-4.6zm0-232.1v-2.3l-2-1.2-106 61.2v2.4l2 1.1 106-61.2zm-107-26 4-2.3V740l-4-2.3v112zm63-24.8 54 31.2 4-2.3-58-33.5v4.6zm16 254-80 46.2v4.6l84-48.5-4-2.3zm-16-32.3 54 31.2 4-2.3-58-33.5v4.6zM271 0h-4v73.8l4-2.3V0zm-89 1097.4v-2.3l-2-1.2-106 61.2v2.4l2 1.1 106-61.2zm-107-26 4-2.3V961.7l-4-2.3v112zm13-7.5 4-2.3v-92.4l-4-2.3v97zm26-15 4-2.3v-62.4l-4-2.3v67zm-13 7.5 4-2.3v-77.4l-4-2.3v82zm40 15-67 38.7v4.6l71-41-4-2.3zm165-133.3 4-2.3v-62.4l-4-2.3v67zm68-576.2-71 41 4 2.3 67-38.7v-4.6zm0 15-58 33.5 4 2.3 54-31.2v-4.6zm-44 65.8v4.6l93 53.7 4-2.3-97-56zm90 175.5 4 2.3v-97l-4 2.3v92.4zm-127-116 4-2.3v-77.4l-4-2.3v82zm81-170.4-97 56 4 2.4 93-53.7v-4.7zm-68 162.9 4-2.4V430l-4-2.3v67zm0 221.7 4-2.4v-62.3l-4-2.3v67zm68-369.5-84 48.5 4 2.3 80-46.2v-4.6zm0 221.7-84 48.5 4 2.3 80-46.2v-4.6zm0-15.1-97 56 4 2.4 93-53.7v-4.7zm-94 177.9 4-2.3v-92.4l-4-2.3v97zm74-93.6 84 48.5v-4.6l-80-46.2-4 2.3zm-74-128.1 4-2.3V415l-4-2.3v97zm87 120.6 71 41v-4.6L371 628l-4 2.3zm27-27.1 4 2.3v-67l-4 2.3v62.4zm13 7.5 4 2.3v-82l-4 2.3v77.4zm-77-138v4.6l67 38.7 4-2.3-71-41zm0-15v4.6l80 46.2 4-2.3-84-48.5zm0 34.6 54 31.2 4-2.3-58-33.5v4.6zm-37-211.8 4-2.4v-77.3l-4-2.3v82zm81-125.3-58 33.5 4 2.3 54-31.2v-4.6zm14-77.4-58-33.5v4.6l54 31.2 4-2.3zm-14 62.4-71 41 4 2.3 67-38.7v-4.6zM306 273l4-2.4v-62.3l-4-2.3v67zm48 143.1 84 48.5V460l-80-46.2-4 2.3zm0-221.7 84 48.5v-4.6l-80-46.2-4 2.3zM280 288l4-2.3v-92.4l-4-2.3v97zm94-177.9-97 56 4 2.4 93-53.7v-4.7zm-7 76.8 71 41v-4.6l-67-38.7-4 2.3zM407 389l4 2.3v-82l-4 2.3V389zm-77-153v4.6l80 46.2 4-2.3-84-48.5zm37 172.6 71 41V445l-67-38.7-4 2.3zM330 251v4.6l67 38.7 4-2.3-71-41zm0 19.6 54 31.2 4-2.3-58-33.5v4.6zm90 125.9 4 2.3v-97l-4 2.3v92.4zm-26-15 4 2.3v-67l-4 2.3v62.4zM330 221v4.6l93 53.7 4-2.3-97-56zm44-95.9-84 48.5 4 2.4 80-46.2v-4.7zm-7 948.6 71 41v-4.6l-67-38.7-4 2.3zm-13 7.5 84 48.5v-4.6l-80-46.2-4 2.3zm20-497.6-71 41 4 2.3 67-38.7v-4.6zm-94 591.2 4-2.3v-92.4l-4-2.3v97zm140-113.2 4 2.3v-97l-4 2.3v92.4zm-13-7.5 4 2.3v-82l-4 2.3v77.4zm-13-7.5 4 2.3v-67l-4 2.3v62.4zM374 997l-97 56 4 2.3 93-53.7V997zm-44-80.9v4.6l67 38.7 4-2.3-71-41zm0 19.7 54 31.1 4-2.3-58-33.5v4.7zm0 221.7 54 31.1 4-2.3-58-33.5v4.7zm90 125.8 4 2.3v-97l-4 2.3v92.4zm-90-175.5v4.6l93 53.7 4-2.3-97-56zm64 160.5 4 2.3v-67l-4 2.4v62.3zM374 1012l-84 48.5 4 2.3 80-46.2v-4.6zm-68 147.8 4-2.3v-62.4l-4-2.3v67zm-13 7.5 4-2.3v-77.4l-4-2.3v82zm81-140.3-71 41 4 2.3 67-38.7v-4.6zm0 15-58 33.5 4 2.3 54-31.2v-4.6zm-44-140.9v4.6l80 46.2 4-2.3-84-48.5zm77-68.7 4 2.3v-82l-4 2.3v77.4zm-77-138v4.6l67 38.7 4-2.3-71-41zm64 130.5 4 2.3v-67l-4 2.3v62.4zm-64-145.5v4.6l80 46.2 4-2.3-84-48.5zM367 852l71 41v-4.6l-67-38.7-4 2.3zm7-253.4-58 33.5 4 2.3 54-31.2v-4.6zm-44 287.5v4.6l93 53.7 4-2.3-97-56zm90-46.2 4 2.3v-97l-4 2.3v92.4zM330 714l54 31.2 4-2.3-58-33.5v4.6zm0-49.6v4.6l93 53.7 4-2.3-97-56zm44 140.9-71 41 4 2.3 67-38.7v-4.6zm-20 54.2 84 48.5v-4.6l-80-46.2-4 2.3zM114 162.1l4-2.3V97.4l-4-2.3v67zm260 658.2-58 33.5 4 2.3 54-31.2v-4.6zm0-30-84 48.5 4 2.3 80-46.2v-4.6zm-94 162.8 4-2.3v-92.4l-4-2.3v97zm94-177.9-97 56.1 4 2.3 93-53.7v-4.7zm-81 170.4 4-2.3v-77.4l-4-2.3v82zm-26 901.8 4-2.3v-107.4l-4-2.3v112zm53-7.5-54 31.2v4.6l58-33.5-4-2.3zm54-188.2v-2.3l-2-1.2-106 61.2v2.3l2 1.2 106-61.2zM284 0h-4v66.3l4-2.4V0zm62 1854.9-80 46.2v4.6l84-48.5-4-2.3zm-13-7.5-67 38.7v4.6l71-41-4-2.3zm-3-54.9 80 46.2 4-2.3-84-48.5v4.6zm0-15 93 53.7 4-2.3-97-56v4.6zm0 45.1 54 31.1 4-2.3-58-33.5v4.7zm0-15 67 38.6 4-2.3-71-41v4.7zm0-47.4v2.3l106 61.2 2-1.1v-2.3l-106-61.2-2 1.1zm29-341.2-93 53.7v4.6l97-56-4-2.3zm-13-7.5-80 46.2v4.6l84-48.5-4-2.3zm-13-7.5-67 38.7v4.6l71-41-4-2.3zm41 26v-2.3l-2-1.2-106 61.2v2.3l2 1.2 106-61.2zm-54 188.2-54 31.2v4.6l58-33.5-4-2.3zm13 7.5-67 38.7v4.6l71-41-4-2.3zm61-1465.9 4 2.3v-67l-4 2.3v62.4zM267 1625.7l4-2.3V1516l-4-2.3v112zm92 15-93 53.7v4.6l97-56-4-2.3zm-29-767.3v2.3l106 61.2 2-1.1v-2.4l-106-61.2-2 1.2zm0-665.1v2.3l106 61.2 2-1.2v-2.3l-106-61.2-2 1.2zm11 215.3 97 56V475l-93-53.7-4 2.3zm-11 6.4v2.3l106 61.2 2-1.2V490l-106-61.2-2 1.2zm11 215.3 97 56v-4.6L345 643l-4 2.3zm86-590L331.2 0H330v3.9l93 53.7 4-2.3zM297 0h-4v58.8l4-2.4V0zm13 0h-4v51.2l4-2.3V0zm31 201.9 97 56v-4.6l-93-53.7-4 2.3zm-11 449.8v2.3l106 61.2 2-1.2v-2.3l-106-61.2-2 1.2zm11 880.5 97 56v-4.7l-93-53.7-4 2.4zm0 221.7 97 56v-4.7l-93-53.7-4 2.4zm0-443.4 97 56v-4.7l-93-53.7-4 2.4zm0-443.5 97 56v-4.6l-93-53.7-4 2.3zm-11 671.5v2.3l106 61.2 2-1.1v-2.3l-106-61.2-2 1.1zm0-221.7v2.3l106 61.2 2-1.1v-2.4l-106-61.2-2 1.2zm-10 79.7-54 31.2v4.6l58-33.5-4-2.3zm10-301.4v2.3l106 61.2 2-1.1v-2.4l-106-61.2-2 1.2zm11-6.4 97 56.1v-4.7l-93-53.7-4 2.3zm5 544.5-80 46.2v4.6l84-48.5-4-2.3zm13-1322.7-93 53.7v4.6l97-56-4-2.3zm-92 206.7 4-2.3V407.5l-4-2.3v112zm107-195.8v-2.3l-2-1.1-106 61.2v2.3l2 1.1 106-61.2zM346 303l-80 46.2v4.6l84-48.5-4-2.3zm0 221.7-80 46.2v4.6l84-48.5-4-2.3zm-13-229.2-67 38.7v4.6l71-41-4-2.3zm26 236.7-93 53.7v4.6l97-56-4-2.3zm-26-15-67 38.7v4.6l71-41-4-2.3zm-13-7.5-54 31.1v4.7l58-33.5-4-2.3zm81-439.4-71-41v4.6l67 38.7 4-2.3zm-27 472.9v-2.4l-2-1.1-106 61.2v2.3l2 1.2 106-61.2zM346 81.3l-80 46.2v4.6l84-48.5-4-2.3zm68-18.5-84-48.5v4.6l80 46.2 4-2.3zm-7 104.5 4 2.3v-82l-4 2.3v77.4zM267 295.5l4-2.3V185.8l-4-2.3v112zm92-206.7-93 53.7v4.6l97-56-4-2.3zM320 288l-54 31.1v4.7l58-33.5-4-2.3zm54-188.3v-2.3l-2-1.1-106 61.2v2.3l2 1.1 106-61.2zM267 1404l4-2.3v-107.4l-4-2.3v112zm0-665.1 4-2.3V629.2l-4-2.3v112zm107 247.7v-2.4l-2-1.1-106 61.2v2.3l2 1.2 106-61.2zm-54 188.2-54 31.2v4.6l58-33.5-4-2.3zm39-199.2-93 53.7v4.6l97-56-4-2.3zm0 221.7-93 53.7v4.6l97-56-4-2.3zm-26-15-67 38.7v4.6l71-41-4-2.3zm41 26v-2.3l-2-1.2-106 61.2v2.3l2 1.2 106-61.2zm-28-240.2-80 46.2v4.6l84-48.5-4-2.3zm0 221.7-80 46.2v4.6l84-48.5-4-2.3zm-79-7.5 4-2.3v-107.4l-4-2.3v112zm92-428.4-93 53.7v4.6l97-56-4-2.3zm-13-7.5-80 46.2v4.6l84-48.5-4-2.3zm-13 214.2-67 38.7v4.6l71-41-4-2.3zm-13-229.2-54 31.1v4.7l58-33.5-4-2.3zm13 7.5-67 38.7v4.6l71-41-4-2.3zm41 26v-2.4l-2-1.1-106 61.2v2.3l2 1.2 106-61.2zm-54 188.2-54 31.1v4.7l58-33.5-4-2.3zm-53 7.5 4-2.3V850.9l-4-2.3v112zM1471.2 1920l54.8-31.6v-4.6l-62.8 36.2h8zM138 1918.4l2.8 1.6h8l-10.8-6.2v4.6zm-37 1.6h4v-56.4l-4-2.4v58.8zm37-31.6 54.8 31.6h8l-62.8-36.2v4.6zm-24 31.6h4v-48.9l-4-2.3v51.2zm205.2 0 54.8-31.6v-4.6l-62.8 36.2h8zM138 1871.1v2.3l80.8 46.6h8l-86.8-50.1-2 1.2zm147.2 48.9h8l80.8-46.6v-2.3l-2-1.2-86.8 50.1zm73.8-57.6-93 53.7v3.9h1.2l95.8-55.3-4-2.3zm344.2 57.6 54.8-31.6v-4.6l-62.8 36.2h8zM138 1903.4l28.8 16.6h8l-36.8-21.2v4.6zM10 1920h4v-51.2l-4 2.3v48.9zm-10-66.3 4-2.3-4-2.3v4.6zm0-30 26 15 4-2.3-30-17.3v4.6zm0 15 13 7.5 4-2.3-17-9.8v4.6zm62 2.3v79h4v-79l-2-1.1-2 1.1zm-26 79h4v-66.3l-4 2.3v64zm52 0h4v-64l-4-2.3v66.3zm-13 0h4v-71.5l-4-2.3v73.8zm-26 0h4v-73.8l-4 2.3v71.5zm-26 0h4v-58.8l-4 2.4v56.4zm499-1.6 2.8 1.6h8l-10.8-6.2v4.6zm0-15 28.8 16.6h8l-36.8-21.2v4.6zm0-15 54.8 31.6h8l-62.8-36.2v4.6zm-24 31.6h4v-48.9l-4-2.3v51.2zm171.2 0h8l80.8-46.6v-2.3l-2-1.2-86.8 50.1zm73.8-57.6-93 53.7v3.9h1.2l95.8-55.3-4-2.3zM485 1920h4v-56.4l-4-2.4v58.8zm37-48.9v2.3l80.8 46.6h8l-86.8-50.1-2 1.2zm11-6.4 95.8 55.3h1.2v-3.9l-93-53.7-4 2.3zm-61 55.3h4v-64l-4-2.3v66.3zm-65 0h4v-58.8l-4 2.4v56.4zm-13 0h4v-51.2l-4 2.3v48.9zm26 0h4v-66.3l-4 2.3v64zm-74.8 0 28.8-16.6v-4.6l-36.8 21.2h8zm26 0 2.8-1.6v-4.6l-10.8 6.2h8zm87.8 0h4v-71.5l-4-2.3v73.8zm-13-79v79h4v-79l-2-1.1-2 1.1zm-13 79h4v-73.8l-4 2.3v71.5zm-284-55.3 95.8 55.3h1.2v-3.9l-93-53.7-4 2.3zM0 226.8l54 31.1v-4.6L0 222.1v4.7zm0 1581.9 39 22.5 4-2.3-43-24.8v4.6zM43 55.3 0 30.5v4.6l39 22.5 4-2.3zM0 448.5l54 31.1V475L0 443.8v4.7zM0 20.1l52 30 2-1.2v-2.3L0 15.5v4.6zM43 277 0 252.2v4.6l39 22.5 4-2.3zm-13 7.5L0 267.2v4.6l26 15 4-2.3zM17 70.3 0 60.5v4.6l13 7.5 4-2.3zM17 292l-17-9.8v4.6l13 7.5 4-2.3zM30 62.8 0 45.5v4.6l26 15 4-2.3zM0 1748.7l54 31.1v-4.6L0 1744v4.7zm0 15 54 31.2v-4.7l-54-31.1v4.6zm49-136.9v107.4l4 2.3v-112l-4 2.3zM0 1793.7l52 30 2-1.1v-2.3l-54-31.2v4.6zm0-901.8L54 923v-4.6L0 887.3v4.6zm0 886.8 54 31.2v-4.7l-54-31.1v4.6zm0-443.4 54 31.2v-4.7l-54-31.1v4.6zm0-221.7 54 31.2v-4.7L0 1109v4.6zM0 1557l54 31.2v-4.7l-54-31.1v4.6zm0-886.8 54 31.1v-4.6L0 665.6v4.6zM30 1393l-30-17.3v4.6l26 15 4-2.3zm13-7.5-43-24.8v4.6l39 22.5 4-2.3zm-26-206.7L0 1169v4.6l13 7.5 4-2.3zm13-7.5L0 1154v4.6l26 15 4-2.3zm-13 450.9-17-9.8v4.6l13 7.5 4-2.3zm0-221.7-17-9.8v4.6l13 7.5 4-2.3zm26-236.7L0 1139v4.6l39 22.5 4-2.3zm-13 450.9-30-17.3v4.6l26 15 4-2.3zm13-7.5-43-24.8v4.6l39 22.5 4-2.3zm-13-1101L0 488.9v4.6l26 15 4-2.3zm13 214.2L0 695.6v4.6l39 22.5 4-2.3zM17 513.7l-17-9.8v4.6l13 7.5 4-2.3zm0 443.4-17-9.8v4.6l13 7.5 4-2.3zm26-458.4L0 473.9v4.6L39 501l4-2.3zM30 727.9 0 710.6v4.6l26 15 4-2.3zm-13 7.5-17-9.8v4.6l13 7.5 4-2.3zm13 214.2L0 932.3v4.6l26 15 4-2.3zm13-7.5L0 917.3v4.6l39 22.5 4-2.3zM1611 1920h4v-71.5l-4-2.3v73.8zm63-48.9v2.3l80.8 46.6h8l-86.8-50.1-2 1.2zm0 47.3 2.8 1.6h8l-10.8-6.2v4.6zm0-30 54.8 31.6h8l-62.8-36.2v4.6zm0 15 28.8 16.6h8l-36.8-21.2v4.6zm11-38.7 95.8 55.3h1.2v-3.9l-93-53.7-4 2.3zm181-57.1 54 31.1v-4.6l-54-31.2v4.7zm29 54.8-93 53.7v3.9h1.2l95.8-55.3-4-2.3zm-29-69.9 54 31.2v-4.6l-54-31.2v4.6zm0 30.1 54 31.1v-4.6l-54-31.2v4.7zm-307 97.4h4v-58.8l-4 2.4v56.4zm13 0h4v-66.3l-4 2.3v64zm13 0h4v-73.8l-4 2.3v71.5zm65 0h4v-48.9l-4-2.3v51.2zm-104 0h4v-51.2l-4 2.3v48.9zm320-142.5 54 31.2v-4.6l-54-31.2v4.6zM1624 1920h4v-64l-4-2.3v66.3zm-26-79v79h4v-79l-2-1.1-2 1.1zm39 79h4v-56.4l-4-2.4v58.8zM0 1572l52 30 2-1.1v-2.3l-54-31.2v4.6zm1877-483.3 43 24.9v-4.6l-39-22.6-4 2.3zm0-443.4 43 24.9v-4.6l-39-22.6-4 2.3zm-11 1114.9v2.3l54 31.2v-4.6l-52-30-2 1.1zm11-893.2 43 24.9v-4.6l-39-22.6-4 2.3zm-11-215.3v2.3l54 31.2v-4.6l-52-30.1-2 1.2zm11-228.1 43 24.9v-4.7l-39-22.5-4 2.3zM1919.2 0h-8l8.8 5.1V.4l-.8-.4zM1866 208.3v2.3l54 31.2v-4.6l-52-30.1-2 1.2zM1885.2 0l34.8 20.1v-4.6L1893.2 0h-8zm-8.2 201.9 43 24.9v-4.7l-39-22.5-4 2.3zM1866 430v2.3l54 31.2v-4.6l-52-30.1-2 1.2zm0 1108.5v2.3l54 31.2v-4.6l-52-30-2 1.1zm11-6.3 43 24.8v-4.6l-39-22.6-4 2.4zm-11-658.8v2.3l54 31.2v-4.6l-52-30.1-2 1.2zm11 880.5 43 24.8v-4.6l-39-22.6-4 2.4zm-11-437.1v2.3l54 31.2v-4.6l-52-30.1-2 1.2zM1523.2 1920l2.8-1.6v-4.6l-10.8 6.2h8zm353.8-609.5 43 24.8v-4.6l-39-22.6-4 2.4zm-11-215.4v2.3l54 31.2v-4.6l-52-30.1-2 1.2zM856 1920h4v-64l-4-2.3v66.3zm50-16.6 28.8 16.6h8l-36.8-21.2v4.6zm-24 16.6h4v-48.9l-4-2.3v51.2zm231.2 0 28.8-16.6v-4.6l-36.8 21.2h8zm-207.2-1.6 2.8 1.6h8l-10.8-6.2v4.6zm0-47.3v2.3l80.8 46.6h8l-86.8-50.1-2 1.2zm11-6.4 95.8 55.3h1.2v-3.9l-93-53.7-4 2.3zm170.2 55.3 54.8-31.6v-4.6l-62.8 36.2h8zm-34 0h8l80.8-46.6v-2.3l-2-1.2-86.8 50.1zm73.8-57.6-93 53.7v3.9h1.2l95.8-55.3-4-2.3zm-221 26 54.8 31.6h8l-62.8-36.2v4.6zM778 1920h4v-51.2l-4 2.3v48.9zm26 0h4v-66.3l-4 2.3v64zm-13 0h4v-58.8l-4 2.4v56.4zm78 0h4v-56.4l-4-2.4v58.8zm-113.8 0 2.8-1.6v-4.6l-10.8 6.2h8zM182 14.3 98 62.8l4 2.3 80-46.2v-4.6zM729.2 1920l28.8-16.6v-4.6l-36.8 21.2h8zm87.8 0h4v-73.8l-4 2.3v71.5zm13-79v79h4v-79l-2-1.1-2 1.1zm397 79h4v-71.5l-4-2.3v73.8zm39 0h4v-48.9l-4-2.3v51.2zm24-48.9v2.3l80.8 46.6h8l-86.8-50.1-2 1.2zm0 32.3 28.8 16.6h8l-36.8-21.2v4.6zm0 15 2.8 1.6h8l-10.8-6.2v4.6zm0-30 54.8 31.6h8l-62.8-36.2v4.6zm11-23.7 95.8 55.3h1.2v-3.9l-93-53.7-4 2.3zm136.2 55.3h8l80.8-46.6v-2.3l-2-1.2-86.8 50.1zM330 1137.8v4.6l67 38.7 4-2.3-71-41zm1181 724.6-93 53.7v3.9h1.2l95.8-55.3-4-2.3zm-336 57.6h4v-58.8l-4 2.4v56.4zm-35.8 0 2.8-1.6v-4.6l-10.8 6.2h8zm48.8 0h4v-66.3l-4 2.3v64zm13 0h4v-73.8l-4 2.3v71.5zm-39 0h4v-51.2l-4 2.3v48.9zm52-79v79h4v-79l-2-1.1-2 1.1zm26 79h4v-64l-4-2.3v66.3zm13 0h4v-56.4l-4-2.4v58.8zm244.2 0 28.8-16.6v-4.6l-36.8 21.2h8zm-654.2 0h4v-71.5l-4-2.3v73.8zM162 527l84 48.5v-4.6l-80-46.2-4 2.3zM0 1542l54 31.1v-4.6l-54-31.1v4.6zM149 534.5l97 56v-4.6l-93-53.7-4 2.3zm92 94.7v107.4l4 2.3v-112l-4 2.3zm-92-316.4 97 56v-4.6l-93-53.7-4 2.3zm92 94.7v107.4l4 2.3v-112l-4 2.3zm-103-88.4v2.3l106 61.2 2-1.1v-2.3L140 318l-2 1.1zm37 200.4 71 41v-4.6l-67-38.7-4 2.3zm13 214.2 58 33.5v-4.7l-54-31.1-4 2.3zm0-221.7 58 33.5v-4.7l-54-31.1-4 2.3zm0 443.4 58 33.5v-4.7l-54-31.1-4 2.3zm-13 7.5 71 41v-4.6l-67-38.7-4 2.3zm0-221.7 71 41v-4.6l-67-38.7-4 2.3zm-26 236.7 97 56v-4.6l-93-53.7-4 2.3zm13-7.5 84 48.5v-4.6l-80-46.2-4 2.3zm-13-214.2 97 56v-4.6l-93-53.7-4 2.3zm92 94.7v107.4l4 2.3v-112l-4 2.3zm-79-102.2 84 48.5v-4.6l-80-46.2-4 2.3zm-24 13.8v2.4l106 61.2 2-1.2v-2.3l-106-61.2-2 1.1zM206 0h-4v48.9l4 2.3V0zm13 0h-4v56.4l4 2.4V0zm-81 984.2v2.4l106 61.2 2-1.2v-2.3l-106-61.2-2 1.1zM245 0h-4v71.5l4 2.3V0zm-13 0h-4v63.9l4 2.4V0zM89 57.6l93-53.7V0h-1.2L85 55.3l4 2.3zM102.8 0 74 16.6v4.6L110.8 0h-8zm-26 0L74 1.6v4.6L84.8 0h-8zm86 0h-8L74 46.6v2.3l2 1.2L162.8 0zm-34 0L74 31.6v4.6L136.8 0h-8zM188 68.6l58 33.5v-4.7l-54-31.1-4 2.3zm-50 28.8v2.3l106 61.2 2-1.1v-2.3L140 96.3l-2 1.1zM62 1397.6V1520l2 1.2 2-1.2v-122.4l-2-1.1-2 1.1zM188 290.3l58 33.5v-4.7L192 288l-4 2.3zm-13 7.5 71 41v-4.6l-67-38.7-4 2.3zm66-112v107.4l4 2.3v-112l-4 2.3zM175 76.1l71 41v-4.7l-67-38.6-4 2.3zm-13 7.5 84 48.5v-4.6l-80-46.2-4 2.3zm-13 7.5 97 56v-4.6l-93-53.7-4 2.3zm13 214.2 84 48.5v-4.6L166 303l-4 2.3zm20 1487.2v-4.6l-84 48.5 4 2.3 80-46.2zm6 49.7 58 33.5v-4.6l-54-31.2-4 2.3zm-6-79.7v-2.3l-2-1.1-106 61.2v2.3l2 1.1 106-61.2zm-15-232.7-93 53.7v4.7l97-56-4-2.4zm0 221.7-93 53.7v4.7l97-56-4-2.4zm15 56.1v-4.7l-71 41 4 2.3 67-38.6zm-20 49.6 84 48.5v-4.6l-80-46.2-4 2.3zm13-7.5 71 41v-4.6l-67-38.7-4 2.3zm7-31.8-58 33.5 4 2.3 54-31.1v-4.7zm0-40.4v-4.6l-97 56 4 2.3 93-53.7zM167 199.6l-93 53.7v4.6l97-56-4-2.3zm-26-15-67 38.7v4.6l71-41-4-2.3zm13 7.5-80 46.2v4.6l84-48.5-4-2.3zm-53-22.5 4-2.3V89.9l-4-2.3v82zm66 1138.5-93 53.7v4.7l97-56-4-2.4zm0-886.8L74 475v4.6l97-56-4-2.3zm0 443.4-93 53.7v4.6l97-56-4-2.3zm0 221.7-93 53.7v4.7l97-56.1-4-2.3zm0-443.4-93 53.7v4.6l97-56-4-2.3zm8 763.3 71 41v-4.6l-67-38.7-4 2.3zm66-112v107.4l4 2.3v-112l-4 2.3zm0 443.4v107.4l4 2.3v-112l-4 2.3zM138 1206v2.3l106 61.2 2-1.2v-2.3l-106-61.2-2 1.2zm103-133.4V1180l4 2.3v-112l-4 2.3zm-92 127 97 56v-4.6l-93-53.7-4 2.3zm13 214.2 84 48.5v-4.6l-80-46.2-4 2.3zm13-229.2 71 41v-4.6l-67-38.7-4 2.3zm13-7.5 58 33.5v-4.6l-54-31.2-4 2.3zm-26 15 84 48.5v-4.6l-80-46.2-4 2.3zm26 206.7 58 33.5v-4.6l-54-31.2-4 2.3zM149 1643l97 56v-4.6l-93-53.7-4 2.3zm13-7.5 84 48.5v-4.6l-80-46.2-4 2.3zm13-7.5 71 41v-4.6l-67-38.7-4 2.3zm-37 21.4v2.3l106 61.2 2-1.2v-2.3l-106-61.2-2 1.2zm11-228.1 97 56v-4.6l-93-53.7-4 2.3zm-11 6.4v2.3l106 61.2 2-1.2v-2.3l-106-61.2-2 1.2zm103 88.3v107.4l4 2.3v-112l-4 2.3zm-53 104.5 58 33.5v-4.6l-54-31.2-4 2.3zM138 540.8v2.4l106 61.2 2-1.2v-2.3l-106-61.2-2 1.1zM0 196.7l54 31.2v-4.6L0 192.1v4.6zm23-29.4 4 2.3v-82l-4 2.3v77.4zm26-92.4v107.4l4 2.3v-112l-4 2.3zm-13 99.9 4 2.3v-97l-4 2.3v92.4zm-36 37 54 31.1v-4.6L0 207.1v4.7zm0 221.7 54 31.1V460L0 428.8v4.7zm0-15.1 54 31.2V445L0 413.8v4.6zm0 45.1 52 30 2-1.2V490L0 458.9v4.6zm49-166.9V404l4 2.3v-112l-4 2.3zM0 241.8l52 30 2-1.2v-2.3L0 237.2v4.6zm62 1377.5v122.4l2 1.2 2-1.2v-122.4l-2-1.1-2 1.1zM10 381.5l4 2.3v-67l-4 2.3v62.4zM0 297.2v4.6l4-2.3-4-2.3zm36 321 4 2.3v-97l-4 2.3v92.4zM0 75.5v4.6l4-2.3-4-2.3zm0 106.2 54 31.2v-4.6L0 177.1v4.6zM23 389l4 2.3v-82l-4 2.3V389zM10 159.8l4 2.3v-67l-4 2.3v62.4zm26 236.7 4 2.3v-97l-4 2.3v92.4zM49 740v107.4l4 2.3v-112l-4 2.3zM0 1128.6l52 30 2-1.1v-2.4L0 1124v4.6zm49 54.8v107.4l4 2.3v-112l-4 2.3zm-49-84.8 54 31.1v-4.6l-54-31.2v4.7zm0 206.7 54 31.1v-4.6l-54-31.2v4.7zM0 1527l54 31.1v-4.6l-54-31.2v4.7zm0-206.7 54 31.1v-4.6l-54-31.2v4.7zm0-236.7 54 31.1v-4.6l-54-31.2v4.7zm49 321.5v107.4l4 2.3v-112l-4 2.3zm0-886.8v107.4l4 2.3V516l-4 2.3zm-49 832 52 30 2-1.1v-2.4l-54-31.1v4.6zm49-388.6v107.4l4 2.3v-112l-4 2.3zM0 655.2l54 31.1v-4.6L0 650.5v4.7zm0 30 52 30 2-1.2v-2.3L0 680.6v4.6zm0-45.1 54 31.2v-4.6L0 635.5v4.6zm23-29.4 4 2.3v-82l-4 2.3v77.4zM0 906.9l52 30 2-1.1v-2.4L0 902.3v4.6zm0-30L54 908v-4.6L0 872.2v4.7zm0-15L54 893v-4.6L0 857.2v4.7zm0-458.5 54 31.2V430L0 398.8v4.6zm23 1315.8 4 2.3v-82l-4 2.4v77.3zm0-221.7 4 2.3v-82l-4 2.3v77.4zm-13 214.2 4 2.3v-67l-4 2.4v62.3zm-10 22 54 31.1v-4.6L0 1729v4.7zm0-328v4.6l4-2.3-4-2.3zM0 5.1l54 31.1v-4.6L0 .4v4.7zM10 1490l4 2.3v-67l-4 2.4v62.3zm26 236.7 4 2.3v-97l-4 2.3v92.4zM0 1511.9l54 31.2v-4.6l-54-31.2v4.6zm0 115.5v4.6l4-2.3-4-2.3zM10 603.2l4 2.3v-67l-4 2.3v62.4zM17.2 0 54 21.2v-4.6L25.2 0h-8zM62 732.5v122.4l2 1.2 2-1.2V732.5l-2-1.1-2 1.1zm0 443.4v122.4l2 1.2 2-1.2v-122.4l-2-1.1-2 1.1zm0-221.7v122.4l2 1.2 2-1.2V954.2l-2-1.1-2 1.1zm0-665.1v122.4l2 1.2 2-1.2V289.1l-2-1.1-2 1.1zM43.2 0 54 6.2V1.6L51.2 0h-8zM62 67.4v122.4l2 1.2 2-1.2V67.4l-2-1.1-2 1.1zm0 443.4v122.4l2 1.2 2-1.2V510.8l-2-1.1-2 1.1zM0 740.6v4.6l4-2.3-4-2.3zm0 106.2L54 878v-4.6L0 842.2v4.6zm36 214.8 4 2.3v-97l-4 2.3v92.4zM10 824.9l4 2.3v-67l-4 2.3v62.4zm13 7.5 4 2.3v-82l-4 2.3v77.4zM0 625.1l54 31.2v-4.6L0 620.5v4.6zm0-106.2v4.6l4-2.3-4-2.3zm36 321 4 2.3v-97l-4 2.3v92.4zm-13 214.2 4 2.3v-82l-4 2.3v77.4zm-23 14.4 54 31.2v-4.6l-54-31.2v4.6zm10 199.8 4 2.3v-67l-4 2.4v62.3zm13 7.5 4 2.3v-82l-4 2.3v77.4zM0 1184v4.6l4-2.3-4-2.3zm0 106.2 54 31.2v-4.6l-54-31.2v4.6zM36 1505l4 2.3v-97l-4 2.3v92.4zm0-221.7 4 2.3v-97l-4 2.3v92.4zm-36-321v4.6l4-2.3-4-2.3zm10 84.3 4 2.3v-67l-4 2.3v62.4zM460.8 0 458 1.6v4.6L468.8 0h-8zM714 472.7v4.6l67 38.7 4-2.3-71-41zm64 130.5 4 2.3v-67l-4 2.3v62.4zm13 7.5 4 2.3v-82l-4 2.3v77.4zm-40 19.6 71 41v-4.6L755 628l-4 2.3zm-37-172.6v4.6l80 46.2 4-2.3-84-48.5zm44-95.8-71 41 4 2.3 67-38.7v-4.6zm-44 80.8v4.6l93 53.7 4-2.3-97-56zm0 49.6 54 31.2 4-2.3-58-33.5v4.6zm90 125.9 4 2.3v-97l-4 2.3v92.4zm-46-241.3-58 33.5 4 2.3 54-31.2v-4.6zm-68 339.5 4-2.4v-62.3l-4-2.3v67zm48-78.6 84 48.5v-4.6l-80-46.2-4 2.3zm20-54.2-71 41 4 2.3 67-38.7v-4.6zm-44 80.8v4.6l93 53.7 4-2.3-97-56zm44-65.8-58 33.5 4 2.3 54-31.2v-4.6zm0-45.1-97 56 4 2.4 93-53.7v-4.7zm0 15.1-84 48.5 4 2.3 80-46.2v-4.6zm-94 162.8 4-2.3v-92.4l-4-2.3v97zm13-7.5 4-2.3v-77.4l-4-2.3v82zm0-221.7 4-2.3v-77.4l-4-2.3v82zm37-231.6 54 31.2 4-2.3-58-33.5v4.6zm90 125.9 4 2.3v-97l-4 2.3v92.4zm-26-15 4 2.3v-67l-4 2.3v62.4zM714 251v4.6l67 38.7 4-2.3-71-41zm24 1051.9 84 48.5v-4.6l-80-46.2-4 2.3zm20-1177.8-84 48.5 4 2.4 80-46.2v-4.7zm0 30.1-58 33.5 4 2.3 54-31.2v-4.6zM690 273l4-2.4v-62.3l-4-2.3v67zm68-132.8-71 41 4 2.3 67-38.7v-4.6zm-68 354.5 4-2.4V430l-4-2.3v67zm68-162.9-97 56 4 2.4 93-53.7v-4.7zm-94 177.9 4-2.3V415l-4-2.3v97zm140 330.2 4 2.3v-97l-4 2.3v92.4zm-46-493-84 48.5 4 2.3 80-46.2v-4.6zm-20 69.2 84 48.5V460l-80-46.2-4 2.3zM714 236v4.6l80 46.2 4-2.3-84-48.5zm37 172.6 71 41V445l-67-38.7-4 2.3zm-26-206.7 97 56v-4.6l-93-53.7-4 2.3zm66 852.2 4 2.3v-82l-4 2.3v77.4zM758 997l-97 56 4 2.3 93-53.7V997zm0 30-71 41 4 2.3 67-38.7v-4.6zm0-15-84 48.5 4 2.3 80-46.2v-4.6zm-68 147.8 4-2.3v-62.4l-4-2.3v67zm-13 7.5 4-2.3v-77.4l-4-2.3v82zm-13 7.5 4-2.3v-92.4l-4-2.3v97zm50-273.7v4.6l80 46.2 4-2.3-84-48.5zm37 172.6 71 41v-4.6l-67-38.7-4 2.3zm-13 7.5 84 48.5v-4.6l-80-46.2-4 2.3zm66 202.1 4 2.3v-97l-4 2.3v92.4zM758 1042l-58 33.5 4 2.3 54-31.2v-4.6zm33 233.8 4 2.3v-82l-4 2.3v77.4zm-77-138v4.6l67 38.7 4-2.3-71-41zm37 157.6 71 41v-4.6l-67-38.7-4 2.3zm-37-172.6v4.6l80 46.2 4-2.3-84-48.5zm0-15v4.6l93 53.7 4-2.3-97-56zm-37-827.3 4-2.4v-77.3l-4-2.3v82zm37 877 54 31.1 4-2.3-58-33.5v4.7zm64 110.8 4 2.3v-67l-4 2.4v62.3zm-64-352.2v4.6l67 38.7 4-2.3-71-41zm37-64.1 71 41v-4.6l-67-38.7-4 2.3zm-87 101.1 4-2.3v-92.4l-4-2.3v97zm74-93.6 84 48.5v-4.6l-80-46.2-4 2.3zm20-84.3-97 56.1 4 2.3 93-53.7v-4.7zm20 49.7 4 2.3v-67l-4 2.3v62.4zm-64-130.5v4.6l67 38.7 4-2.3-71-41zm0-15v4.6l80 46.2 4-2.3-84-48.5zm0 34.6 54 31.2 4-2.3-58-33.5v4.6zm77 118.4 4 2.3v-82l-4 2.3v77.4zM677 945.6l4-2.3v-77.4l-4-2.3v82zm127 116 4 2.3v-97l-4 2.3v92.4zm-90-125.8 54 31.1 4-2.3-58-33.5v4.7zm0-49.7v4.6l93 53.7 4-2.3-97-56zm64 160.5 4 2.3v-67l-4 2.3v62.4zm-20-226.3-58 33.5 4 2.3 54-31.2v-4.6zm-68 117.8 4-2.3v-62.4l-4-2.3v67zm68-132.8-71 41 4 2.3 67-38.7v-4.6zm0-15-84 48.5 4 2.3 80-46.2v-4.6zM714 221v4.6l93 53.7 4-2.3-97-56zm-10 1397.2-54 31.2v4.6l58-33.5-4-2.3zm54 33.5v-2.3l-2-1.2-106 61.2v2.3l2 1.2 106-61.2zm-28-18.5-80 46.2v4.6l84-48.5-4-2.3zm-13-7.5-67 38.7v4.6l71-41-4-2.3zm26 15-93 53.7v4.6l97-56-4-2.3zm-29 181.9 54 31.1 4-2.3-58-33.5v4.7zm16 32.3-80 46.2v4.6l84-48.5-4-2.3zm-13-7.5-67 38.7v4.6l71-41-4-2.3zm-13-7.5-54 31.2v4.6l58-33.5-4-2.3zm-53 7.5 4-2.3v-107.4l-4-2.3v112zm107-639.1v-2.3l-2-1.2-106 61.2v2.3l2 1.2 106-61.2zM651 1404l4-2.3v-107.4l-4-2.3v112zm92-206.7-93 53.7v4.6l97-56-4-2.3zm-39 199.2-54 31.2v4.6l58-33.5-4-2.3zm39 22.5-93 53.7v4.6l97-56-4-2.3zm-92 206.7 4-2.3V1516l-4-2.3v112zm66-221.7-67 38.7v4.6l71-41-4-2.3zm41 26v-2.3l-2-1.2-106 61.2v2.3l2 1.2 106-61.2zm-28-18.5-80 46.2v4.6l84-48.5-4-2.3zm28-1301.4-97 56 4 2.4 93-53.7v-4.7zM725 867l97 56v-4.6l-93-53.7-4 2.3zm5 322.8-80 46.2v4.6l84-48.5-4-2.3zm-16-94.7v2.3l106 61.2 2-1.1v-2.4l-106-61.2-2 1.2zm11-6.4 97 56.1v-4.7l-93-53.7-4 2.3zm-11-437v2.3l106 61.2 2-1.2v-2.3l-106-61.2-2 1.2zm0-443.4v2.3l106 61.2 2-1.2v-2.3l-106-61.2-2 1.2zm11 215.3 97 56V475l-93-53.7-4 2.3zm-11 6.4v2.3l106 61.2 2-1.2V490l-106-61.2-2 1.2zm11 215.3 97 56v-4.6L729 643l-4 2.3zm0 1108.6 97 56v-4.7l-93-53.7-4 2.4zm-11 23.6 93 53.7 4-2.3-97-56v4.6zm0-17.3v2.3l106 61.2 2-1.1v-2.3l-106-61.2-2 1.1zm0 32.3 80 46.2 4-2.3-84-48.5v4.6zm0 15.1 67 38.6 4-2.3-71-41v4.7zm11-275.4 97 56v-4.7l-93-53.7-4 2.4zm-11-215.4v2.3l106 61.2 2-1.1v-2.4l-106-61.2-2 1.2zm0 221.7v2.3l106 61.2 2-1.1v-2.3l-106-61.2-2 1.1zm11-228 97 56v-4.7l-93-53.7-4 2.4zm-11-437.1v2.3l106 61.2 2-1.1v-2.4l-106-61.2-2 1.2zm29-784.6-93 53.7v4.6l97-56-4-2.3zm-92 206.7 4-2.3V185.8l-4-2.3v112zm53-7.5-54 31.1v4.7l58-33.5-4-2.3zm54-188.3v-2.3l-2-1.1-106 61.2v2.3l2 1.1 106-61.2zm-41 195.8-67 38.7v4.6l71-41-4-2.3zm41 25.9v-2.3l-2-1.1-106 61.2v2.3l2 1.1 106-61.2zM651 517.2l4-2.3V407.5l-4-2.3v112zM730 303l-80 46.2v4.6l84-48.5-4-2.3zm13 7.5-93 53.7v4.6l97-56-4-2.3zm-5-116.1 84 48.5v-4.6l-80-46.2-4 2.3zm13-7.5 71 41v-4.6l-67-38.7-4 2.3zm27-27.1 4 2.3v-67l-4 2.3v62.4zm-74 349.9-54 31.1v4.7l58-33.5-4-2.3zM664 288l4-2.3v-92.4l-4-2.3v97zM798 62.8l-84-48.5v4.6l80 46.2 4-2.3zm-13 7.5-71-41v4.6l67 38.7 4-2.3zm-13 7.5-58-33.5v4.6l54 31.2 4-2.3zm19 89.5 4 2.3v-82l-4 2.3v77.4zm-61-86-80 46.2v4.6l84-48.5-4-2.3zm0 665.1-80 46.2v4.6l84-48.5-4-2.3zm-26 206.7-54 31.1v4.7l58-33.5-4-2.3zm26 15-80 46.2v4.6l84-48.5-4-2.3zm-13-7.5-67 38.7v4.6l71-41-4-2.3zm-66 0 4-2.3V850.9l-4-2.3v112zm53 214.2-54 31.2v4.6l58-33.5-4-2.3zm54-409.9v-2.4l-2-1.1-106 61.2v2.3l2 1.2 106-61.2zm-15 210.7-93 53.7v4.6l97-56-4-2.3zm-92 206.7 4-2.3v-107.4l-4-2.3v112zm107-195.7v-2.4l-2-1.1-106 61.2v2.3l2 1.2 106-61.2zM651 738.9l4-2.3V629.2l-4-2.3v112zm92-206.7-93 53.7v4.6l97-56-4-2.3zm15 11v-2.4l-2-1.1-106 61.2v2.3l2 1.2 106-61.2zm-41-26-67 38.7v4.6l71-41-4-2.3zm13 7.5-80 46.2v4.6l84-48.5-4-2.3zm-13 657.6-67 38.7v4.6l71-41-4-2.3zm26-428.4-93 53.7v4.6l97-56-4-2.3zm-26-15-67 38.7v4.6l71-41-4-2.3zm-13-7.5-54 31.1v4.7l58-33.5-4-2.3zM791 389l4 2.3v-82l-4 2.3V389zm115 373.5v2.4l106 61.2 2-1.2v-2.3l-106-61.2-2 1.1zm103 88.4v107.4l4 2.3v-112l-4 2.3zm-53 104.5 58 33.5v-4.7l-54-31.1-4 2.3zm-26 15 84 48.5v-4.6l-80-46.2-4 2.3zm79-341.2v107.4l4 2.3v-112l-4 2.3zm-53 104.5 58 33.5v-4.7l-54-31.1-4 2.3zm-39 22.5 97 56v-4.6l-93-53.7-4 2.3zm26-15 71 41v-4.6l-67-38.7-4 2.3zm-13 7.5 84 48.5v-4.6l-80-46.2-4 2.3zm13 214.2 71 41v-4.6l-67-38.7-4 2.3zM906 1206v2.3l106 61.2 2-1.2v-2.3l-106-61.2-2 1.2zm24-13.9 84 48.5v-4.6l-80-46.2-4 2.3zm-13 7.5 97 56v-4.6l-93-53.7-4 2.3zm92 94.7v107.4l4 2.3v-112l-4 2.3zM906 984.2v2.4l106 61.2 2-1.2v-2.3l-106-61.2-2 1.1zm37 200.4 71 41v-4.6l-67-38.7-4 2.3zm-26-206.7 97 56v-4.6l-93-53.7-4 2.3zm92 94.7V1180l4 2.3v-112l-4 2.3zm-53 104.5 58 33.5v-4.6l-54-31.2-4 2.3zm-39-1086 97 56v-4.6l-93-53.7-4 2.3zm39 1307.7 58 33.5v-4.6l-54-31.2-4 2.3zM906 97.4v2.3l106 61.2 2-1.1v-2.3L908 96.3l-2 1.1zm103 88.4v107.4l4 2.3v-112l-4 2.3zm-53 104.5 58 33.5v-4.7L960 288l-4 2.3zm-13 7.5 71 41v-4.6l-67-38.7-4 2.3zM930 83.6l84 48.5v-4.6l-80-46.2-4 2.3zm26-15 58 33.5v-4.7l-54-31.1-4 2.3zM1013 0h-4v71.5l4 2.3V0zm-70 76.1 71 41v-4.7l-67-38.6-4 2.3zm-26 458.4 97 56v-4.6l-93-53.7-4 2.3zm13-7.5 84 48.5v-4.6l-80-46.2-4 2.3zm26-15 58 33.5v-4.7l-54-31.1-4 2.3zm-13 7.5 71 41v-4.6l-67-38.7-4 2.3zm-37 21.3v2.4l106 61.2 2-1.2v-2.3l-106-61.2-2 1.1zm24-235.5 84 48.5v-4.6L934 303l-4 2.3zm-13 7.5 97 56v-4.6l-93-53.7-4 2.3zm-11 6.3v2.3l106 61.2 2-1.1v-2.3L908 318l-2 1.1zm103 88.4v107.4l4 2.3v-112l-4 2.3zm-345 989 4-2.3v-92.4l-4-2.3v97zM856 1729l4-2.3v-92.4l-4-2.3v97zm94-177.8-97 56 4 2.3 93-53.7v-4.6zm-15 200.3-93 53.7v4.7l97-56-4-2.4zm8-345.2 71 41v-4.6l-67-38.7-4 2.3zm-100 330.2 4-2.3v-107.4l-4-2.3v112zm66 0-67 38.7v4.6l71-41-4-2.3zm-27-22.5 4-2.3v-62.3l-4-2.4v67zm40 30-80 46.2v4.7l84-48.5-4-2.4zm-26-15-54 31.2v4.6l58-33.5-4-2.3zm-27-7.5 4-2.3v-77.3l-4-2.4v82zm127 116.1 4 2.3v-97l-4 2.3v92.4zm-90-160.5v4.6l80 46.2 4-2.3-84-48.5zm0-15v4.6l93 53.7 4-2.3-97-56zm77 168 4 2.3v-82l-4 2.3v77.4zm-77-118.4 54 31.2 4-2.3-58-33.5v4.6zm44-130.5-71 41 4 2.3 67-38.7v-4.6zm0 15-58 33.5 4 2.3 54-31.1v-4.7zm-44 95.9v4.6l67 38.7 4-2.3-71-41zm64 130.5 4 2.3v-67l-4 2.3v62.4zm-20-256.4-84 48.5 4 2.3 80-46.2v-4.6zm-20 69.3 84 48.5v-4.6l-80-46.2-4 2.3zm-24 13.9v2.3l106 61.2 2-1.2v-2.3l-106-61.2-2 1.2zM1000 0h-4v63.9l4 2.4V0zm-83 1643 97 56v-4.6l-93-53.7-4 2.3zm39-22.5 58 33.5v-4.6l-54-31.2-4 2.3zm-6 142v-2.3l-2-1.1-106 61.2v2.3l2 1.1 106-61.2zm-33-341.2 97 56v-4.6l-93-53.7-4 2.3zm13-7.5 84 48.5v-4.6l-80-46.2-4 2.3zm-24 13.9v2.3l106 61.2 2-1.2v-2.3l-106-61.2-2 1.2zm103 88.3v107.4l4 2.3v-112l-4 2.3zm-59 291.6v-4.7l-71 41 4 2.3 67-38.6zm0-15.1v-4.6l-84 48.5 4 2.3 80-46.2zm0 25.4-58 33.5 4 2.3 54-31.1v-4.7zm0-40.4v-4.6l-97 56 4 2.3 93-53.7zm6 64.7 58 33.5v-4.6l-54-31.2-4 2.3zm53-104.5v107.4l4 2.3v-112l-4 2.3zm-79 119.5 84 48.5v-4.6l-80-46.2-4 2.3zm13-7.5 71 41v-4.6l-67-38.7-4 2.3zm0-221.7 71 41v-4.6l-67-38.7-4 2.3zm-165 83.7 4 2.3v-67l-4 2.4v62.3zm-64-110.8 54 31.1 4-2.3-58-33.5v4.7zm0-19.7v4.6l67 38.7 4-2.3-71-41zm90 145.5 4 2.3v-97l-4 2.3v92.4zm-46-241.3-58 33.5 4 2.3 54-31.2v-4.6zm0-15-71 41 4 2.3 67-38.7v-4.6zm0-15-84 48.5 4 2.3 80-46.2v-4.6zm-44 95.8v4.6l93 53.7 4-2.3-97-56zm77 168 4 2.3v-82l-4 2.4v77.3zm-101-116 4-2.3v-62.4l-4-2.3v67zm68 58.9-97 56 4 2.3 93-53.7v-4.6zm0 15-84 48.5 4 2.3 80-46.2v-4.6zm-81 155.3 4-2.3v-77.4l-4-2.3v82zm13-7.5 4-2.3v-62.4l-4-2.3v67zm48-78.5 84 48.5v-4.7l-80-46.2-4 2.4zm13-7.6 71 41v-4.6l-67-38.7-4 2.3zm-87 101.1 4-2.3v-92.4l-4-2.3v97zm50-273.7v4.6l80 46.2 4-2.3-84-48.5zm44 145.5v-4.6l-58 33.5 4 2.3 54-31.2zm0-493-97 56 4 2.3 93-53.7v-4.6zm-44 110.8v4.6l93 53.7 4-2.3-97-56zm44-80.8-71 41 4 2.3 67-38.7v-4.6zm0 15-58 33.5 4 2.3 54-31.2v-4.6zm46 241.3 4 2.3v-97l-4 2.3v92.4zm-127 105.7 4-2.3V1531l-4-2.3v82zm13-229.2 4-2.3v-62.4l-4-2.3v67zm-13 7.5 4-2.3v-77.4l-4-2.3v82zm37-9.8 54 31.1 4-2.3-58-33.5v4.7zm44-145.5-84 48.5 4 2.3 80-46.2v-4.6zm0 458.4-71 41 4 2.3 67-38.7v-4.6zm20-202.1 4 2.3v-67l-4 2.4v62.3zm-114 128.2 4-2.3v-92.4l-4-2.3v97zm87-101.1 71 41v-4.6l-67-38.7-4 2.3zm7-76.7-97 56 4 2.3 93-53.7v-4.6zm-20 84.2 84 48.5v-4.6l-80-46.2-4 2.3zm-24-180.1v4.6l80 46.2 4-2.3-84-48.5zm0 15v4.6l67 38.7 4-2.3-71-41zM987 0h-4v56.4l4 2.4V0zM791 1497.5l4 2.3v-82l-4 2.3v77.4zm39-1208.4v122.4l2 1.2 2-1.2V289.1l-2-1.1-2 1.1zm-13 1337.7v107.4l4 2.3v-112l-4 2.3zM733.2 0 820 50.1l2-1.2v-2.3L741.2 0h-8zM830 954.2v122.4l2 1.2 2-1.2V954.2l-2-1.1-2 1.1zm0-886.8v122.4l2 1.2 2-1.2V67.4l-2-1.1-2 1.1zM759.2 0 822 36.2v-4.6L767.2 0h-8zM830 1175.9v122.4l2 1.2 2-1.2v-122.4l-2-1.1-2 1.1zM785.2 0 822 21.2v-4.6L793.2 0h-8zm26 0L822 6.2V1.6L819.2 0h-8zM830 732.5v122.4l2 1.2 2-1.2V732.5l-2-1.1-2 1.1zm27-674.9 93-53.7V0h-1.2L853 55.3l4 2.3zM896.8 0 842 31.6v4.6L904.8 0h-8zm34 0h-8L842 46.6v2.3l2 1.2L930.8 0zM974 0h-4v48.9l4 2.3V0zM830 1619.3v122.4l2 1.2 2-1.2v-122.4l-2-1.1-2 1.1zM870.8 0 842 16.6v4.6L878.8 0h-8zM830 1397.6V1520l2 1.2 2-1.2v-122.4l-2-1.1-2 1.1zM844.8 0 842 1.6v4.6L852.8 0h-8zM830 510.8v122.4l2 1.2 2-1.2V510.8l-2-1.1-2 1.1zm-66 333.7 58 33.5v-4.6l-54-31.2-4 2.3zm0 221.7 58 33.5v-4.6l-54-31.2-4 2.3zM817 740v107.4l4 2.3v-112l-4 2.3zm-53 547.9 58 33.5v-4.6l-54-31.2-4 2.3zm53-326.2v107.4l4 2.3v-112l-4 2.3zm0 221.7v107.4l4 2.3v-112l-4 2.3zm0 221.7v107.4l4 2.3v-112l-4 2.3zm-53 326.2 58 33.5v-4.6l-54-31.2-4 2.3zm0-221.7 58 33.5v-4.6l-54-31.2-4 2.3zM817 74.9v107.4l4 2.3v-112l-4 2.3zm0 443.4v107.4l4 2.3V516l-4 2.3zm-53-338.9 58 33.5v-4.6l-54-31.2-4 2.3zM704 66.3l-54 31.1v4.7l58-33.5-4-2.3zm13 7.5-67 38.6v4.7l71-41-4-2.3zm87 101 4 2.3v-97l-4 2.3v92.4zm-40 448 58 33.5v-4.6l-54-31.2-4 2.3zm53-326.2V404l4 2.3v-112l-4 2.3zm-53 104.5 58 33.5V430l-54-31.2-4 2.3zM522 775.2v4.7l93 53.7 4-2.3-97-56.1zm24-26.5 84 48.5v-4.6l-80-46.2-4 2.3zm0-221.7 84 48.5v-4.6l-80-46.2-4 2.3zm-24 235.5v2.4l106 61.2 2-1.2v-2.3l-106-61.2-2 1.1zm37-21.3 71 41v-4.6l-67-38.7-4 2.3zm66-112v107.4l4 2.3v-112l-4 2.3zm-103-88.4v2.4l106 61.2 2-1.2v-2.3l-106-61.2-2 1.1zm50 192.9 58 33.5v-4.7l-54-31.1-4 2.3zm-39-199.2 97 56v-4.6l-93-53.7-4 2.3zm92 316.4v107.4l4 2.3v-112l-4 2.3zm-92-94.7 97 56v-4.6l-93-53.7-4 2.3zm39 420.9 58 33.5v-4.6l-54-31.2-4 2.3zm53-104.5V1180l4 2.3v-112l-4 2.3zm-53-117.2 58 33.5v-4.7l-54-31.1-4 2.3zm-26 236.7 84 48.5v-4.6l-80-46.2-4 2.3zm13-7.5 71 41v-4.6l-67-38.7-4 2.3zm-13-214.2 84 48.5v-4.6l-80-46.2-4 2.3zm13-7.5 71 41v-4.6l-67-38.7-4 2.3zm-37 21.3v2.4l106 61.2 2-1.2v-2.3l-106-61.2-2 1.1zm11 215.4 97 56v-4.6l-93-53.7-4 2.3zm0-221.7 97 56v-4.6l-93-53.7-4 2.3zm26-901.8 71 41v-4.7l-67-38.6-4 2.3zm-13 7.5 84 48.5v-4.6l-80-46.2-4 2.3zm26-15 58 33.5v-4.7l-54-31.1-4 2.3zm-39 22.5 97 56v-4.6l-93-53.7-4 2.3zM629 0h-4v71.5l4 2.3V0zm-26 0h-4v56.4l4 2.4V0zm-81 97.4v2.3l106 61.2 2-1.1v-2.3L524 96.3l-2 1.1zM590 0h-4v48.9l4 2.3V0zm26 0h-4v63.9l4 2.4V0zm-83 312.8 97 56v-4.6l-93-53.7-4 2.3zm92 94.7v107.4l4 2.3v-112l-4 2.3zm-103-88.4v2.3l106 61.2 2-1.1v-2.3L524 318l-2 1.1zm103-133.3v107.4l4 2.3v-112l-4 2.3zM572 512l58 33.5v-4.7l-54-31.1-4 2.3zm-13 7.5 71 41v-4.6l-67-38.7-4 2.3zm-13-214.2 84 48.5v-4.6L550 303l-4 2.3zm26-15 58 33.5v-4.7L576 288l-4 2.3zm-13 7.5 71 41v-4.6l-67-38.7-4 2.3zm7 1479.7v-4.6l-97 56 4 2.3 93-53.7zm0-181.3-58 33.5 4 2.3 54-31.1v-4.7zm0-30-84 48.5 4 2.3 80-46.2v-4.6zm0 15-71 41 4 2.3 67-38.7v-4.6zm-44 130.5 54 31.2 4-2.3-58-33.5v4.6zm29 39.8-93 53.7v4.7l97-56-4-2.4zm15-200.3-97 56 4 2.3 93-53.7v-4.6zm0 211.3v-2.3l-2-1.1-106 61.2v2.3l2 1.1 106-61.2zM473 57.6l93-53.7V0h-1.2L469 55.3l4 2.3zM538 1744l-80 46.2v4.7l84-48.5-4-2.4zm61 86.1 4 2.3v-82l-4 2.3v77.4zm-13-7.5 4 2.3v-67l-4 2.3v62.4zm-64-130.5v4.6l67 38.7 4-2.3-71-41zm44 100.4v-4.6l-84 48.5 4 2.3 80-46.2zm-54-63.5-54 31.2v4.6l58-33.5-4-2.3zm-14-15 4-2.3v-62.3l-4-2.4v67zm-39 22.5 4-2.3v-107.4l-4-2.3v112zm26-15 4-2.3v-77.3l-4-2.4v82zm40 15-67 38.7v4.6l71-41-4-2.3zm-53-7.5 4-2.3v-92.4l-4-2.3v97zm74-315.2 84 48.5v-4.6l-80-46.2-4 2.3zm-24 13.9v2.3l106 61.2 2-1.2v-2.3l-106-61.2-2 1.2zm103 88.3v107.4l4 2.3v-112l-4 2.3zm-92-94.7 97 56v-4.6l-93-53.7-4 2.3zm39 199.2 58 33.5v-4.6l-54-31.2-4 2.3zm-13-214.2 71 41v-4.6l-67-38.7-4 2.3zm66-112v107.4l4 2.3v-112l-4 2.3zm-53 104.5 58 33.5v-4.6l-54-31.2-4 2.3zM522 1206v2.3l106 61.2 2-1.2v-2.3l-106-61.2-2 1.2zm37 422 71 41v-4.6l-67-38.7-4 2.3zm-26 15 97 56v-4.6l-93-53.7-4 2.3zm13-7.5 84 48.5v-4.6l-80-46.2-4 2.3zm13 214.2 71 41v-4.6l-67-38.7-4 2.3zm-13 7.5 84 48.5v-4.6l-80-46.2-4 2.3zm20-39.3-58 33.5 4 2.3 54-31.1v-4.7zm6 24.3 58 33.5v-4.6l-54-31.2-4 2.3zm53-104.5v107.4l4 2.3v-112l-4 2.3zm-59 69.9v-4.7l-71 41 4 2.3 67-38.6zm-44-158.2v2.3l106 61.2 2-1.2v-2.3l-106-61.2-2 1.2zm-155-132.3 71 41v-4.6l-67-38.7-4 2.3zm7-46.7-71 41 4 2.3 67-38.7v-4.6zm0 15-58 33.5 4 2.3 54-31.2v-4.6zm-44 65.8v4.6l93 53.7 4-2.3-97-56zm-24 52 4-2.3v-62.4l-4-2.3v67zm-13 7.5 4-2.3V1531l-4-2.3v82zm-13 7.5 4-2.3v-92.4l-4-2.3v97zm94-177.8-97 56 4 2.3 93-53.7v-4.6zm0 15-84 48.5 4 2.3 80-46.2v-4.6zm46 271.3 4 2.3v-97l-4 2.3v92.4zm-66 19.7 84 48.5v-4.7l-80-46.2-4 2.4zm-24-145.5 54 31.1 4-2.3-58-33.5v4.7zm37 137.9 71 41v-4.6l-67-38.7-4 2.3zm7-27.1v-4.6l-58 33.5 4 2.3 54-31.2zm-94 128.2 4-2.3v-92.4l-4-2.3v97zm74-315.3 84 48.5v-4.6l-80-46.2-4 2.3zm40 187.1 4 2.3v-67l-4 2.4v62.3zm-64-145.5v4.6l80 46.2 4-2.3-84-48.5zm0 15v4.6l67 38.7 4-2.3-71-41zm77 138 4 2.3v-82l-4 2.4v77.3zm-77-374.7v4.6l80 46.2 4-2.3-84-48.5zm44-110.8-84 48.5 4 2.3 80-46.2v-4.6zM293 1389l4-2.3v-77.4l-4-2.3v82zm81-140.3-71 41 4 2.3 67-38.7v-4.6zm0-30-97 56 4 2.3 93-53.7v-4.6zm148 458.4v4.6l80 46.2 4-2.3-84-48.5zm-192-554.3v4.6l80 46.2 4-2.3-84-48.5zm-50 273.7 4-2.3v-92.4l-4-2.3v97zm87-101.1 71 41v-4.6l-67-38.7-4 2.3zm-13 7.5 84 48.5v-4.6l-80-46.2-4 2.3zm-48 78.6 4-2.3v-62.4l-4-2.3v67zm24-22v4.6l67 38.7 4-2.3-71-41zm77 138 4 2.3v-82l-4 2.3v77.4zm-13-7.5 4 2.3v-67l-4 2.4v62.3zm-20 172.1-97 56 4 2.3 93-53.7v-4.6zm-44-332.6v4.6l93 53.7 4-2.3-97-56zm44-65.8-58 33.5 4 2.3 54-31.2v-4.6zm-44 115.5 54 31.1 4-2.3-58-33.5v4.7zm90 125.8 4 2.3v-97l-4 2.3v92.4zm26-772.5v122.4l2 1.2 2-1.2V732.5l-2-1.1-2 1.1zM427.2 0 438 6.2V1.6L435.2 0h-8zm-26 0L438 21.2v-4.6L409.2 0h-8zM446 67.4v122.4l2 1.2 2-1.2V67.4l-2-1.1-2 1.1zM375.2 0 438 36.2v-4.6L383.2 0h-8zM320 66.3l-54 31.1v4.7l58-33.5-4-2.3zm60 113.1 58 33.5v-4.6l-54-31.2-4 2.3zm66 109.7v122.4l2 1.2 2-1.2V289.1l-2-1.1-2 1.1zM349.2 0 436 50.1l2-1.2v-2.3L357.2 0h-8zM333 73.8l-67 38.6v4.7l71-41-4-2.3zM486.8 0 458 16.6v4.6L494.8 0h-8zM420 174.8l4 2.3v-97l-4 2.3v92.4zm26 1222.8V1520l2 1.2 2-1.2v-122.4l-2-1.1-2 1.1zm0-886.8v122.4l2 1.2 2-1.2V510.8l-2-1.1-2 1.1zM512.8 0 458 31.6v4.6L520.8 0h-8zM950 1540.8v-2.3l-2-1.1-106 61.2v2.3l2 1.1 106-61.2zm-504 78.5v122.4l2 1.2 2-1.2v-122.4l-2-1.1-2 1.1zM546.8 0h-8L458 46.6v2.3l2 1.2L546.8 0zM446 954.2v122.4l2 1.2 2-1.2V954.2l-2-1.1-2 1.1zm0 221.7v122.4l2 1.2 2-1.2v-122.4l-2-1.1-2 1.1zm-13 450.9v107.4l4 2.3v-112l-4 2.3zm-53-338.9 58 33.5v-4.6l-54-31.2-4 2.3zm0 443.4 58 33.5v-4.6l-54-31.2-4 2.3zm53-326.2v107.4l4 2.3v-112l-4 2.3zm0-221.7v107.4l4 2.3v-112l-4 2.3zm-53 326.2 58 33.5v-4.6l-54-31.2-4 2.3zm-87 322.8 4-2.3v-77.4l-4-2.3v82zm81-155.3-84 48.5 4 2.3 80-46.2v-4.6zm-68 147.8 4-2.3v-62.4l-4-2.3v67zm68-132.8-71 41 4 2.3 67-38.7v-4.6zm6-1069.3 58 33.5v-4.6l-54-31.2-4 2.3zm53-326.2V404l4 2.3v-112l-4 2.3zm0 665.1v107.4l4 2.3v-112l-4 2.3zm0-886.8v107.4l4 2.3v-112l-4 2.3zm-53 326.2 58 33.5V430l-54-31.2-4 2.3zm53 117.2v107.4l4 2.3V516l-4 2.3zm-53 547.9 58 33.5v-4.6l-54-31.2-4 2.3zm0-221.7 58 33.5v-4.6l-54-31.2-4 2.3zM433 740v107.4l4 2.3v-112l-4 2.3zm89 508.7v4.6l67 38.7 4-2.3-71-41zM566 236l-84 48.5 4 2.3 80-46.2V236zm0 196.3V430l-2-1.2L458 490v2.3l2 1.2 106-61.2zm-44 121.2v4.7l93 53.7 4-2.4-97-56zM566 221l-97 56 4 2.3 93-53.7V221zm20 493 4 2.4v-67l-4 2.3V714zm26 15.1 4 2.3v-97l-4 2.3v92.4zm-13-7.5 4 2.3v-82l-4 2.3v77.4zm-77-138v4.6l67 38.7 4-2.3-71-41zm0-15v4.6l80 46.2 4-2.3-84-48.5zm29-147.3L458 475v4.6l97-56-4-2.3zm-39-22.5L458 430v4.6l58-33.5-4-2.3zm-40 0 4-2.3v-92.4l-4-2.3v97zm26-15 4-2.3v-62.4l-4-2.3v67zm-39 22.5 4-2.3V296.6l-4-2.3v112zm63-24.8 54 31.2 4-2.3-58-33.5v4.6zM566 266l-58 33.5 4 2.3 54-31.2V266zm-41 140.3L458 445v4.6l71-41-4-2.3zM566 251l-71 41 4 2.3 67-38.7V251zm-28 162.8L458 460v4.6l84-48.5-4-2.3zm-53-22.5 4-2.3v-77.4l-4-2.3v82zM551 643l-93 53.7v4.6l97-56-4-2.3zm15 11v-2.3l-2-1.2-106 61.2v2.3l2 1.2L566 654zm0-211.3-97 56 4 2.3 93-53.7v-4.6zm0 15-84 48.5 4 2.3 80-46.2v-4.6zm46 493.1 4 2.3v-97l-4 2.3v92.4zm-90-160.5v4.6l80 46.2 4-2.3-84-48.5zm77 153 4 2.3v-82l-4 2.3v77.4zm-33-470.6-71 41 4 2.3 67-38.7v-4.6zm-159 803.1 4 2.3v-82l-4 2.3v77.4zM485 613l4-2.3v-77.4l-4-2.3v82zm13-7.5 4-2.3v-62.4l-4-2.3v67zm-26 15 4-2.3v-92.4l-4-2.3v97zm40 0-54 31.2v4.6l58-33.5-4-2.3zm54-132.8-58 33.5 4 2.3 54-31.2v-4.6zM459 628l4-2.3V518.3l-4-2.3v112zm63-24.8 54 31.2 4-2.3-58-33.5v4.6zm16 32.3-80 46.2v4.6l84-48.5-4-2.3zm-13-7.5-67 38.7v4.6l71-41-4-2.3zm87-342.3 4 2.3v-97l-4 2.3v92.4zM512 177.1l-54 31.2v4.6l58-33.5-4-2.3zm126 1.2v122.4l2 1.1 2-1.1V178.3l-2-1.2-2 1.2zm0 443.4v122.4l2 1.1 2-1.1V621.7l-2-1.2-2 1.2zm0-221.7v122.4l2 1.1 2-1.1V400l-2-1.2-2 1.2zm0-321 2 1.1 2-1.1V0h-4v79zm-116 31.1v4.7l93 53.7 4-2.4-97-56zm-63 74.5 4-2.3V74.9l-4-2.3v112zm63 620.7v4.6l67 38.7 4-2.3-71-41zm-50-628.2 4-2.3V82.4l-4-2.3v97zm114 315.2 4 2.4v-67l-4 2.3v62.3zM668 0h-4v66.3l4-2.4V0zm13 0h-4v58.8l4-2.4V0zm-26 0h-4v73.8l4-2.3V0zm39 0h-4v51.2l4-2.3V0zm-56 843.4v122.4l2 1.1 2-1.1V843.4l-2-1.2-2 1.2zm0 665.1v122.4l2 1.1 2-1.1v-122.4l-2-1.2-2 1.2zm0-443.4v122.4l2 1.1 2-1.1v-122.4l-2-1.2-2 1.2zm-116-940v4.7l80 46.2 4-2.4-84-48.5zm116 1605.1v122.4l2 1.1 2-1.1v-122.4l-2-1.2-2 1.2zm0-443.4v122.4l2 1.1 2-1.1v-122.4l-2-1.2-2 1.2zM566 210.6v-2.3l-2-1.2-106 61.2v2.3l2 1.2 106-61.2zm-44 121.2v4.7l93 53.7 4-2.4-97-56zm29-132.2-93 53.7v4.6l97-56-4-2.3zm-13-7.5-80 46.2v4.6l84-48.5-4-2.3zm74 315.3 4 2.3v-97l-4 2.3v92.4zm0 1330.2 4 2.3v-97l-4 2.3v92.4zM599 499.9l4 2.3v-82l-4 2.3v77.4zm-74-315.3-67 38.7v4.6l71-41-4-2.3zm-3 162.3v4.6l80 46.2 4-2.3-84-48.5zm0 15v4.6l67 38.7 4-2.3-71-41zm64-91.3 4 2.4v-67l-4 2.3v62.3zM566 44.3l-58 33.5 4 2.3 54-31.2v-4.6zm-44 115.5 54 31.2 4-2.3-58-33.5v4.6zm0-19.6v4.6l67 38.7 4-2.3-71-41zm44-110.9-71 41 4 2.3 67-38.7v-4.6zm-81 140.3 4-2.3V89.9l-4-2.3v82zm81-155.3-84 48.5 4 2.3 80-46.2v-4.6zm-68 147.8 4-2.3V97.4l-4-2.3v67zm101 116 4 2.4v-82l-4 2.3v77.3zm-33 844.7-84 48.5 4 2.3 80-46.2v-4.6zm0 15-71 41 4 2.3 67-38.7v-4.6zm0 15-58 33.5 4 2.3 54-31.1v-4.7zm0-45-97 56 4 2.3 93-53.7v-4.6zm-44 160.5 54 31.2 4-2.3-58-33.5v4.6zm0 172.1v4.6l93 53.7 4-2.3-97-56zm29-132.3-93 53.7v4.7l97-56-4-2.4zm48 78.6 4 2.3v-82l-4 2.3v77.4zm-13-450.9 4 2.3v-67l-4 2.3v62.4zM811 55.3 715.2 0H714v3.9l93 53.7 4-2.3zM512 1285.6l-54 31.2v4.6l58-33.5-4-2.3zm-53 7.5 4-2.3v-107.4l-4-2.3v112zm127 86.1 4 2.3v-67l-4 2.3v62.4zm-64 76.2v4.6l80 46.2 4-2.3-84-48.5zm-37-177.3 4-2.3v-77.4l-4-2.3v82zm13-7.5 4-2.3V1206l-4-2.4v67zm27 22.5-67 38.7v4.6l71-41-4-2.3zm13 7.5-80 46.2v4.6l84-48.5-4-2.3zm-66-15 4-2.3v-92.4l-4-2.3v97zm140 330.3 4 2.3v-97l-4 2.3v92.4zm-46-256.4-71 41 4 2.3 67-38.7v-4.6zm0-15-84 48.5 4 2.3 80-46.2v-4.6zm0 30-58 33.5 4 2.3 54-31.1v-4.7zm-28 147.8-80 46.2v4.6l84-48.5-4-2.3zm-16-32.3 54 31.2 4-2.3-58-33.5v4.6zm44-160.5-97 56 4 2.3 93-53.7v-4.6zm0 211.3v-2.3l-2-1.1-106 61.2v2.3l2 1.1 106-61.2zm-44 121.3v4.6l93 53.7 4-2.3-97-56zm29-132.3-93 53.7v4.7l97-56-4-2.4zm-79-22.5 4-2.3v-92.4l-4-2.3v97zm-13 7.5 4-2.3v-107.4l-4-2.3v112zm127 86.1 4 2.3v-67l-4 2.3v62.4zm-61-86.1-67 38.7v4.6l71-41-4-2.3zm-3-44.4v4.6l67 38.7 4-2.3-71-41zm-10 36.9-54 31.2v4.6l58-33.5-4-2.3zm-14-15 4-2.3v-62.3l-4-2.4v67zm101 116.1 4 2.3v-82l-4 2.3v77.4zm-114-108.6 4-2.3v-77.4l-4-2.3v82zm81-180.7v-2.3l-2-1.2-106 61.2v2.4l2 1.1 106-61.2zm0-639.7-84 48.5 4 2.3 80-46.2v-4.6zm0-15-97 56 4 2.3 93-53.7v-4.6zm0 30-71 41 4 2.3 67-38.7v-4.6zm-15 170.3-93 53.7v4.6l97-56-4-2.3zm15-155.3-58 33.5 4 2.3 54-31.2v-4.6zM522 1012v4.6l80 46.2 4-2.3-84-48.5zm90 160.5 4 2.3v-97l-4 2.3v92.4zm-46-296.8v-2.3l-2-1.2-106 61.2v2.4l2 1.1 106-61.2zM522 997v4.6l93 53.7 4-2.3-97-56zm-37-162.3 4-2.3V755l-4-2.3v82zm-13 7.5 4-2.3v-92.4l-4-2.3v97zm-13 7.5 4-2.3V740l-4-2.3v112zM599 1165l4 2.3v-82l-4 2.3v77.4zm-87-322.8-54 31.2v4.6l58-33.5-4-2.3zm10 391.5v4.6l80 46.2 4-2.3-84-48.5zm16-376.5-80 46.2v4.6l84-48.5-4-2.3zm-13-7.5-67 38.7v4.6l71-41-4-2.3zm-3-24.8 54 31.2 4-2.3-58-33.5v4.6zm-24 2.3 4-2.3v-62.4l-4-2.3v67zm68 88.9-71 41 4 2.3 67-38.7v-4.6zm0-15-84 48.5 4 2.3 80-46.2v-4.6zm0 30-58 33.5 4 2.3 54-31.1v-4.7zm0-45-97 56 4 2.3 93-53.7v-4.6zm46 508.1 4 2.3v-97l-4 2.3v92.4zm-61-307.8-93 53.7v4.7l97-56.1-4-2.3zm-29-39.8 54 31.2 4-2.3-58-33.5v4.6zm0 172.1v4.6l93 53.7 4-2.3-97-56zm44-121.3v-2.3l-2-1.2-106 61.2v2.4l2 1.1 106-61.2zm-28-18.5-80 46.2v4.6l84-48.5-4-2.3zm-79-7.5 4-2.3V961.7l-4-2.3v112zm53-7.5-54 31.2v4.6l58-33.5-4-2.3zm74 93.6 4 2.3v-67l-4 2.3v62.4zM522 1027v4.6l67 38.7 4-2.3-71-41zm-50 36.9 4-2.3v-92.4l-4-2.3v97zm13-7.5 4-2.3v-77.4l-4-2.3v82zm40 15-67 38.7v4.6l71-41-4-2.3zm-27-22.5 4-2.3v-62.4l-4-2.3v67z" fill="#80cbc4"/></svg>