<svg xmlns="http://www.w3.org/2000/svg" viewBox="0 0 1920 1920" xml:space="preserve"><style>.st1{fill:#989898}</style><path fill="#445a76" d="M0 0h1920v1920H0z"/><path d="m768 1074-359 85m1458-248-115 74m-656 283-4 18M82 26l-8 95m1674 693-153 366m-307-598-14-513m-10 1472-106 63m-797-253-50 74M257 81l-99-32m786 1463-47-1M384 648l-35 82m1010 607-47 86m135-1211-25 18M993 1720l-41-70m915-739-157-443m-335-280L1274 69M816 297l-22-3m466 1218-102 92m368-591-34-19M315 357l-20-33M183 1759 28 1591m241 228-25-18m972-467-272 178m943-958-277-360m-136 1331-38 42m-937 209-74 1m166-939-28-80m832 1050-94-36m-602-1-37 85M866 805l-84-18m24-158-22 21m1033-230-353-236m-323 468-20-22m555-11-27-35M1439 44l-498 80m498-80-121 86M627 846l-259 171m428 843-134-4m949-800-85-43M941 124 834 81M276 1240l-16-16m1540-496-62 39m-1087-6-24 85m-169 198L349 730m-80 1089-86-60m1684-334-12-175M425 1777l-64 35m1342-179-58 32m-934-243-40-46m940-320-5-80M567 1752l-68 24M784 387l-157-2m-38 1264-34-62m-130 190-22-8m915-1639-44-61M291 1150l-50-50m741 280v-93m737-1000-26 92M843 1707l-329-237m1271 431-12-136M349 730l-41 27m833-105L887 387m-71-90-32 90m15-68-5-25M134 830l-71-28m1630-423-77 54m-62 299-102 1m193 932-39-74m-227-178-67 10m-136-18-19-60m396-1048-123 10M555 1587l-31 79M1887 554l-155-49m-285-293-17 95M680 1392l-9-16m-302 359-65-121m752-926-92 60M794 294l-8-63m-495 919-31 74m560-37-32-64m512-273-21-83m-183 501-305 130m-273-286-60-68M834 81 627 385m614-14L973 653m-499 351-90-314m1503-136-70-134m-791 1413-129-322m709 66-218-347M390 737l-6-89m1139-159-63 57m220-386-70 34M128 587l-97-93m1264 1269-351-251m-1 19-46-20m835-1006-83 79m-349 266-23 11M275 98l-18-17m46 955-47 3m1149 241-86 2m291-1088-57 103m-465 1483-62 53m734-415-441-136M898 404l-36 46M366 1898l-5-86M866 805l-46 382M1868 124l-67 75m-415 639-112-7m5-64-5 64M139 1191l-94 386m1256 195-11 81m237-564-1-129M279 87l-4 11m376 663-7-37m-55 925-228-298M168 478l-40 109m157 584-8-67m113-367-82 20m674 623-49-104m877 87-147 17m85-566-10-47m-474 732v42M942 610l-21 121m-159-76-72-59m905 584-69-20M563 758l-28 2M84 282 74 121m742 176-17 22m62 1290-458 160M1732 505l-285-293m-8-168-134 81M806 629l-44 26M101 394 84 282m1180 1259-4-29m-975-341-25 53m296-927-455 97m21 674-59-4m1426 619-53-116M651 761l-38-67m360-41-52 78m742 649-8 10M474 1004l-55-69m541-632-73 84m762 197-95 329M147 1297l-8-106m1234-661-194 298M279 87l-25 61m61 209-64-33m533 326-22 5m103-121L556 297m1339 1544-192-208M618 199l-62 98m232 826-20-49m677-665-15-102m-55-119-57-58m245 1095-36 64m-938 360-22 103M960 303l-394 15m839 962-52-98m-573 190-21 32m-599 473-21-686m194 653-89-43m436-409-16 17M406 61 279 87m276 1500-41-117m-298 20-77-409m1728-170-218-327m-276-54-85 52m-423-48-56 38m0 0-25 78m408 299-13-121m-738 801-413-38M763 173l-50-66m1047 1311-105-28m182-578-89 2M799 319l-15 68m59 1320-129-75m-410-18-44-390M1801 199l-483-69m-182 1694-110 9m-165-224-147 23m-289 145-56-42M960 303l-26-126m162 1091-6-17M928 890l-62-85m86 845-109 57M794 294 490 587m985-158-30-20M762 655l-98-98M1826 77l-126 599M216 1490 28 1591m1236-50-320-29m-805-431-17-13m1779-903-33-41m-859 1092-27 71m624-311-374-64m635-1-30-99M782 787l-117-55m279 780-282 344m-418-55-84 76M45 1577l-17 14m797-513-5 109m575 621-100-45m228-1274-78-80M277 1104l-36-4m785 733-312-201M84 282l-17 44m84 901-12-36m1415-278-62 81M355 356l-40 1m926 14-425-74M664 1409l-147-325m747 415-4 13m-480-140-69 50m151-972-80 337M490 587l-84-120m682 1313-95-60m148-1068-335-23m-24 158-7 117m41-607-30-66M524 1666l-83-37M67 326 31 494m683 1138-125 17m24-955-50 64M183 1759 45 1577m1308-395-34 100m208 7-59 94m270-616-38-91m195 1165-235-680M147 1297l-104-25m615-227-106 98m-401 84-37-61m1007-536-65 58m136 261-26 26m440 616-117 92m-825-274-146-297m1243-82-25 13M308 757 84 282m1648 223-22-37M556 297l-9-57m874 1127-42 46M865 534l-3-84M295 324h-44m-112 867-96 81m1667-804-17-89m-536 966-61-77m263 69-201 267m-648-468-101 23m488 352-61-378m-68-59-110-29m1102 373-97-38m-174 303-170-401m548 143-107-7M775 904l-317 140m928-206-86 12m601-685-100 34M964 748l-36 142M441 1894l-75 4M786 231l-23-58m843 803-332-145m550 413-179 421m226-534-16 119M182 81l-24-32m117 49-16 93m1558 229-107 48m-812-64-11-17m126-336-72 73M796 1860l-28 19m843-823-57-324M809 572l-3 57m706 280-20 85M921 731l-96 347M137 936l-3-106m1148-486-103 1m67 745-80-115m-652 495-73 159m-197 172-93-574m710 382-18 98m-61-920L490 587m667 758-164 375m286-953-2 94m378 529-260 418m178-1021-98-358m174 155-83-36m-98 835-47-16M794 294l-10 93m968 598-16 58M168 478 31 494m1270 1278-357-260M627 385l-71-88m33 1352-65 17m692-332-59 11m-716 284-137-15M133 740l-47-5m1785 396-47 113m-1710-78-51-102m1183 26-23 139m-455-155-66 4M1013 51l-79 126m445 1236-255 220m-68-945-83-35M403 1769l-34-34m1010-322-20-76m536 504-122-76M768 1879l-69-108m596-8-5 90m-986-239-88-124m-83-750L82 26m743 1052-37 45M406 61 275 98m966 273-102 76m716 803-107-57m-103 472-66 193m81-697-49-105M887 387l-25 63m150 656-221 292m218 217-16 105m-157-587-11-55M627 846l-36-8m306 673-36 98M1826 77l-25 122M711 1422l-47-13m-525-218-25-25m1492-190-327-209m-821 277-90-27m334 61-44-33m6 364-150 61m1373-916-69 54M368 1017l-4-97m121-77-194 307m1510-951-1 529M151 1227l-17-397m55 140-67 98m1342-884-42 46m281 1403-97-42M690 596l-26-39m931 623-32 45M566 318l-19-78m676 989-22-25m365-656-43-59m0 0-48-60m88 796-37-65m-735 238-80 24m-270 207-72 106m-58-310-35-185M1680 160l-307 370m13 308-109 23m383 300-65 19m223-572-18 120m-336-544-89 4m386 842-69-98m-446 158-45 114m100 568-6-9M384 690l-35 40m435-80-21-477m701 11-17 28m-326 418L782 787m1089 344-123 62m-590 411-34 29M784 387 644 724m1104 469-88-32m-196-977-25-140M618 199l-52 119m909 111-15 117m-516 966-1 19m334-670-3-30m597 300-450 236M303 1036l-26 68m367-380-31-30m-66-454L182 81m529 1341-31-30m597-531-45 51M934 177 806 629m748 284-42-4m-154 912-57-49M1057 172l-44-121M627 846l-64-88m430 962-1-71M834 81l-71 92m917-13-28 15m-73 1683-52-569M291 1150l-15 90m1472-426-362 24m414-110-52 86m-527 505-5 15m-234-47-49-11m-68-742L618 199M137 936l-15 132m61 691-23 118m1446-901-52-63m-338 421-47 62m119-814-167 48m528-46-55 65m-235 688-40-55m417-239-44-111m-1291-9-37-3m42-859L257 81m12 1738-109 58M101 394l-34-68m1286 856-89 317m553-1079-395-190m-281 422-85 36m-504 455-34-31m770-530-96 367m40-37-66 63m-692 29-16 40m1121 814-90-175m156-18-39-88m0 0-132-52M147 1297l-10-361m804-812-7 53m967-12-75-88M665 732l-52-38m223 439-48-10m680 260-89 30m194-626-19-55m-462 554-2-35m174 290v-42M419 935l-18-12m775 482-7-9M275 98l-21 50m1168 82-47-42m301 431-246-312m-25 973-46 57m508-426-119-97M834 81l-121 26m-48 625-21-8m165-152-145-15m757 810-62-30m36 471-37 13m-791-69-43-86M259 191l-5-43m1398 27-42 19m-389 1125-20-115m-410 194-11-26m1115 469-110 60M361 1351l-58-315m214 48-7 52m1200-668-288-238m-265 1115-205 305m35-265-5-98m-831-60-108 45m966 343-17 34m-475-565-43-80m89-246L406 467m353 937-48 18M355 356l-47 401M86 735l-23 67m1637-126-24-57M368 1017l-65 19m-66-550-69-8m805 175-31-43m358 240-26-19m-265 385-298 206m677-192-69 52m-310 333-57 35M355 356l-104-32m1128 1089-289-162m504-602-40 83M517 1084l-59-40m207-312-14 29m841 233-173 288m155 243-6-142m-38-1076-148 37M279 87l-22-6m1316 706-121-54m258-265-94-35M304 1614l-28-374m1006-896-41 27M780 1372l-122-327m772-738-8-77m-286 1594-48-44M898 404l-114-17m604 843-35-48M866 805l-91 99m831 687v-14m-248 244-63-58m150-1354-72 121M189 970l-52-34m872 679-65-103m829 253-70-132M1553 297l-106-85m-224 1017-7 105M101 394 31 494m324-138-60-32m1321 109-93 56m56 1369-184-50m-90-1683-31-56M836 1133l-16 54m237-1015-116-48m876 296-124-41m-375-249-13-5M768 1879l-106-23m-421-756L28 1591M1078 305l-118-2m181 349-12 94m-418 676-144 330m104-376-246 401M257 81h-75m1686 43-42-47m-603 1152-2 90M887 387H784m1103 167-364-65M566 318l-10-21m158 1335-15 139M390 737l-41-7m830-385-40 102m-130 769-76 60m891-32-76-51m-88-32-281 252m26-133-17-50m-889 546-96-7m909-346-48 76M627 385l-61-67m52-119-71 41m913 306-339 84m-880 470L45 1577m1043 203-426 76m1041-223-97-56M784 650l-94-54m770-50-87-16m494 895-57-62m-569-992-62-26M139 1081l-76-17m71-234-1-90m1356 943-94 125m-877-696-1-28m1 28-8 24m778-554-147 70m-586 935-114 42M794 294 279 87m87 1811-33-54M566 318l-499 8m1090 1019-65-59M960 303l-62 101m-107 994-92 373m-455 30-61-42m1590 6-368-485M256 1039l-15 61M279 87l-20 104m933 758L973 653m206 175-50-82m-990 335-25 85m1107 153-277 193m911-262-31-6M964 748l-43-17m311 181-40 37m-396 911-97-89M275 98l-93-17m984 894-184 312m376 534-68 32M591 838l-56-78m939 765-317-180m416-558-19 126M158 49 82 26m905 1359-5-5m147-634-73-58m768 556-14 119m-1130 29-376 222M690 596l-306 94m1354 77-45-388M992 1649l-40 1m849-1451-121-39m-623 12-123 5m-649 994-9 69M547 240 168 478m1438 498-80 37m-436 238-81-35m-698 209-67 376M490 587l-106 61m287 728-7 33m127-11-32 6M168 478l-67-84m1709 969-50 55M490 587l-53-93m505 116L794 294m127 437-55 74m146 301-3 110m597 361v14M291 1150l-6 21m26 254-95 65M1241 371l-354 16m55 223-77-76M403 1769l-42 43M1566 548l-106-2m401-254-60-93M384 648v42m1377 340-9-45M216 1490l-171 87m613-532-45-351M182 81 82 26m1139 1293-64 26M419 935l-55-15M133 740l-70 62m1798-510-61 436m-671 18-8-116m18-183-61-142M419 935l-51 82m-7 795-28 32M1719 287l-67-112M291 1150l-14-46m1540-684-85 85M928 890l-153 14m50 174-57-4M406 467l-56 64m71 691-12-63m564-506-9 95m873 64-37-84M256 1039l-67-69" fill="none" stroke="#989898"/><circle class="st1" cx="291" cy="1150" r="7"/><circle class="st1" cx="591" cy="838" r="7"/><circle class="st1" cx="1422" cy="230" r="5"/><circle class="st1" cx="86" cy="735" r="6"/><circle class="st1" cx="1300" cy="850" r="14"/><circle class="st1" cx="1090" cy="1251" r="5"/><circle class="st1" cx="788" cy="1123" r="7"/><circle class="st1" cx="1012" cy="1106" r="8"/><circle class="st1" cx="1801" cy="199" r="14"/><circle class="st1" cx="1474" cy="1525" r="10"/><circle class="st1" cx="768" cy="1879" r="13"/><circle class="st1" cx="552" cy="1143" r="11"/><circle class="st1" cx="134" cy="830" r="9"/><circle class="st1" cx="627" cy="846" r="12"/><circle class="st1" cx="1176" cy="1405" r="10"/><circle class="st1" cx="1288" cy="582" r="6"/><circle class="st1" cx="1738" cy="767" r="6"/><circle class="st1" cx="421" cy="1222" r="13"/><circle class="st1" cx="333" cy="1844" r="11"/><circle class="st1" cx="658" cy="1045" r="15"/><circle class="st1" cx="664" cy="1409" r="11"/><circle class="st1" cx="1489" cy="1683" r="8"/><circle class="st1" cx="987" cy="1385" r="13"/><circle class="st1" cx="490" cy="587" r="5"/><circle class="st1" cx="1078" cy="305" r="9"/><circle class="st1" cx="349" cy="730" r="12"/><circle class="st1" cx="260" cy="1224" r="13"/><circle class="st1" cx="441" cy="1629" r="13"/><circle class="st1" cx="566" cy="318" r="15"/><circle class="st1" cx="1760" cy="1418" r="15"/><circle class="st1" cx="1430" cy="307" r="12"/><circle class="st1" cx="147" cy="1297" r="7"/><circle class="st1" cx="1295" cy="1763" r="5"/><circle class="st1" cx="1439" cy="44" r="7"/><circle class="st1" cx="1301" cy="1772" r="6"/><circle class="st1" cx="524" cy="1666" r="7"/><circle class="st1" cx="1680" cy="160" r="14"/><circle class="st1" cx="589" cy="1649" r="15"/><circle class="st1" cx="892" cy="1897" r="10"/><circle class="st1" cx="1452" cy="733" r="5"/><circle class="st1" cx="369" cy="1735" r="15"/><circle class="st1" cx="1264" cy="1499" r="10"/><circle class="st1" cx="1611" cy="1056" r="15"/><circle class="st1" cx="1277" cy="861" r="12"/><circle class="st1" cx="1527" cy="1289" r="6"/><circle class="st1" cx="101" cy="394" r="5"/><circle class="st1" cx="651" cy="761" r="6"/><circle class="st1" cx="993" cy="1720" r="8"/><circle class="st1" cx="782" cy="787" r="12"/><circle class="st1" cx="1166" cy="975" r="13"/><circle class="st1" cx="1447" cy="212" r="5"/><circle class="st1" cx="1566" cy="548" r="11"/><circle class="st1" cx="1818" cy="608" r="15"/><circle class="st1" cx="1246" cy="1090" r="7"/><circle class="st1" cx="809" cy="572" r="9"/><circle class="st1" cx="1901" cy="165" r="15"/><circle class="st1" cx="437" cy="494" r="11"/><circle class="st1" cx="759" cy="1404" r="12"/><circle class="st1" cx="350" cy="531" r="7"/><circle class="st1" cx="1610" cy="194" r="14"/><circle class="st1" cx="1700" cy="676" r="5"/><circle class="st1" cx="618" cy="199" r="7"/><circle class="st1" cx="295" cy="324" r="9"/><circle class="st1" cx="1124" cy="1633" r="12"/><circle class="st1" cx="1436" cy="1567" r="8"/><circle class="st1" cx="982" cy="1380" r="12"/><circle class="st1" cx="973" cy="653" r="7"/><circle class="st1" cx="1009" cy="1216" r="9"/><circle class="st1" cx="943" cy="1531" r="14"/><circle class="st1" cx="151" cy="1227" r="12"/><circle class="st1" cx="285" cy="1171" r="15"/><circle class="st1" cx="366" cy="1898" r="9"/><circle class="st1" cx="535" cy="760" r="7"/><circle class="st1" cx="555" cy="1587" r="7"/><circle class="st1" cx="662" cy="1856" r="12"/><circle class="st1" cx="1492" cy="994" r="13"/><circle class="st1" cx="122" cy="1068" r="9"/><circle class="st1" cx="1660" cy="1161" r="14"/><circle class="st1" cx="1179" cy="345" r="5"/><circle class="st1" cx="786" cy="231" r="11"/><circle class="st1" cx="791" cy="1398" r="6"/><circle class="st1" cx="1282" cy="344" r="14"/><circle class="st1" cx="563" cy="758" r="5"/><circle class="st1" cx="1192" cy="949" r="11"/><circle class="st1" cx="1867" cy="911" r="12"/><circle class="st1" cx="139" cy="1081" r="13"/><circle class="st1" cx="763" cy="173" r="11"/><circle class="st1" cx="1241" cy="371" r="6"/><circle class="st1" cx="168" cy="478" r="6"/><circle class="st1" cx="1649" cy="584" r="14"/><circle class="st1" cx="671" cy="1376" r="12"/><circle class="st1" cx="1871" cy="1131" r="7"/><circle class="st1" cx="499" cy="1776" r="5"/><circle class="st1" cx="1748" cy="814" r="9"/><circle class="st1" cx="1223" cy="1229" r="15"/><circle class="st1" cx="1057" cy="172" r="10"/><circle class="st1" cx="1606" cy="1591" r="5"/><circle class="st1" cx="1179" cy="828" r="9"/><circle class="st1" cx="514" cy="1470" r="12"/><circle class="st1" cx="1523" cy="489" r="12"/><circle class="st1" cx="834" cy="81" r="14"/><circle class="st1" cx="1157" cy="1345" r="6"/><circle class="st1" cx="865" cy="534" r="11"/><circle class="st1" cx="1201" cy="1204" r="8"/><circle class="st1" cx="1121" cy="630" r="12"/><circle class="st1" cx="403" cy="1769" r="7"/><circle class="st1" cx="1026" cy="1833" r="12"/><circle class="st1" cx="627" cy="385" r="6"/><circle class="st1" cx="237" cy="486" r="6"/><circle class="st1" cx="762" cy="655" r="13"/><circle class="st1" cx="866" cy="805" r="9"/><circle class="st1" cx="474" cy="1004" r="9"/><circle class="st1" cx="74" cy="121" r="7"/><circle class="st1" cx="1719" cy="287" r="5"/><circle class="st1" cx="1375" cy="188" r="10"/><circle class="st1" cx="1169" cy="1396" r="7"/><circle class="st1" cx="887" cy="387" r="11"/><circle class="st1" cx="183" cy="1759" r="12"/><circle class="st1" cx="1867" cy="1425" r="15"/><circle class="st1" cx="960" cy="303" r="12"/><circle class="st1" cx="1573" cy="787" r="9"/><circle class="st1" cx="1655" cy="1390" r="12"/><circle class="st1" cx="1136" cy="1824" r="5"/><circle class="st1" cx="82" cy="26" r="10"/><circle class="st1" cx="952" cy="1650" r="11"/><circle class="st1" cx="699" cy="1771" r="9"/><circle class="st1" cx="384" cy="648" r="14"/><circle class="st1" cx="1645" cy="1665" r="7"/><circle class="st1" cx="1013" cy="51" r="8"/><circle class="st1" cx="944" cy="1512" r="10"/><circle class="st1" cx="1264" cy="1541" r="5"/><circle class="st1" cx="680" cy="1392" r="15"/><circle class="st1" cx="1388" cy="1230" r="14"/><circle class="st1" cx="713" cy="107" r="9"/><circle class="st1" cx="517" cy="1084" r="8"/><circle class="st1" cx="355" cy="356" r="8"/><circle class="st1" cx="1468" cy="1383" r="14"/><circle class="st1" cx="1761" cy="1030" r="5"/><circle class="st1" cx="1359" cy="1337" r="8"/><circle class="st1" cx="836" cy="1133" r="11"/><circle class="st1" cx="419" cy="935" r="14"/><circle class="st1" cx="277" cy="1104" r="6"/><circle class="st1" cx="308" cy="757" r="7"/><circle class="st1" cx="644" cy="724" r="15"/><circle class="st1" cx="368" cy="1017" r="9"/><circle class="st1" cx="1606" cy="1577" r="8"/><circle class="st1" cx="1676" cy="619" r="11"/><circle class="st1" cx="251" cy="324" r="7"/><circle class="st1" cx="1386" cy="838" r="9"/><circle class="st1" cx="1800" cy="728" r="12"/><circle class="st1" cx="861" cy="1609" r="5"/><circle class="st1" cx="820" cy="1187" r="5"/><circle class="st1" cx="714" cy="1632" r="5"/><circle class="st1" cx="137" cy="936" r="11"/><circle class="st1" cx="780" cy="1372" r="5"/><circle class="st1" cx="1260" cy="1512" r="12"/><circle class="st1" cx="84" cy="282" r="5"/><circle class="st1" cx="1460" cy="546" r="6"/><circle class="st1" cx="1092" cy="1286" r="5"/><circle class="st1" cx="1652" cy="175" r="11"/><circle class="st1" cx="1141" cy="652" r="7"/><circle class="st1" cx="401" cy="923" r="10"/><circle class="st1" cx="114" cy="1166" r="5"/><circle class="st1" cx="1810" cy="1363" r="9"/><circle class="st1" cx="1389" cy="959" r="9"/><circle class="st1" cx="1279" cy="767" r="7"/><circle class="st1" cx="862" cy="450" r="8"/><circle class="st1" cx="45" cy="1577" r="15"/><circle class="st1" cx="1009" cy="1615" r="12"/><circle class="st1" cx="933" cy="1276" r="12"/><circle class="st1" cx="799" cy="319" r="9"/><circle class="st1" cx="1693" cy="379" r="15"/><circle class="st1" cx="613" cy="694" r="7"/><circle class="st1" cx="518" cy="1112" r="5"/><circle class="st1" cx="1353" cy="1182" r="14"/><circle class="st1" cx="1563" cy="1225" r="15"/><circle class="st1" cx="43" cy="1272" r="7"/><circle class="st1" cx="133" cy="740" r="15"/><circle class="st1" cx="1579" cy="1858" r="7"/><circle class="st1" cx="1139" cy="447" r="5"/><circle class="st1" cx="1855" cy="1250" r="11"/><circle class="st1" cx="510" cy="1136" r="14"/><circle class="st1" cx="1732" cy="505" r="15"/><circle class="st1" cx="898" cy="404" r="5"/><circle class="st1" cx="458" cy="1044" r="12"/><circle class="st1" cx="664" cy="557" r="11"/><circle class="st1" cx="825" cy="1078" r="11"/><circle class="st1" cx="1616" cy="433" r="15"/><circle class="st1" cx="1096" cy="1268" r="13"/><circle class="st1" cx="1421" cy="1367" r="8"/><circle class="st1" cx="1526" cy="1160" r="12"/><circle class="st1" cx="63" cy="1064" r="12"/><circle class="st1" cx="702" cy="1078" r="8"/><circle class="st1" cx="254" cy="148" r="9"/><circle class="st1" cx="1526" cy="1013" r="11"/><circle class="st1" cx="665" cy="732" r="8"/><circle class="st1" cx="67" cy="326" r="10"/><circle class="st1" cx="182" cy="81" r="10"/><circle class="st1" cx="982" cy="1287" r="11"/><circle class="st1" cx="1379" cy="1413" r="12"/><circle class="st1" cx="897" cy="1511" r="10"/><circle class="st1" cx="784" cy="387" r="14"/><circle class="st1" cx="806" cy="629" r="6"/><circle class="st1" cx="1817" cy="420" r="6"/><circle class="st1" cx="406" cy="467" r="12"/><circle class="st1" cx="425" cy="1777" r="7"/><circle class="st1" cx="1445" cy="409" r="9"/><circle class="st1" cx="257" cy="81" r="6"/><circle class="st1" cx="784" cy="650" r="7"/><circle class="st1" cx="1554" cy="913" r="14"/><circle class="st1" cx="1358" cy="1821" r="15"/><circle class="st1" cx="567" cy="1752" r="11"/><circle class="st1" cx="1826" cy="77" r="11"/><circle class="st1" cx="1158" cy="1604" r="9"/><circle class="st1" cx="1752" cy="985" r="7"/><circle class="st1" cx="390" cy="737" r="5"/><circle class="st1" cx="1736" cy="1043" r="9"/><circle class="st1" cx="928" cy="890" r="7"/><circle class="st1" cx="28" cy="1591" r="5"/><circle class="st1" cx="921" cy="731" r="14"/><circle class="st1" cx="406" cy="61" r="11"/><circle class="st1" cx="1305" cy="125" r="14"/><circle class="st1" cx="259" cy="191" r="11"/><circle class="st1" cx="1088" cy="1780" r="12"/><circle class="st1" cx="311" cy="1425" r="15"/><circle class="st1" cx="1594" cy="649" r="13"/><circle class="st1" cx="1663" cy="1380" r="12"/><circle class="st1" cx="816" cy="297" r="14"/><circle class="st1" cx="139" cy="1191" r="15"/><circle class="st1" cx="1274" cy="831" r="11"/><circle class="st1" cx="1318" cy="130" r="14"/><circle class="st1" cx="547" cy="240" r="8"/><circle class="st1" cx="315" cy="357" r="9"/><circle class="st1" cx="189" cy="970" r="15"/><circle class="st1" cx="128" cy="587" r="7"/><circle class="st1" cx="269" cy="1819" r="8"/><circle class="st1" cx="409" cy="1159" r="13"/><circle class="st1" cx="1216" cy="1334" r="5"/><circle class="st1" cx="843" cy="1707" r="11"/><circle class="st1" cx="1887" cy="554" r="10"/><circle class="st1" cx="556" cy="297" r="12"/><circle class="st1" cx="1785" cy="1901" r="10"/><circle class="st1" cx="1692" cy="932" r="11"/><circle class="st1" cx="1319" cy="1282" r="5"/><circle class="st1" cx="244" cy="1801" r="7"/><circle class="st1" cx="992" cy="1649" r="9"/><circle class="st1" cx="1868" cy="124" r="14"/><circle class="st1" cx="1710" cy="468" r="9"/><circle class="st1" cx="1824" cy="1244" r="12"/><circle class="st1" cx="796" cy="1860" r="7"/><circle class="st1" cx="1703" cy="1633" r="8"/><circle class="st1" cx="964" cy="748" r="15"/><circle class="st1" cx="768" cy="1074" r="7"/><circle class="st1" cx="1553" cy="297" r="15"/><circle class="st1" cx="1221" cy="1319" r="8"/><circle class="st1" cx="1895" cy="1841" r="7"/><circle class="st1" cx="1290" cy="1853" r="8"/><circle class="st1" cx="304" cy="1614" r="7"/><circle class="st1" cx="158" cy="49" r="13"/><circle class="st1" cx="1554" cy="732" r="10"/><circle class="st1" cx="63" cy="802" r="7"/><circle class="st1" cx="1373" cy="530" r="6"/><circle class="st1" cx="241" cy="1100" r="13"/><circle class="st1" cx="1748" cy="1193" r="6"/><circle class="st1" cx="160" cy="1877" r="11"/><circle class="st1" cx="942" cy="610" r="13"/><circle class="st1" cx="934" cy="177" r="15"/><circle class="st1" cx="275" cy="98" r="10"/><circle class="st1" cx="364" cy="920" r="15"/><circle class="st1" cx="1312" cy="1423" r="12"/><circle class="st1" cx="1837" cy="812" r="7"/><circle class="st1" cx="384" cy="690" r="13"/><circle class="st1" cx="794" cy="294" r="12"/><circle class="st1" cx="485" cy="843" r="12"/><circle class="st1" cx="1274" cy="69" r="10"/><circle class="st1" cx="276" cy="1240" r="14"/><circle class="st1" cx="1861" cy="292" r="9"/><circle class="st1" cx="1129" cy="746" r="15"/><circle class="st1" cx="1595" cy="1180" r="6"/><circle class="st1" cx="1464" cy="184" r="11"/><circle class="st1" cx="1773" cy="1765" r="8"/><circle class="st1" cx="441" cy="1894" r="9"/><circle class="st1" cx="256" cy="1039" r="12"/><circle class="st1" cx="361" cy="1351" r="10"/><circle class="st1" cx="361" cy="1812" r="6"/><circle class="st1" cx="1232" cy="912" r="14"/><circle class="st1" cx="303" cy="1036" r="12"/><circle class="st1" cx="1395" cy="1808" r="12"/><circle class="st1" cx="216" cy="1490" r="9"/><circle class="st1" cx="775" cy="904" r="9"/><circle class="st1" cx="1606" cy="976" r="10"/><circle class="st1" cx="31" cy="494" r="5"/><circle class="st1" cx="279" cy="87" r="5"/><circle class="st1" cx="1475" cy="429" r="5"/><circle class="st1" cx="711" cy="1422" r="15"/><circle class="st1" cx="1512" cy="909" r="10"/><circle class="st1" cx="941" cy="124" r="9"/><circle class="st1" cx="1056" cy="688" r="5"/><circle class="st1" cx="1405" cy="1280" r="6"/><circle class="st1" cx="690" cy="596" r="11"/></svg>