<svg xmlns="http://www.w3.org/2000/svg" viewBox="0 0 1920 1920" xml:space="preserve"><style>.st1{fill:#989898}</style><path fill="#445a76" d="M0 0h1920v1920H0z"/><path d="M1083 376 918 31M729 303 579 105m1186 1676-422-134m437-874-403 7m-158 110-127-281m-747 494-245 220m760 153-91-22m-234-228-261-39m926-379-4 60m-22-169-8-242m477 421-187-234M863 234l-297 64m-292 889-45-381m45 381-2-19m799-365L899 946m604 181-42-6M422 1887 42 1649m1850-935-67-681M779 241l-330 9m279-78-38 257m237 1035-216 263M579 105l-88 7m753 1210-35 75m-749 107-328-126m1656-664-40-488m-547 1089-4-90m-105-616-21-50M541 693l-70-79m990-459-173-74m536 1801-112-529m-256-709-40-405m452 981-96-320M635 354l-60-60m60 60L280 213m535-51-87 10m406 447-121 234m-745 670L23 1155m552 308-89 49m225 215-365 127M775 48l-46 255m852 1019-238-198m429-224-103-354m-460 851-8-82m-102-587-53-236M715 1554l-293 333m752-1188-75 29M418 1783l-73-102m821-1224-69 314m668 1010-59-345m-505-121-67 318m717 257-27-8M1106 805 855 678m910 1103-419-162m-240-814-35-2m272 844-369 15m482-1018-256 164m572 92-311 221m90-412-17-7M861 314l-20 79M679 1419l-218 202m783-299-95 311m-720-529L229 744m175 365-59-6m703 625-74-66m-399-199-46-77m1085 257-307-74m251-336-41-34m351 21-310 13m-124 78-23 292m-68 44-353 73m624-77-33-321m-510-519-231 54m-258 193-224 244m449-522-102-68m135 153-33-85m901-467-120-91m-376 83-42-6M518 1636l-270-93m1087-608-43 120m-947 48L229 806m0-62-96-174m682-408-324-50m230 1654-10-39M813 124l-38-76m139 772-326-7m1184 87-137-316M783 271l-74 246M575 294 84 284m498 914-310-30m394-851L471 614m878 792-140-9m631-518-255 265M418 1783l-229-276M1882 22l-57 11M690 429 449 250m1159 679-152-285m213-98-253-307m-633 32L491 112m1094 1032-293-89m-220 268-98 339m372-43-3 28M902 695l-3 251M259 310 77 613m1044 236-15-44m476 365-24 63M840 857l-96-23m-284 670-58 312m1363-35-425-151m-268-307-97 47M611 215l-352 95m847 495L871 687m-448 485L204 964m-55 0-71 363M1325 159l-37-78M529 1386l-171 191M1882 22l-96 73m-437 1311-281 75m216-1019-10 81m334 386-267 112m-476 280-33 18m624 137-72-321m-516 6-286 37m-245-14-205 194m1413-794-338-51m227 778-7 91m445 34-418-169M1786 95l-574 202m660 1139-355-237m-1085-71-9 44m1135 61-47-292m-204 628-288-141M145 141l-14-43m584 1456-93 55m83-905-353 56m134 752-8 51m672-1252-67 65m663 198-77-28M666 317 491 112m-107 38-50-66m1183 1115-63 68m418 169-48 446M268 1523l-20 20m612-67-243-209m1223-388-68 21m-109 186-78 58m-242-20-220-143M471 614l-22-364M345 1681l-135 61m1615-241-119-65M752 404 503 657m237-39-298 55m337-432L579 105m1129 200-289 320m-298 224-50-46M251 961 133 570m1210 554-125-260m390 65-224 226M752 404 541 693m-312 51v62m-25 158L78 1327m376 134-423-61M1083 376l-331 28m68-284-5 42M454 1461l-117-277m342 235-204-171m1194-702-34 38m-411-220-54-73m-323 832L744 834m0 0-156-21m114 973-242-282M1882 22l-670 275M914 820l-74 37m537-77-85 275m463 733-409-169M744 834l-39-130m1119 1178-484-252M611 215l-36 79m1108 352-75 283m-782 884-204-204m596-745-34 6M176 160l-60 409m370 943L61 1720M1669 546l-81 341m31 167-327 1M242 1651l-32 91m939-109-289-157m-325-250-75 278m251 223-89-118m353-239-48 94m322 191-115-22m-423 94-260-190m1037 66h-77M666 317 386 161m317 948H404m1069 453-17-86m-777-57-104 44m-93-327-50-8m775-595-101 272m-484 804-412 133m412-133-104 27m1361-212-7 12m-166 0-252-169m258 86-256 123m17 86-229-240M385 367l-65-63m1231 96-4 75m-455 134-25 45m32 74-83-224M566 298 374 628m1143 571-273 123m303-847-170 305m505-758-94 136m-8 615-161 281m-294-895-159 298M820 120l-45-72m997 852-110-38m-614 866-58-8m521-779-292-51m-787 238L229 806m129 771-198 224m88-258L98 1206m1072-915-154 213m-883 66-56 43m1702 1272-87 10m-448-573-43-7m233-4-91 336m497-768-258 291m-267 530-66-45m-798-118-93 40m1103-456-217 201M320 304l-61 6m1613 1126-291-114M518 1636l-276 15M779 241l-51-69m720 171-200 299m286 60-86-359M813 124l-61 280M640 284l-255 83M237 953l-88 11m305 497L42 1649m1265-80-333 93m-142-323-49-40M728 172l-344-22m766 1562-290-236m-382 87-27-26m-126-62L23 1155m1251-612-74 265m140 822-25 70m210-718-71 285M116 569l-39 44m1350 789-230-177m-774-53-305 105m872 443-16-58m850 220-478-263m326-633-331 55m-855 471-35 25M813 124l-85 48m907 412-27 345m-565 49-289 85m106 413-28-137m940-439-269 227m323 706-2 49M358 1577l-226-199M239 209l-63-49m1310 1107-289-42m-746 312-93-243m1514 142-258 207m5-589-34 90m-419-687-83-81m785 844-283-76M334 84l-69 88m513 420-73 112M422 1887l-97-412M918 31l-105 93m388 1191-52 318m730-209-298-102m-607 340-142-323m-6 474-25-32m1023 101-368-406m-495-151-96-4m476-280-49 14m420 298-6 83m-329-656-271 25m142-163-29 248m124 234-134 273m-35-698-1 21m-127-228L861 314m697 919-266-178M118 1277l-95-122m996 273-92 36m-452-216-150 227m263-662-159 291m1317-530-21 87M460 1504 31 1400m1061-791-53-3m67 199-9-34m76-51-157-216m810 1329-370-357m152-547-83 53m-241-520-268 42m619 80h-90m323 636-287 102M841 393l-28-269m-468 979-322 52m792-993-2-38M436 1408l-226 334m1662-306-180 459m180-459-47 65m-1314-67-29-298m1201-490-95-432M386 161l-52-77m283 1183-272-164m864 294-161 331m-87-403-246 229m704-929-84 310m99 376-94 319M931 363l-90 30M511 1434l-57 27M386 161 84 284m1160 1038-110 311m738-197-21 454m-340-949-55-297m227 2-14-100m-503-89-325-64m864 1125-271-207m-113-119-124 33M1825 33l-541 429m-532-58-26-95m1153 1115-260-370m89-749-174 397m-17 497-14-72M436 1408 61 1720m958-292-44-58m-440-144-263-58m164 240-276 393m542-15-224-223M385 367l-26 51m1461 186-95 57m-137-447-127-59M962 268l-234-96m-88 112-5 70m125 187-20 77M491 112l-105 49m1482 1059-45 475m-751-372-225-200m-425 764-4-104m679-1012-26 32m754-770-37 681M729 303l-3 6m1029 1479-49-352m-295 167-65 16M133 570l-17-1m1522 1056-24 18m-126-40-34-336m131-123-68 55m323-320-171-333m36 972-67 107M566 298l-117-48m272 1516-38 57m-473-81-50 59m1301-680-264 104m0 0-154-247m782-945-71 95M586 1113l-4-63m965-575-99-132m-808-59-65 10m42 973-259 27m1348 142-124-266m-486 603-48-45m-279-274-291 109m983-1408-311 156M486 1512l-11-264M813 124l-322-12m284-64L666 317M358 1577l-90-54m1143 80-10 56m419-1055-32-446M715 1554l-297 229M841 393 611 215m637 427-75 78M611 215l-460 25m1689 639-60-106m-636 106-23-30m-194 615-126 317m-740-61-19-71m461-992-61 16m378-553-329-8m211 1674-19 37m20-714-280 63m6-68-6 68m920 475-142-332m504 203-251-251m271-606-53 325m-528-107-21 102M471 614l-97 14m587 697-129 14m392-975-157 290m177 668-47-97m-203 157-4 338M855 678 752 404m222 1258-259-108m504-664-1-26M579 105 259 310m-11 1233-59-36M635 354 442 673m907 733-6-282M611 215l-291 89M1882 22l-598 440M320 304l-40-91m759 393-334 98m-433 464-43-362m915 73-10-260m-431 490-121-59m303-14-131 27m680 248-93-270m-890 496-319-159m-54-51-47 73m1631-538-19 16m-874 576-283 58m-141 169-103-30m1214-175-135-284m467-478-263 268M728 172l-279 78m33 886-59 36m1025-829-32-104M931 363l-70-49m664 668-14-41m313 941-97 22m-19-1599-163 279m-168 196-42 155M705 704l-70-350m799 957-88 308m-499-496-269 74m1294 239-445-34m120-927-340 58M820 120 666 317M210 1742l-168-93m919-324-258-216m-37-792-1-46m338 1022-324 126m153-80-250-141m1243 303-243-331M359 418l-39-114m1299 750-284-119M100 1323 32 860m1793 641-339-234m157-389-61 292M280 213l-41-4m203 464L204 964m267-350L84 284m253 900L149 964m1459-35-97 12M131 98 87 230m1137 134-50 335m651 802-120 17M863 234l-48-72m188 1131-42 32m-386 138-157 320M690 429 442 673M210 1742l-110-419m104-359-88-395M918 31 635 354m539 345-91-323m258 665-197-162M760 541l-51-24m475 353-228 147m824-244-361-148M251 961l-14-8m1236 609-19-295M280 213l-15-41m932 1053-241-208m532 586-15-41m350 133-58 86m14 104-52 19M242 1651l-82 150m519-382-93-306m-51 113-60 22m380-570-14-285M160 1801l-59-356m1750 445-395-414M337 1184 229 806m842-247-55-55m0 0L752 404m702 863-20 44M160 1801l-82-474m1243-135-318 101M579 105 385 367M229 744l-45 19m1035 127-263 127M536 495l-33 162m814 1200-327-137m356-101-39-50m-134-849-74 8m607 708-295 167m-690 163-19 20m906-857-50 304m230-519-8 59m-361-148-245 74m-103-140-32 47m0 0-23-102m-434 546-245 134m384 582-375 88m136-718L204 964m1488 931-236-419M778 592l-69-75m6 1037-36-135m-243-11-91-305m357 683-241-165M640 284 176 160m998 539-40-80M690 429 503 657m323 1156-348-250m97-100-64-29m-25 78-26-8m366 309-404 74M841 393l-275-95m249-136L575 294m673 348-74 57m-1 21-7-263m-894 711-88-405m1272-119-37-19m-347 698-69-30m-645 284-13 104m1382 223-271-428M863 234l-2 80M454 1461 78 1327m824-632-47-17m488 969-94 8M635 354l-69-56m383 775-64-37m903-322-63-53M436 1408l-247 99m1356-923-89 60M536 495l-65 119m64 612-49 286m297-213-254 87m577-581-7-77M893 866l-53-9m822 5-117-278M491 112l-107 38m766 1562-1-79m-438 94-28 96m790-261-324 71m-203-549-99 39m127 539-13-337m42-32-28 77m790 411-10 7M449 250l-65-100m655 456-279-65m72 798-254-142m1245 498-480-48m-209-14-62-310m344-1084-91-80m260 985-3 26m269-491-63 35m-206 456-241-129m-1 589-96-308m97-281-141-233M449 250l-298-10m712-6-288 60m134 223-19-88m-208 707-53-32m13-431-68-45m380 435L588 813m929 386-320 26m-149 503-73-358m350-1211-242 217M454 1461l-353-16m1518-391-185 257M855 678 690 429m31 1337-261-262m1013 58-339 71M251 961l-102 3m293-291L237 953m1011-311-98-331M229 744 59 1115m1666-454-117 268M578 1197l-124 264m962-1222-250 218m-730 951-162-221m1605 237-54 77m-1365 3L61 1720M1248 642l-232-138m732-278-40 79M871 687l-64 85m1019 1061-47 52m-74-367-359 101m359-101-147-285M729 303l-63 14m160 1496-105-47m503-1402-74-53M918 31 779 241m1001 532-324-129m129 500-82-17M950 143 841 393m-224 874-35-69m29-983-32-110m770 1301-199 306M176 160 84 284m34 993-40 50m20-121L32 860m422 601-18-53m152-595-106 323M265 172 116 569m1663 1316-439-255M176 160l-25 80m948 488L840 857m946-762-32 33m69 1567-242-373M337 1184l-65-16m1579 722-536-190m-892-528-98 303m104-371-84-1m191-608L151 240m1561 1113-93-299M855 678l-48 94m343-461-309 82M248 1543l-6 108M918 31l-98 89m429 1535-5-333m-26-458-10 26m-74-271-42-10m466 624-85 329M418 1783l-16 33M1882 22l-94 692M132 1378l-54-51m1594-341-64-57M352 760l-123-16m863-135-79 244m-64 220-3 11m842-926-34-30M78 1327l-17 393M442 673 77 613m784-299-83 278m-88-163-154 66m614 1217-54 61m-692-664L78 1327M726 309l-60 8m406 1006-78 59M176 160l-31-19m1635 632-117 313m45-781-157 404m-595 308-10 67m224-793-87 85m809 338-10-692M783 271l-57 38m708 1002-85 95m-580 48-309 50M1788 158l-40 68M345 1681l-303-32m544-536-8 84M386 161l-2-11M101 1445l-70-45m1493-691-68-65m154-496-22 66M536 495l-420 74m846-301-31 95M778 592l-38 26M536 495 320 304m109 800L184 763m1341 219-204 210m-97-828-58 93M402 1816l-56 38M871 687l-16-9m808 408-322-45m-881 463-6-43m1425-37-241 201M132 1378l-31 67m918-17-25-46M807 772l-63 62m63-62-53 291m-33 703-243-203m1067-979-271-41m-763 891-166 247M229 806l-45-43m451-409L334 84m765 644-56 250m782-945-601 331M251 961 116 569m878 813-315 37m-243-11-4-280m1056 475-339 30m677 200-71-45M586 1113l-314 55m878 544-175-342M666 317l-281 50M149 964l-49 359m1792-609-52 165M149 964 32 860M1786 95l-370 144m-168 403-104 237m202 740-145-304m-133 166-49-53m77 345-106-53m4-338-19-12m876 520-508-243M268 1523 61 1720M1067 654 840 857m-651 650-88-62m767-284-290 36m925-70-154 279M579 105 320 304M204 964l-71-394m1210 1077-28 53m-970-597-8 81m881-320-84-245m748-597-658 342M38 811l-6 49m422 601L61 1720m642-611-228 139m-117 46-84-107m416-758L471 614m872 510-22 68M541 693l-99-20m223-402-385-58m841 636-175 235m-486 420-359-59M729 303 334 84m418 320-62 25M511 1434l-88-262m1397-568-212 325M640 284l-74 14m1274 581-205-295M385 367 229 744m116 359L31 1400M566 298l-286-85m736 291L863 234M325 1475l-57 48m799-869-28-48m-616 566-19-63m770-410-158-195m709 157-214 280m195 495-1 82M703 1109l-117 4m154-495-35 86m401 101-299-33m920 1132-420-335m-313-187-33-57M1825 33l-613 264m-867 806-73 65m569-775-266-99M176 160l-45-62m291 1789-20-71M815 162 690 429m171-115-286-20m1033 635-63-345m-371 115-128-207m-914 886-101 22M1212 297 918 31M151 240l-67 44m1135 606-85-271M962 268l-101 46m663 395-105-84M418 1783l-72 71m1142-251-279-206m546 391-63-17m-981-44-366-46m789-1062-63-60m-293 33-18-51M358 1577l-257-132M280 213 116 569m1230 1050-102-297m399-444-182 243m-750 606-257-266m770-1097-12-67m426 1328-57-303m-30-922-327-36m-441-93-4-30m-197 809-345-97m929-496L861 314m262 667L914 820m-439 428-24 289m309-996-95-270m544 1126-113 376m-936 28-99-81m37-514-75-51m395 628-150-260m1487 265-438 69m144-736-77 34m436-551-401 21m360 1260-464-185m-97-836-18-56m-583 459-157 237m674-885-67 35m-799 869-150-246m1544-415-74 25m-404-17-40 9M665 271l-54-56m486 556-226-84m-330 6-38-36m119 952-186-201M918 31 752 404m222 1258-352-53m789-6-202-206m546 391-43-435m-1354-59-258 29m1148-681-202-150M665 271l-25 13m816 360-79 136m-899 783-120-269m117-46-52-76m1080-45-76 275M337 1184l-278-69m1266-956L918 31m954 1405-26 1m-134-84-131-31M1325 159l-279 333m-468 705-306-29m1420 603-78-128M229 806v-62m978-211-41-76m381 18-299 167m506-514-306 215m376 1539-210-239M454 1461l-294 340m1502-939-159 265m85-240-63 95M775 48 334 84m551 952-38 87m250-352-81-267M871 687l-368-30m399 38L588 813m-59 573-93 22m776-1111-173 309m235-63-26 99m631 782-152 480m-378-498-277-83m-590-187-46 272M841 393l-89 11m632 751-41-31m384 780-35-9m-1270-8-64-310m1493 313-505-271m-146-811-129-249m-600 55-355-45m242 1008-33-102m1102-73-84-278M503 657l-32-43m376 509-265 75m-104 365-17 58m882-497-2-83m93 270-142-256m109 604-58-12m265-718-20-42m-161 515-78 4M863 234l-84 7M374 628 237 953m1614-274-31-75M87 230l-3 54m1762 1153-154 458m-219-333-156 295M204 964h-55m1702-285-71 94m40-169-158 258m162 1020-509-182m-296-272-193 385m762-1599-169 411m69 978-2-336M779 241l-70 276M320 304 133 570m1414-95L1288 81M617 1267l-39-70m-42-702L352 760m455 12L503 657M184 763 59 1115m459 521-40-73m110-750-47-120m1102 185-35 51m61-383-7 316m-591-59L871 687m548-62-195-261m122 1255-6 11M280 213 133 570m1251 585-63 37m-839-56L149 964m88-11-33 11m946-653-287-77m-50-110L575 294m208-23-54 32m914 575-140 249m317-523-148 382M345 1103l-71 84m1438 166-285 49M950 143 918 31m331 1624-100-22m1 79-156-330M635 354 491 112m-55 1296-164-240m-154 109-59-162m325-965L84 284m1624 21-252 339m-995 977-251 121M131 98 77 613m297 15L204 964m996-156-16 62m-752 258-409 27m1020-177-30-125m460 709-62 41m-368-625L807 772m856 314-44-32m-446-334-127-228m734 281-8 127m-356-661L1288 81M826 1813l-424 3m1156-583-314 89m635 102-33 13M617 1267l-166 270M566 298l-63 359m1376 767-391 179m-69-978-42 155m448-747-39 62M325 1475l-77 68M783 271 579 105m907 1162h-32M268 1523 98 1206m373-592L151 240m993 639-245 67m-145 117-325 41m-297 274-32-55M640 284l-489-44m1430 1082-23-89M491 112l-315 48m-16 1641L42 1649m1298-19-350 90M861 314l-250-99M454 1461l-108 393m-136-112L31 1400m153-637L32 860m1424 616-107-70m-306-428-87 39M841 393 536 495m563 233-2 43m2-43-228-41m-442 417L149 964m812 361-282 94m-250-315L32 860m579-645-75 280m804 1135-91 25m443 240v-124M783 271l-23 270m201 784-207-262m380-444-279 59m991 759-21 64m-777 227-333-174m14-1251L536 495m634-204-20 20m562 1042-209-226m-380-146-120 312m578 29-95-55M575 294l-9 4M59 1115l-36 40m513-660L84 284m891 1086-14-45m879-446-295-295M826 1813l-124-27m-242-282-9 33m67 99-172 218m751-1083-242-93m352-145-7 275m-746 653-212 190m1538-878-233-298m199 99-84 288M705 704 588 813m-59 573-18 48m890 225-61-29m552-916-144-488m-224 483-76-366m398 1094-232 206M902 695l-31-8m791 175-54 67M815 162 566 298m835 1361-353 69m-566-592-28 325M1788 158l-2-63m-21 1686-73-10m-308-616-175 242m-791 386-357-63M1419 625l-201 239m-743 384-117 46m420-702L635 354m899 348-10 7M503 657l-129-29m205-523-314 67m1269 530-78-58m-702 419-219 163m0 0-84 311m27 26-3-315M184 763 23 1155m1535 78-72 34M575 294l-72 363m-74 447-25 5m1421 392-98 403m-781-820-61-48m603 567-87 56m-940-38-10-84m-106 144L31 1400m179 342-149-22m1279-90-139-315M184 763l-68-194m704-449-68 284M98 1206l-56 443M151 240l-64-10m1259 1389-356 101m-479-286-165 420m408-791-49-359m-39-387-31 37m1216 325-306-95M482 1136 237 953m345 97-100 86m614 637-375-7m-139-716-41-357m-423 584-20-71m1110-316-12-22m307 259-259 195M744 834 471 614m-113 963-316 72M1284 462l-110 237m677 1191-25-57m-188-208-150-22m-1037-66-350-92m1446-970-2 109m127 402-53 68M518 1636l-57-15M962 268l-297 3m676 770-6-106m-581 128-51 46M588 813l-52-318m-178 799L237 953m515-549L471 614m1201 372-288 169m235-101-276 70M268 1523l-108 278m1666 32-3-138m-209-52-126-40M729 303l-64-32m970 313-88-109m178 186-42-15m-818 675-82-22m1063 138-119 467M259 310l-20-101m193 919-28-19M280 213l-21 97m703-42L690 429M422 1887l-76-33m12-560-21-110m871-294-85 91m-541 217-47 28m639-527-51 282m-672 556-241 205M666 317 334 84m1211 500-126 41M176 160 77 613m107 150L84 284m427 1150-75-26m1390 425-61-52m-93-795-9 100m-540-105L893 866m-382 568-93 349m731-150h-15m158-578-92-247m-739 813-272-114M579 105 151 240m201 520-123 46m1227 670-29-74m-293-783-263 68M711 1727l-353-150m1098-101-255-161M690 429l-55-75M454 1461l-31-289m424-49-93-60M635 354 374 628m137 806-263 109m184-415L229 744m817-252-30 12m-679 680-63 3m597-500-30-294M471 614 259 310m9 1213-79-16m297 5-385-67m1072-725-50 261m-648 267-377-42m680-614L588 813m406 569-279 172m298-701L705 704m491 164-52 11m-562 171-105-39m109 102-4 85m515-427-204 95m568-711-136 4m-155 132-131 315m-607 522-3-24m1159-890-132 430m-244-347-62 14M529 1386l-261 137m434 263-357-105M666 317l-26-33m75 1270-98-287m127-433-35-317M184 763 38 811m1181 79-23-22M666 317 384 150m48 978-373-13m897-98-57-71M666 317 503 657m1085 230-77 54M962 268 775 48M486 1512l-32-51m257 266-200-293m67-237-43 29m1171 210-43-350m-580-710L779 241m355 1392-160 29M931 363l-265-46m677 807-51-69M640 284l-29-69m940 185-103-57m215 743-320 38m-124-234h-11m-626 308-128 263m1369 234-68 93M272 1168l-43-424m1232 377-34 281m-658 52-54 100m111 259-111-259m968-908-48-62m-632 709-249-230m495 592-48-340M820 120 640 284m846 983-52 44M274 1187l-90-424m778-495L752 404M422 1887l-233-380m651-650-137 252m493-241-12 2m-933 91-47 3m656 512-139 290m-210-332-301 308m115-267-53-307m1071 479-3-17m480-1026-74-30M449 250l-63-89m132 1475-457 84m1148-323-235 265m-106-501-21-38m115-855-296 49m953 737-278-13M635 354l-376-44m1227 957-194-212m462-927-6 98M575 1463l-93-327m-384 70-39-91m523 83-4-1m1057-613-219-345M78 1327 32 860m1242-317-67-10m-671-38L176 160m921 611-54 207m504-503-323-111m599 1331-477-76m-62-1157-77 71m254-378-45 84m-454 29-99-34m1016 1190-425-157m-383-708L962 268m620 902-65 29m262 686-433-266m478 263-45 3M711 1727l-9 59m-220-650-7 112M359 418 259 310m1496 1478-415-158M100 1323l-22 4m1376-60-108 352M536 495l-403 75m794 894-67 12m364-1112-90 255m-13 230-281 8m368 33-24-20m-748 538L42 1649m1108 63-16-79m654-1475-80 147m-65 573-55 9M902 695l-95 77m54-458-295-16m390 719-71 19m966 854-72-5M449 250 145 141m1064 1256-282 67m952-40-452-22M779 241l-50 62M160 1801l-60-478m371-709-29 59m731 47-76 51m-579 865-250-113m659-59-305 145m670-554-91 260m-747 146-32 426m347-433-90-35m444-438-80-3m78-129-314-77m441-130-40 248m-109-162L893 866m624 333-56-78m-505-104-7 56M728 172l-149-67m1009 109-438 97m304 956-245 130m663 39-145 468m-89-279-211-223m21-1059-365 33M611 215 385 367m1132 832-61 277M728 172 334 84m565 862-6-80m-464 238-406 51m599 454-220 207M861 314 775 48M622 1609l-297-134m809 158-173-308" fill="none" stroke="#989898"/><circle class="st1" cx="1820" cy="604" r="11"/><circle class="st1" cx="728" cy="172" r="14"/><circle class="st1" cx="1545" cy="584" r="10"/><circle class="st1" cx="914" cy="820" r="12"/><circle class="st1" cx="863" cy="234" r="11"/><circle class="st1" cx="471" cy="614" r="8"/><circle class="st1" cx="251" cy="961" r="8"/><circle class="st1" cx="665" cy="271" r="6"/><circle class="st1" cx="588" cy="813" r="11"/><circle class="st1" cx="248" cy="1543" r="5"/><circle class="st1" cx="1325" cy="159" r="5"/><circle class="st1" cx="345" cy="1103" r="9"/><circle class="st1" cx="503" cy="657" r="15"/><circle class="st1" cx="1224" cy="364" r="15"/><circle class="st1" cx="442" cy="673" r="15"/><circle class="st1" cx="268" cy="1523" r="11"/><circle class="st1" cx="334" cy="84" r="13"/><circle class="st1" cx="611" cy="215" r="7"/><circle class="st1" cx="451" cy="1537" r="15"/><circle class="st1" cx="1335" cy="935" r="7"/><circle class="st1" cx="1184" cy="870" r="5"/><circle class="st1" cx="1517" cy="1199" r="10"/><circle class="st1" cx="229" cy="744" r="9"/><circle class="st1" cx="1274" cy="543" r="9"/><circle class="st1" cx="1207" cy="533" r="6"/><circle class="st1" cx="204" cy="964" r="12"/><circle class="st1" cx="1292" cy="1055" r="6"/><circle class="st1" cx="990" cy="1720" r="14"/><circle class="st1" cx="1208" cy="890" r="9"/><circle class="st1" cx="893" cy="866" r="15"/><circle class="st1" cx="133" cy="570" r="15"/><circle class="st1" cx="1419" cy="625" r="10"/><circle class="st1" cx="1019" cy="1428" r="14"/><circle class="st1" cx="950" cy="143" r="9"/><circle class="st1" cx="579" cy="105" r="10"/><circle class="st1" cx="242" cy="1651" r="12"/><circle class="st1" cx="189" cy="1507" r="6"/><circle class="st1" cx="1772" cy="900" r="15"/><circle class="st1" cx="1343" cy="1124" r="14"/><circle class="st1" cx="754" cy="1063" r="14"/><circle class="st1" cx="994" cy="1382" r="12"/><circle class="st1" cx="832" cy="1339" r="15"/><circle class="st1" cx="1149" cy="1633" r="10"/><circle class="st1" cx="1748" cy="226" r="10"/><circle class="st1" cx="149" cy="964" r="14"/><circle class="st1" cx="666" cy="317" r="8"/><circle class="st1" cx="346" cy="1854" r="5"/><circle class="st1" cx="237" cy="953" r="13"/><circle class="st1" cx="422" cy="1887" r="15"/><circle class="st1" cx="1525" cy="982" r="8"/><circle class="st1" cx="801" cy="1781" r="10"/><circle class="st1" cx="702" cy="1786" r="7"/><circle class="st1" cx="1488" cy="1603" r="8"/><circle class="st1" cx="386" cy="161" r="10"/><circle class="st1" cx="1068" cy="1481" r="13"/><circle class="st1" cx="1851" cy="679" r="13"/><circle class="st1" cx="1099" cy="728" r="9"/><circle class="st1" cx="813" cy="124" r="5"/><circle class="st1" cx="715" cy="1554" r="7"/><circle class="st1" cx="1754" cy="128" r="12"/><circle class="st1" cx="1672" cy="986" r="14"/><circle class="st1" cx="1824" cy="1882" r="10"/><circle class="st1" cx="1067" cy="654" r="12"/><circle class="st1" cx="861" cy="314" r="7"/><circle class="st1" cx="575" cy="1463" r="15"/><circle class="st1" cx="1635" cy="584" r="10"/><circle class="st1" cx="359" cy="418" r="8"/><circle class="st1" cx="868" cy="1161" r="9"/><circle class="st1" cx="1461" cy="155" r="11"/><circle class="st1" cx="1341" cy="1041" r="13"/><circle class="st1" cx="1840" cy="879" r="13"/><circle class="st1" cx="760" cy="541" r="6"/><circle class="st1" cx="1134" cy="619" r="5"/><circle class="st1" cx="1643" cy="878" r="6"/><circle class="st1" cx="865" cy="1321" r="14"/><circle class="st1" cx="683" cy="1823" r="14"/><circle class="st1" cx="1039" cy="606" r="11"/><circle class="st1" cx="871" cy="687" r="15"/><circle class="st1" cx="1048" cy="1728" r="11"/><circle class="st1" cx="1315" cy="1700" r="13"/><circle class="st1" cx="709" cy="517" r="9"/><circle class="st1" cx="151" cy="240" r="10"/><circle class="st1" cx="358" cy="1294" r="13"/><circle class="st1" cx="1174" cy="699" r="10"/><circle class="st1" cx="729" cy="303" r="6"/><circle class="st1" cx="586" cy="1113" r="12"/><circle class="st1" cx="575" cy="294" r="7"/><circle class="st1" cx="775" cy="48" r="10"/><circle class="st1" cx="1692" cy="1895" r="5"/><circle class="st1" cx="541" cy="693" r="11"/><circle class="st1" cx="23" cy="1155" r="14"/><circle class="st1" cx="265" cy="172" r="13"/><circle class="st1" cx="1872" cy="1436" r="14"/><circle class="st1" cx="566" cy="298" r="14"/><circle class="st1" cx="1096" cy="1773" r="6"/><circle class="st1" cx="582" cy="1198" r="6"/><circle class="st1" cx="1196" cy="868" r="11"/><circle class="st1" cx="975" cy="1370" r="7"/><circle class="st1" cx="1826" cy="1833" r="12"/><circle class="st1" cx="1825" cy="1501" r="6"/><circle class="st1" cx="478" cy="1563" r="12"/><circle class="st1" cx="1663" cy="1086" r="12"/><circle class="st1" cx="59" cy="1115" r="8"/><circle class="st1" cx="87" cy="230" r="15"/><circle class="st1" cx="721" cy="1766" r="15"/><circle class="st1" cx="617" cy="1267" r="8"/><circle class="st1" cx="280" cy="213" r="14"/><circle class="st1" cx="1610" cy="148" r="7"/><circle class="st1" cx="1201" cy="1315" r="5"/><circle class="st1" cx="272" cy="1168" r="5"/><circle class="st1" cx="84" cy="284" r="15"/><circle class="st1" cx="325" cy="1475" r="8"/><circle class="st1" cx="1134" cy="1633" r="10"/><circle class="st1" cx="860" cy="1476" r="6"/><circle class="st1" cx="962" cy="268" r="14"/><circle class="st1" cx="1411" cy="1603" r="14"/><circle class="st1" cx="1524" cy="709" r="15"/><circle class="st1" cx="1307" cy="1569" r="8"/><circle class="st1" cx="518" cy="1636" r="15"/><circle class="st1" cx="815" cy="162" r="13"/><circle class="st1" cx="486" cy="1512" r="10"/><circle class="st1" cx="491" cy="112" r="13"/><circle class="st1" cx="1384" cy="1155" r="13"/><circle class="st1" cx="1212" cy="297" r="12"/><circle class="st1" cx="352" cy="760" r="15"/><circle class="st1" cx="259" cy="310" r="15"/><circle class="st1" cx="1892" cy="714" r="15"/><circle class="st1" cx="927" cy="1464" r="5"/><circle class="st1" cx="578" cy="1197" r="13"/><circle class="st1" cx="529" cy="1386" r="13"/><circle class="st1" cx="1071" cy="803" r="14"/><circle class="st1" cx="711" cy="1727" r="14"/><circle class="st1" cx="1765" cy="1781" r="11"/><circle class="st1" cx="752" cy="404" r="12"/><circle class="st1" cx="826" cy="1813" r="8"/><circle class="st1" cx="32" cy="860" r="11"/><circle class="st1" cx="820" cy="120" r="5"/><circle class="st1" cx="946" cy="1084" r="6"/><circle class="st1" cx="1083" cy="376" r="12"/><circle class="st1" cx="1166" cy="457" r="12"/><circle class="st1" cx="1456" cy="644" r="15"/><circle class="st1" cx="640" cy="284" r="8"/><circle class="st1" cx="385" cy="367" r="9"/><circle class="st1" cx="320" cy="304" r="5"/><circle class="st1" cx="1434" cy="1311" r="8"/><circle class="st1" cx="98" cy="1206" r="9"/><circle class="st1" cx="1013" cy="853" r="5"/><circle class="st1" cx="101" cy="1445" r="9"/><circle class="st1" cx="1786" cy="95" r="10"/><circle class="st1" cx="1727" cy="1904" r="7"/><circle class="st1" cx="384" cy="150" r="10"/><circle class="st1" cx="961" cy="1325" r="9"/><circle class="st1" cx="1150" cy="1712" r="8"/><circle class="st1" cx="703" cy="1109" r="10"/><circle class="st1" cx="679" cy="1419" r="14"/><circle class="st1" cx="902" cy="695" r="6"/><circle class="st1" cx="1427" cy="1402" r="13"/><circle class="st1" cx="1547" cy="475" r="6"/><circle class="st1" cx="918" cy="31" r="14"/><circle class="st1" cx="1712" cy="1353" r="5"/><circle class="st1" cx="1343" cy="1647" r="12"/><circle class="st1" cx="841" cy="393" r="10"/><circle class="st1" cx="132" cy="1378" r="15"/><circle class="st1" cx="1454" cy="1267" r="11"/><circle class="st1" cx="1746" cy="574" r="6"/><circle class="st1" cx="1123" cy="981" r="15"/><circle class="st1" cx="116" cy="569" r="12"/><circle class="st1" cx="899" cy="946" r="8"/><circle class="st1" cx="1788" cy="714" r="15"/><circle class="st1" cx="78" cy="1327" r="8"/><circle class="st1" cx="454" cy="1461" r="11"/><circle class="st1" cx="176" cy="160" r="8"/><circle class="st1" cx="535" cy="1226" r="14"/><circle class="st1" cx="77" cy="613" r="13"/><circle class="st1" cx="705" cy="704" r="12"/><circle class="st1" cx="1416" cy="239" r="7"/><circle class="st1" cx="1150" cy="311" r="7"/><circle class="st1" cx="1173" cy="720" r="13"/><circle class="st1" cx="1585" cy="1144" r="10"/><circle class="st1" cx="1619" cy="1054" r="12"/><circle class="st1" cx="1551" cy="709" r="6"/><circle class="st1" cx="1638" cy="1625" r="9"/><circle class="st1" cx="1448" cy="343" r="13"/><circle class="st1" cx="1121" cy="849" r="13"/><circle class="st1" cx="769" cy="1454" r="5"/><circle class="st1" cx="38" cy="811" r="14"/><circle class="st1" cx="1219" cy="890" r="7"/><circle class="st1" cx="1340" cy="1630" r="9"/><circle class="st1" cx="432" cy="1128" r="6"/><circle class="st1" cx="1097" cy="771" r="8"/><circle class="st1" cx="1511" cy="941" r="8"/><circle class="st1" cx="418" cy="1783" r="9"/><circle class="st1" cx="931" cy="363" r="13"/><circle class="st1" cx="402" cy="1816" r="10"/><circle class="st1" cx="536" cy="495" r="12"/><circle class="st1" cx="1851" cy="1890" r="7"/><circle class="st1" cx="840" cy="857" r="12"/><circle class="st1" cx="1249" cy="1655" r="5"/><circle class="st1" cx="511" cy="1434" r="11"/><circle class="st1" cx="1558" cy="1233" r="15"/><circle class="st1" cx="160" cy="1801" r="10"/><circle class="st1" cx="1486" cy="1267" r="9"/><circle class="st1" cx="885" cy="1036" r="5"/><circle class="st1" cx="1551" cy="400" r="13"/><circle class="st1" cx="461" cy="1621" r="5"/><circle class="st1" cx="1882" cy="22" r="8"/><circle class="st1" cx="1706" cy="1436" r="6"/><circle class="st1" cx="61" cy="1720" r="14"/><circle class="st1" cx="1244" cy="1322" r="7"/><circle class="st1" cx="1197" cy="1225" r="6"/><circle class="st1" cx="1349" cy="1406" r="9"/><circle class="st1" cx="1692" cy="1771" r="6"/><circle class="st1" cx="1456" cy="1476" r="6"/><circle class="st1" cx="847" cy="1123" r="6"/><circle class="st1" cx="1823" cy="1695" r="13"/><circle class="st1" cx="622" cy="1609" r="6"/><circle class="st1" cx="1868" cy="1220" r="15"/><circle class="st1" cx="1016" cy="504" r="6"/><circle class="st1" cx="31" cy="1400" r="7"/><circle class="st1" cx="1218" cy="864" r="6"/><circle class="st1" cx="1608" cy="929" r="9"/><circle class="st1" cx="1346" cy="1619" r="10"/><circle class="st1" cx="740" cy="618" r="14"/><circle class="st1" cx="477" cy="1011" r="14"/><circle class="st1" cx="1046" cy="492" r="6"/><circle class="st1" cx="42" cy="1649" r="5"/><circle class="st1" cx="582" cy="1050" r="13"/><circle class="st1" cx="358" cy="1577" r="15"/><circle class="st1" cx="274" cy="1187" r="9"/><circle class="st1" cx="949" cy="1073" r="12"/><circle class="st1" cx="1725" cy="661" r="12"/><circle class="st1" cx="1321" cy="1192" r="9"/><circle class="st1" cx="1092" cy="609" r="10"/><circle class="st1" cx="1071" cy="559" r="7"/><circle class="st1" cx="118" cy="1277" r="10"/><circle class="st1" cx="855" cy="678" r="7"/><circle class="st1" cx="726" cy="309" r="11"/><circle class="st1" cx="1780" cy="773" r="14"/><circle class="st1" cx="1170" cy="291" r="9"/><circle class="st1" cx="1317" cy="1857" r="5"/><circle class="st1" cx="1377" cy="780" r="9"/><circle class="st1" cx="100" cy="1323" r="6"/><circle class="st1" cx="1209" cy="1397" r="7"/><circle class="st1" cx="778" cy="592" r="9"/><circle class="st1" cx="1669" cy="546" r="15"/><circle class="st1" cx="1200" cy="808" r="11"/><circle class="st1" cx="1879" cy="1424" r="9"/><circle class="st1" cx="635" cy="354" r="7"/><circle class="st1" cx="429" cy="1104" r="12"/><circle class="st1" cx="436" cy="1408" r="14"/><circle class="st1" cx="807" cy="772" r="12"/><circle class="st1" cx="1144" cy="879" r="11"/><circle class="st1" cx="1284" cy="462" r="6"/><circle class="st1" cx="1503" cy="1127" r="13"/><circle class="st1" cx="1534" cy="702" r="5"/><circle class="st1" cx="744" cy="834" r="8"/><circle class="st1" cx="1708" cy="305" r="6"/><circle class="st1" cx="1779" cy="1885" r="13"/><circle class="st1" cx="374" cy="628" r="12"/><circle class="st1" cx="1043" cy="978" r="8"/><circle class="st1" cx="337" cy="1184" r="8"/><circle class="st1" cx="783" cy="1299" r="12"/><circle class="st1" cx="1003" cy="1293" r="7"/><circle class="st1" cx="1788" cy="158" r="14"/><circle class="st1" cx="1072" cy="1323" r="11"/><circle class="st1" cx="956" cy="1017" r="8"/><circle class="st1" cx="1588" cy="214" r="5"/><circle class="st1" cx="1582" cy="1170" r="9"/><circle class="st1" cx="1662" cy="862" r="13"/><circle class="st1" cx="210" cy="1742" r="11"/><circle class="st1" cx="229" cy="806" r="5"/><circle class="st1" cx="1588" cy="887" r="12"/><circle class="st1" cx="1248" cy="642" r="14"/><circle class="st1" cx="1288" cy="81" r="6"/><circle class="st1" cx="482" cy="1136" r="11"/><circle class="st1" cx="783" cy="271" r="13"/><circle class="st1" cx="1461" cy="1121" r="12"/><circle class="st1" cx="1614" cy="1643" r="8"/><circle class="st1" cx="449" cy="250" r="15"/><circle class="st1" cx="460" cy="1504" r="10"/><circle class="st1" cx="1473" cy="1562" r="6"/><circle class="st1" cx="690" cy="429" r="9"/><circle class="st1" cx="779" cy="241" r="9"/><circle class="st1" cx="145" cy="141" r="6"/><circle class="st1" cx="1825" cy="33" r="5"/><circle class="st1" cx="1755" cy="1788" r="9"/><circle class="st1" cx="974" cy="1662" r="9"/><circle class="st1" cx="131" cy="98" r="6"/><circle class="st1" cx="423" cy="1172" r="9"/><circle class="st1" cx="1581" cy="1322" r="12"/><circle class="st1" cx="239" cy="209" r="9"/><circle class="st1" cx="1705" cy="1518" r="6"/><circle class="st1" cx="1683" cy="646" r="5"/><circle class="st1" cx="404" cy="1109" r="8"/><circle class="st1" cx="1401" cy="1659" r="10"/><circle class="st1" cx="1846" cy="1437" r="15"/><circle class="st1" cx="184" cy="763" r="5"/><circle class="st1" cx="475" cy="1248" r="6"/><circle class="st1" cx="345" cy="1681" r="7"/><circle class="st1" cx="1106" cy="805" r="5"/></svg>