<svg xmlns="http://www.w3.org/2000/svg" viewBox="0 0 1920 1920" xml:space="preserve"><path fill="#4db7ad" d="M0 0h1920v1920H0z"/><path d="m1311 1294.2-12-6.9V965.1l12-6.9v336zm-159-313.6 162-93.6v-13.7l-174 100.5 12 6.8zm42 45.1-12 6.9v187.2l12 6.9v-201zm-81-67.6L1314 842v-13.7l-213 123 12 6.8zm117 358.5-240 138.6v13.8l252-145.5-12-6.9zm3-313.4-12 6.9v232.2l12 6.9v-246zm-159-67.6L1314 797v-13.7l-252 145.5 12 6.8zm195 403.9-279 161v13.9l291-168-12-6.9zm3-358.8-12 6.9v277.2l12 6.9v-291zm-240-665.1v291l12-6.9V322.5l-12-6.9zm39 22.5v246l12-6.9V345l-12-6.9zm39 22.5v201l12-6.9V367.5l-12-6.9zm81 268.5L990 745.2V759l213-123-12-6.9zm-156 284L1314 752v-13.7l-291 168 12 6.8zm-42-620v336l12-6.9V300l-12-6.9zm-3 587.4v6.8l6 3.7 318-183.6v-6.9l-6-3.6-318 183.6zm162-273.9-162 93.6V714l174-100.5-12-6.9zM1260 1920h12v-274.2l-12 6.9V1920zm-39-12.6 12 6.9v-246l-12 6.9v232.2zm-189 12.6h12v-267.4l-12-6.8V1920zm162-1559.4-12 6.9v187.2l12 6.9v-201zm-42 1285.2 162-93.6v-13.8l-174 100.5 12 6.9zm-81 268.5 12-7v-232.2l-12-6.9v246.1zm42-291 201-116.1v-13.8l-213 123 12 6.9zm69 261.6 12 6.9v-201l-12 6.9v187.2zm156-942.3v367.2l6 3.5 6-3.5V942.6l-6-3.6-6 3.6zm-228 949.2 12-7V1698l-12-7v200.8zM993 958.2v336l12-6.9V965.1l-12-6.9zm198 335.9-201 116.1v13.8l213-123-12-6.9zm-117 306.7 240-138.6v-13.8l-252 145.5 12 6.9zm-3-597.7v246.1l12-6.9V1010l-12-6.9zm39 22.5v201.1l12-6.9v-187.3l-12-6.9zm-78-44.9v291l12-6.9V987.5l-12-6.8zm3 597.6 279-161.1v-13.8l-291 168 12 6.9zm303-1300.8v367.2l6 3.6 6-3.6V277.5l-6-3.6-6 3.6zm-348 1268v7l6 3.5 318-183.5v-7l-6-3.5-318 183.5zm162-273.9-162 93.6v13.8l174-100.5-12-6.9zm-354 613.6 12 6.9v-201l-12 6.9v187.2zm-72 6.8 12-7.1V1698l-12-7v201zm-120-339.5 162 93.5 12-6.9-174-100.5v13.9zm81 361.8 12-6.9v-232.2l-12-6.9v246zm-39 5.7h12v-267.3l-12-6.9V1920zm228 0h12v-274.2l-12 6.9V1920zm-270-457.8 240 138.6 12-7-252-145.5v13.9zM689.5 0 930 138.9v-13.8L713.5 0h-24zM606 1507.2l201 116.1 12-7-213-123v13.9zm231 400.2 12 6.9v-246l-12 6.9v232.2zm-231-490.2 279 161.1 12-7-291-168v13.9zm213-465.9-213-123v13.8l201 116.1 12-6.9zm18 291 12 6.9v-246l-12 6.9v232.2zm-39-22.5 12 6.9v-201l-12 6.9v187.2zm60-291L606 783.3v13.8l240 138.6 12-6.9zm-252 436.5v6.9l318 183.6 6-3.6v-6.9l-318-183.6-6 3.6zm270-100.5 12 6.9v-291l-12 6.9v277.2zm21-358.5-291-168v13.8l279 161.1 12-6.9zm138-658.2L1314 87V73.2l-291 168 12 6.9zm78 45L1314 177v-13.8l-213 123 12 6.9zm39 22.5 162-93.6v-13.8l-174 100.5 12 6.9zm78 336L990 790.2V804l252-145.5-12-6.9zm-156-381L1314 132v-13.8l-252 145.5 12 6.9zm237 22.5-12 6.9v322.2l12 6.9v-336zm-78 45-12 6.9v232.2l12 6.9v-246zm36 336L990 835.2V849l291-168-12-6.9zM767.5 0 930 93.9V80.1L791.4 0h-23.9zM1272 315.6l-12 6.9v277.2l12 6.9v-291zm-318 627v367.2l6 3.5 6-3.5V942.6l-6-3.6-6 3.6zM1050.7 0 990 35.1v13.8L1074.6 0h-23.9zM954 277.5v367.2l6 3.6 6-3.6V277.5l-6-3.6-6 3.6zm36-62.4v6.9l6 3.6L1314 42v-6.9l-6-3.6-318 183.6zM845.4 0 930 48.9V35.1L869.3 0h-23.9zm283.2 0L990 80.1v13.8L1152.5 0h-23.9zM1269 9 990 170.1v13.8l291-168-12-6.9zm-62.5-9L990 125.1v13.8L1230.5 0h-24zM1758 1514l162-93.5v-13.8l-162 93.5v13.8zm-36-571.4v367.2l6 3.5 6-3.5V942.6l-6-3.6-6 3.6zM1613.4 0l84.6 48.9V35.1L1637.3 0h-23.9zm-77.9 0L1698 93.9V80.1L1559.4 0h-23.9zM1722 277.5v367.2l6 3.6 6-3.6V277.5l-6-3.6-6 3.6zm36 1191.5 162-93.5v-13.8l-162 93.5v13.8zM780 974.1 606 873.6v13.7L768 981l12-6.9zm978 449.9 162-93.5v-13.8l-162 93.5v13.8zm120-398.3v201l12-6.9v-187.3l-12-6.8zM1457.5 0 1698 138.9v-13.8L1481.5 0h-24zM1416 1920h12v-267.3l-12-6.9V1920zm-42-367.8 162 93.6 12-6.9-174-100.5v13.8zm120 339.8 12-7.1V1698l-12-7v201zm345-888.8v246l12-6.9V1010l-12-6.8zm-273 881.7 12 6.9v-201l-12 6.9v187.2zm-111 29.4 12-6.9v-232.2l-12-6.9v246zm-81-407.1 201 116.1 12-7-213-122.9v13.8zm0-45.1 240 138.7 12-7-252-145.5v13.8zm231 445.3 12 6.9v-246l-12 6.9v232.2zm195-926.7v291l12-6.9V987.5l-12-6.8zM1818.7 0 1758 35.1v13.8L1842.6 0h-23.9zM1758 138.9l162-93.6V31.5l-162 93.6v13.8zM1896.6 0 1758 80.1v13.8L1920 .3V0h-23.4zM1761 293.1v336l12-6.9V300l-12-6.9zm-3 420.9 162-93.6v-13.8l-162 93.6V714zM0 967.1V981l12-6.9-12-7zM0 1646l12-6.9-12-6.9v13.8zm1644 274h12v-274.2l-12 6.9V1920zM0 301.7v13.9l12-6.9-12-7zm1758-117.8 162-93.6V76.5l-162 93.6v13.8zm0 575.1 162-93.6v-13.8l-162 93.6V759zm0 620 162-93.5v-13.9l-162 93.6v13.8zm3-420.8v336l12-6.9V965.1l-12-6.9zm39-642.6v291l12-6.9V322.5l-12-6.9zM1758 804l162-93.6v-13.8l-162 93.6V804zm0 45 162-93.6v-13.8l-162 93.6V849zm81-510.9v246l12-6.9V345l-12-6.9zm39 22.5v201l12-6.9V367.5l-12-6.9zm-372 859.2v-187.3l-12-6.9v201l12-6.8zm60-665.1 12 6.9v-201l-12 6.9v187.2zm-99 22.5V345l-12-6.9v246l12-6.9zm81-268.5-174-100.5V222l162 93.6 12-6.9zm-42 246V367.5l-12-6.9v201l12-6.9zm81-268.5-213-123V177l201 116.1 12-6.9zm57 313.5 12 6.9v-291l-12 6.9v277.2zm21-358.5-291-168V87l279 161.1 12-6.9zm-39 22.5-252-145.5V132l240 138.6 12-6.9zm-21 313.5 12 6.9v-246l-12 6.9v232.2zm-81 36.3L1698 714v-13.8l-162-93.6-12 6.9zm-39 22.5 213 123v-13.8l-201-116.1-12 6.9zm198-336v322.2l12 6.9v-336l-12 6.9zm-309 400.2v6.9l318 183.6 6-3.6v-6.9l-318-183.6-6 3.6zm0-665.1V42l318 183.6 6-3.6v-6.9L1380 31.5l-6 3.6zm33 645.9 291 168v-13.8l-279-161.1-12 6.9zm-18-58.8V300l-12-6.9v336l12-6.9zm-15 794.9 279 161.2 12-7-291-168v13.8zm72-758.6L1698 804v-13.8l-240-138.6-12 6.9zm-18-58.8V322.5l-12-6.9v291l12-6.9zm177 642.6 12 6.9v-246l-12 6.9v232.2zm21-313.5-252-145.5v13.8l240 138.6 12-6.9zm-39 22.5-213-123V842l201 116.1 12-6.8zm-21 268.5 12 6.9v-201l-12 6.9v187.2zm-192 145.5v6.9l318 183.6 6-3.6v-6.9l-318-183.6-6 3.6zm309-400.2v322.2l12 6.9v-336l-12 6.9zm-39 299.7 12 6.9v-291l-12 6.9v277.2zm21-358.5-291-168v13.8l279 161.1 12-6.9zm-117 67.5-174-100.5V887l162 93.6 12-6.8zm-102 349.8 252 145.5v-13.8l-240-138.6-12 6.9zm39-22.5 213 123v-13.8l-201-116.1-12 6.9zm39-22.6 174 100.5v-13.7l-162-93.6-12 6.8zm-117 67.6 291 168v-13.8l-279-161.1-12 6.9zm21-81.3V987.5l-12-6.9v291l12-6.8zm39-22.5V1010l-12-6.9v246l12-6.8zm-78 45V965.1l-12-6.9v336l12-6.9zm18-1271.4 291 168v-13.8L1419 9l-12 6.9zM717 636l213 123v-13.8L729 629.1l-12 6.9zM0 1285.5l162 93.6v-13.8L0 1271.7v13.8zm69-43.2 12 6.9v-246l-12 6.9v232.2zM0 1375.5l162 93.5v-13.7L0 1361.7v13.8zm30-155.7 12 6.9v-201l-12 6.9v187.2zM0 1330.5l162 93.6v-13.8L0 1316.7v13.8zM51 286.2 0 256.7v13.8l39 22.6 12-6.9zm39-22.5-90-52v13.8l78 45.1 12-6.9zM0 800.6l156 90.1 6-3.6v-6.9L0 786.6v14zm0 619.9 162 93.6v-13.8L0 1406.7v13.8zm147-455.4v322.2l12 6.9v-336l-12 6.9zM0 1510.7l117 67.6 12-7-129-74.4v13.8zm0-45 156 90.1 6-3.6v-6.9L0 1451.7v14zm51-514.4L0 921.8v13.8l39 22.6 12-6.9zm57 313.5 12 6.9v-291l-12 6.9v277.2zm-78 620.4 12 6.9v-201l-12 6.9v187.2zm99-1644L0 166.7v13.8l117 67.6 12-6.9zM90 928.8l-90-52v13.8l78 45.1 12-6.9zm39-22.5L0 831.8v13.8l117 67.6 12-6.9zM77.4 0 162 48.9V35.1L101.3 0H77.4zM69 1907.4l12 6.9v-246l-12 6.9v232.2zm117-964.8v367.2l6 3.5 6-3.5V942.6l-6-3.6-6 3.6zM0 90.3l162 93.6v-13.8L0 76.5v13.8zm0-45 162 93.6v-13.8L0 31.5v13.8zM282.7 0 222 35.1v13.8L306.6 0h-23.9zm77.9 0L222 80.1v13.8L384.5 0h-23.9zm77.9 0L222 125.1v13.8L462.5 0h-24zM186 277.5v367.2l6 3.6 6-3.6V277.5l-6-3.6-6 3.6zM0 0v.3l162 93.6V80.1L23.4 0H0zm0 665.4L162 759v-13.8L0 651.6v13.8zm0-45L162 714v-13.8L0 606.6v13.8zm30-65.7 12 6.9v-201l-12 6.9v187.2zm39 22.5 12 6.9v-246L69 345v232.2zm39 22.5 12 6.9v-291l-12 6.9v277.2zM147 300v322.2l12 6.9v-336l-12 6.9zM0 755.4 162 849v-13.8L0 741.6v13.8zm0-45L162 804v-13.8L0 696.6v13.8zm0-574.9 156 90.1 6-3.6v-6.9L0 121.5v14zM147 1920h12v-296.7l-12 6.9V1920zm1656-341.7 117-67.6v-13.8l-129 74.5 12 6.9zm39 22.5 78-45.1v-13.8l-90 52 12 6.9zm-84-48.6 6 3.6 156-90.1v-14l-162 93.6v6.9zm123-594.1 39-22.5v-13.8l-51 29.5 12 6.8zm39 22.5v-13.8l-12 7 12 6.8zM1761 1920h12v-289.9l-12-6.8V1920zm120-296.7 39-22.6v-13.8l-51 29.5 12 6.9zm-81 296.7h12v-267.4l-12-6.8V1920zm120-274.2v-13.9l-12 7 12 6.9zM1803 248.1l117-67.6v-13.8l-129 74.5 12 6.9zm75 1643.7 12-7V1698l-12-7.2v201zm-36-1621.2 78-45.1v-13.8l-90 52 12 6.9zm-84-48.6 6 3.6 156-90.1v-14l-162 93.6v6.9zm84 713.6 78-45v-13.8l-90 52 12 6.8zm39-642.5 39-22.6v-13.8l-51 29.5 12 6.9zM738 1219.8v-187.3l-12-6.9v201l12-6.8zm1020-332.7 6 3.6 156-90.1v-14l-162 93.6v6.9zm162-571.5v-13.9l-12 7 12 6.9zM609 1920h12v-289.8l-12-6.9V1920zm-423-312.3V1920h12v-312.3l-6-3.6-6 3.6zm39 312.3h12v-289.9l-12-6.9V1920zm306 0h12v-296.7l-12 6.9V1920zm39-312.3V1920h12v-312.3l-6-3.6-6 3.6zm-570-52 78 45.1 12-7-90-51.9v13.8zM501 9 222 170.1v13.8l291-168L501 9zM108 1920h12v-274.2l-12 6.9V1920zm1731-5.7 12-7v-232.2l-12-6.8v246zM0 1600.7l39 22.6 12-7-51-29.4v13.8zM1377 1920h12v-289.8l-12-6.9V1920zm306 0h12v-296.7l-12 6.9V1920zm-345-312.3V1920h12v-312.3l-6-3.6-6 3.6zm384 0V1920h12v-312.3l-6-3.6-6 3.6zM993 1920h12v-289.9l-12-6.9V1920zm-39-312.3V1920h12v-312.3l-6-3.6-6 3.6zM915 1920h12v-296.7l-12 6.9V1920zm384 0h12v-296.7l-12 6.9V1920zm504-1006.9 117-67.5v-13.8l-129 74.5 12 6.8zM606 35.1V42l318 183.6 6-3.6v-6.9L612 31.5l-6 3.6zm150 578.4L930 714v-13.8l-162-93.6-12 6.9zM915 300v322.2l12 6.9v-336l-12 6.9zM639 15.9l291 168v-13.8L651 9l-12 6.9zm-18 606.3V300l-12-6.9v336l12-6.9zm39-22.5V322.5l-12-6.9v291l12-6.9zm-90-322.2v367.2l6 3.6 6-3.6V277.5l-6-3.6-6 3.6zm108 381L930 804v-13.8L690 651.6l-12 6.9zM639 681l291 168v-13.8L651 674.1l-12 6.9zM453 1907.4l12 6.9v-246l-12 6.9v232.2zm117-964.8v367.2l6 3.5 6-3.5V942.6l-6-3.6-6 3.6zM492 1920h12v-274.2l-12 6.9V1920zm-228 0h12v-267.4l-12-6.8V1920zm120-274.2 162-93.6v-13.8l-174 100.5 12 6.9zM699 577.2V345l-12-6.9v246l12-6.9zM303 1914.3l12-7v-232.2l-12-6.8v246zm111-29.4 12 6.9v-201l-12 6.9v187.2zm-72 6.9 12-7V1698l-12-7.2v201zM876 599.7l12 6.9v-291l-12 6.9v277.2zm39 365.4v322.2l12 6.9v-336l-12 6.9zm-198 336 213 123v-13.8l-201-116.1-12 6.9zm21-746.4V367.5l-12-6.9v201l12-6.9zm18 723.8L930 1379v-13.7l-162-93.6-12 6.8zm-117 67.6 291 168v-13.8l-279-161.1-12 6.9zm-18-58.8V965.1l-12-6.9v336l12-6.9zm78-45V1010l-12-6.9v246l12-6.8zm-39 22.5V987.5l-12-6.9v291l12-6.8zm18 58.8 252 145.5v-13.8l-240-138.6-12 6.9zM819 286.2l-213-123V177l201 116.1 12-6.9zm-21 268.5 12 6.9v-201l-12 6.9v187.2zm-18-246L606 208.2V222l162 93.6 12-6.9zm57 268.5 12 6.9v-246l-12 6.9v232.2zm-231 123v6.9l318 183.6 6-3.6v-6.9L612 696.6l-6 3.6zm291-459-291-168V87l279 161.1 12-6.9zM345 1623.3l201-116.1v-13.8l-213 123 12 6.9zM858 263.7 606 118.2V132l240 138.6 12-6.9zm-633 29.4v336l12-6.9V300l-12-6.9zm198 336L222 745.2V759l213-123-12-6.9zm-81-268.5v201l12-6.9V367.5l-12-6.9zm84 0-12 6.9v187.2l12 6.9v-201zm-123-22.5v246l12-6.9V345l-12-6.9zm-81-123v6.9l6 3.6L546 42v-6.9l-6-3.6-318 183.6zm45 698L546 752v-13.7l-291 168 12 6.8zm117-306.5-162 93.6V714l174-100.5-12-6.9zm-120-291v291l12-6.9V322.5l-12-6.9zm198 336L222 790.2V804l252-145.5-12-6.9zM222 880.2v6.9l6 3.6 318-183.6v-6.9l-6-3.6-318 183.6zm162-564.6L546 222v-13.8L372 308.7l12 6.9zm-78-45L546 132v-13.8L294 263.7l12 6.9zm39 22.5L546 177v-13.8l-213 123 12 6.9zm-39 1307.7 240-138.6v-13.8l-252 145.5 12 6.9zM267 248.1 546 87V73.2l-291 168 12 6.9zm276 45-12 6.9v322.2l12 6.9v-336zm-42 381L222 835.2V849l291-168-12-6.9zm3-358.5-12 6.9v277.2l12 6.9v-291zm-39 22.5-12 6.9v232.2l12 6.9v-246zM306 935.6 546 797v-13.7L294 928.8l12 6.8zm-3 67.6v246l12-6.9V1010l-12-6.8zm39 22.5v201l12-6.9v-187.3l-12-6.8zm-117-67.5v336l12-6.9V965.1l-12-6.9zm198 335.9-201 116.1v13.8l213-123-12-6.9zm-156 284.2 279-161.1v-13.8l-291 168 12 6.9zm117-306.7-162 93.6v13.8l174-100.5-12-6.9zm-162 273.7v6.9l6 3.6 318-183.6v-6.9l-6-3.6-318 183.6zm42-564.6v291l12-6.9V987.5l-12-6.8zm240 0-12 6.9v277.2l12 6.9v-291zm39-22.5-12 6.9v322.2l12 6.9v-336zm-117 67.5-12 6.9v187.2l12 6.9v-201zm-81-67.6L546 842v-13.7l-213 123 12 6.8zm39 22.5L546 887v-13.7L372 973.8l12 6.8zm78 336-240 138.6v13.8l252-145.5-12-6.9zm39 22.5-279 161.1v13.8l291-168-12-6.9zm-36-335.9-12 6.9v232.2l12 6.9v-246z" fill="#80cbc4"/></svg>