<svg xmlns="http://www.w3.org/2000/svg" viewBox="0 0 1920 1920" xml:space="preserve"><path fill="#4db7ad" d="M0 0h1920v1920H0z"/><path d="m1167 916.6 87 50.3-6 3.4-81-46.8v-6.9zm66 173.3v-93.6l-6-3.5v100.5l6-3.4zm-19.5 11.2V985l-6-3.5v123l6-3.4zm49.5-11.2 6 3.5V992.8l-6 3.4v93.7zm39 22.5 6 3.5V970.3l-6 3.4v138.7zm-19.5-11.3 6 3.5v-123l-6 3.4v116.1zm-88.5 11.3V973.8l-6-3.5v145.5l6-3.4zM1167 901l100.5 58 6-3.4-106.5-61.5v6.9zm0-22.5 120 69.3 6-3.5-126-72.8v7zm7.5 245.1V962.5l-6-3.4v168l6-3.5zm147-161.1v161.1l6 3.5v-168l-6 3.4zm7.5-42.4-159-91.8-3 1.8v3.4l159 91.8 3-1.8v-3.4zm0 242.5-81-46.8-6 3.4 87 50.3v-6.9zm0 67.5-139.5-80.5-6 3.5 145.5 84v-7zm0-45-100.5-58-6 3.5L1329 1192v-6.9zm0 22.5-120-69.3-6 3.5 126 72.8v-7zm-66 214.8 6 3.5v-100.5l-6 3.4v93.6zm-30 0V1329l-6-3.5V1426l6-3.6zm-66-188.8 100.5 58 6-3.5-106.5-61.5v7zm0 22.5 81 46.8 6-3.4-87-50.3v6.9zm0-407v6.9l139.5 80.6 6-3.5-145.5-84zm27 595.8v-138.6l-6-3.5v145.5l6-3.4zm88.5-11.2 6 3.5v-123l-6 3.4v116.1zm19.5 11.2 6 3.5v-145.5l-6 3.4v138.6zm-135-233.8 120 69.3 6-3.5-126-72.8v7zm46.5 222.6v-116.1l-6-3.5v123l6-3.4zm108-138.6v161.1l6 3.5v-168l-6 3.4zm7.5 200.1-81-46.8-6 3.4 87 50.3v-6.9zm0-242.6-159-91.8-3 1.8v3.5l159 91.8 3-1.8v-3.5zm0 265.1-100.5-58-6 3.4 106.5 61.5v-6.9zm0 45-139.5-80.5-6 3.4 145.5 84v-6.9zm-154.5-106.5v-161.1l-6-3.5v168l6-3.4zm154.5 84-120-69.3-6 3.4 126 72.8v-6.9zm0-710.1-81-46.8-6 3.5 87 50.3v-7zm-162-594.2 100.5 58.1 6-3.5L1167 229v6.9zm96 188.9 6 3.5V327.7l-6 3.4v93.7zm-96-166.4 81 46.8 6-3.5-87-50.3v7zm0-74.4v6.9l139.5 80.6 6-3.5-145.5-84zm193.5 442.5v168l6-3.4V630l-6-3.5zM1302 447.3l6 3.5V305.2l-6 3.4v138.7zm-19.5-11.3 6 3.5v-123l-6 3.4V436zM1167 213.4l120 69.3 6-3.5-126-72.8v7zm66 211.4v-93.6l-6-3.4v100.5l6-3.5zm96 72.7-81-46.8-6 3.4 87 50.3v-6.9zm0 22.5-100.5-58-6 3.4 106.5 61.5V520zm-7.5-222.6v161.1l6 3.5V294l-6 3.4zm7.5 245.1-120-69.3-6 3.4 126 72.8v-6.9zm-154.5-84V297.4l-6-3.4v168l6-3.5zm19.5-11.2V308.7l-6-3.4v145.5l6-3.5zM1329 565l-139.5-80.5-6 3.4 145.5 84V565zm-162 616.7v6.9l139.5 80.6 6-3.5-145.5-84zm162-594.2-159-91.8-3 1.8v3.5l159 91.8 3-1.8v-3.5zm-162 3.5 81 46.8 6-3.4-87-50.3v6.9zm66 166.3v-93.6l-6-3.5v100.5l6-3.4zm-66-188.8 100.5 58 6-3.4-106.5-61.5v6.9zm135 211.3 6 3.4V637.8l-6 3.5v138.5zm-88.5-11.2V652.5l-6-3.5v123l6-3.4zM1167 546l120 69.3 6-3.4-126-72.8v6.9zm115.5 222.6 6 3.4V649l-6 3.5v116.1zm-19.5-11.3 6 3.4V660.3l-6 3.5v93.5zm66 95.3-100.5-58.1-6 3.5 106.5 61.5v-6.9zm-162-336v6.9l139.5 80.5 6-3.4-145.5-84zM1321.5 630v161.1l6 3.4v-168l-6 3.5zm-147 161.1V630l-6-3.5v168l6-3.4zm19.5-11.3V641.2l-6-3.5v145.5l6-3.4zm135 117.8L1189.5 817l-6 3.5 145.5 84v-6.9zm0-22.5-120-69.3-6 3.5 126 72.8v-7zm30-348.2 106.5-61.5-6-3.4-100.5 58v6.9zm102-199.2-6 3.4v93.6l6 3.5V327.7zm-102 221.7 126-72.8-6-3.4-120 69.3v6.9zm0 22.5 145.5-84-6-3.4L1359 565v6.9zM1329 255l-159-91.8-3 1.8v3.4l159 91.8 3-1.8V255zm151.5 61.5-6 3.4V436l6 3.5v-123zM1380 305.2v145.5l6-3.5V308.7l-6-3.5zm19.5 11.3v123l6-3.5V319.9l-6-3.4zm19.5 11.2v100.5l6-3.5v-93.6l-6-3.4zm100.5-33.7-6 3.4v161.1l6 3.5V294zm1.5-110-145.5 84 6 3.5 139.5-80.6V184zm-21 121.2-6 3.4v138.6l6 3.5V305.2zm21-98.7-126 72.8 6 3.5 120-69.3v-7zm0-41.5-3-1.8-159 91.8v3.4l3 1.8 159-91.8V165zm-160.5 129v168l6-3.5V297.4l-6-3.4zm160.5-42.5-87 50.3 6 3.5 81-46.8v-7zm0-22.5-106.5 61.5 6 3.5 100.5-58.1V229zm-141 408.8v145.5l6-3.4V641.2l-6-3.4zM1359 882l126-72.8-6-3.5-120 69.3v7zm0-22.5 106.5-61.5-6-3.5-100.5 58.1v6.9zm102-199.2-6 3.5v93.6l6 3.4V660.3zm19.5-11.3-6 3.5v116.1l6 3.4V649zm-75-649h-6v106.9l6-3.4V0zM1359 904.5l145.5-84-6-3.5-139.5 80.6v6.9zm60-244.2v100.5l6-3.4v-93.6l-6-3.5zm-19.5-11.3v123l6-3.4V652.5l-6-3.5zm-70.5 936.2-159-91.8-3 1.8v3.5l159 91.8 3-1.8v-3.5zm192-1068.6-145.5 84 6 3.4 139.5-80.5v-6.9zm0 22.5-126 72.8 6 3.4 120-69.3v-6.9zm0-41.6-3-1.8-159 91.8v3.5l3 1.8 159-91.8v-3.5zm-162 6.9 87-50.3-6-3.4-81 46.8v6.9zm160.5 122.1-6 3.5v161.1l6 3.4v-168zm-19.5 11.3-6 3.5v138.6l6 3.4V637.8zm21-53.7-87 50.3 6 3.4 81-46.8v-6.9zm0-22.5-106.5 61.5 6 3.4 100.5-58v-6.9zm-238.5 1204.6 6 3.4v-123l-6 3.4v116.2zM1167 1543.6l120 69.3 6-3.4-126-72.8v6.9zm0 22.5 100.5 58 6-3.5-106.5-61.5v7zm96 188.9 6 3.4v-100.5l-6 3.5v93.6zm39 22.5 6 3.4v-145.5l-6 3.4v138.7zm-127.5 11.2v-161.1l-6-3.5v168l6-3.4zm-7.5-274.5v6.9l139.5 80.6 6-3.4-145.5-84.1zm66 240.8v-93.6l-6-3.5v100.5l6-3.4zm96 72.7-81-46.8-6 3.4 87 50.3v-6.9zm-75-195.7-87-50.3v6.9l81 46.8 6-3.4zm-40.5 134.2v-116.1l-6-3.5v123l6-3.4zm115.5 84-100.5-58.1-6 3.5 106.5 61.5v-6.9zm-7.5-222.6v161.1l6 3.4v-168l-6 3.5zm7.5 245.1-120-69.3-6 3.5 126 72.8v-7zm-135-95.2v-138.6l-6-3.5v145.5l6-3.4zm135 117.7-139.5-80.6-6 3.5 145.5 84v-6.9zm12-278.8V1800l3 1.8 3-1.8v-183.6l-3-1.8-3 1.8zm18-1422 106.5-61.5-6-3.4-100.5 58v6.9zm-12 91.8-3-1.8-3 1.8v183.6l3 1.8 3-1.8V286.2zm12-69.3 126-72.8-6-3.4-120 69.3v6.9zM1386 0h-6v118.2l6-3.4V0zm94.5 0h-6v103.5l6 3.4V0zM1359 239.4l145.5-84-6-3.4-139.5 80.5v6.9zM1500 0h-6v114.7l6 3.4V0zm-141 171.9 87-50.3-6-3.4-81 46.8v6.9zM1461 0h-6v92.2l6 3.4V0zm52.5 126 6 3.4V0h-6v126zM1347 618.7l-3-1.8-3 1.8v183.6l3 1.8 3-1.8V618.7zm0 332.6-3-1.8-3 1.8v183.6l3 1.8 3-1.8V951.3zm0 332.5-3-1.8-3 1.8v183.6l3 1.8 3-1.8v-183.6zM1366.5 126V0h-6v129.4l6-3.4zm-25.5 11.2 3 1.8 3-1.8V0h-6v137.2zM1213.5 436V319.9l-6-3.4v123l6-3.5zM996 305.2v145.5l6-3.5V308.7l-6-3.5zM976.5 294v168l6-3.5V297.4l-6-3.4zm39 22.5v123l6-3.5V319.9l-6-3.4zM975 504.4l87-50.3-6-3.4-81 46.8v6.9zm162 57.2-106.5 61.5 6 3.4 100.5-58v-6.9zm0 332.5-106.5 61.5 6 3.4 100.5-58v-6.9zm-102-566.4v100.5l6-3.5v-93.6l-6-3.4zm102 169.8-3-1.8-159 91.8v3.5l3 1.8 159-91.8v-3.5zm0 19.1-145.5 84 6 3.4 139.5-80.5v-6.9zm-21-211.4-6 3.4v138.6l6 3.5V305.2zm19.5-11.2-6 3.4v161.1l6 3.5V294zM975 571.9l145.5-84-6-3.4L975 565v6.9zm0-45 106.5-61.5-6-3.4L975 520v6.9zm102-199.2-6 3.4v93.6l6 3.5V327.7zM975 549.4l126-72.8-6-3.4-120 69.3v6.9zm121.5-232.9-6 3.4V436l6 3.5v-123zm40.5 222.6-126 72.8 6 3.4 120-69.3v-6.9zm-102 121.2v100.5l6-3.4v-93.6l-6-3.5zm-58.5-33.8v168l6-3.4V630l-6-3.5zm19.5 11.3v145.5l6-3.4V641.2l-6-3.4zm19.5 11.2v123l6-3.4V652.5l-6-3.5zM975 837l87-50.3-6-3.5-81 46.8v7zm162-6.8-3-1.8-159 91.8v3.4l3 1.8 159-91.8v-3.4zm0 41.4-126 72.8 6 3.4 120-69.3v-6.9zm0-22.5-145.5 84 6 3.4L1137 856v-6.9zm-21-211.3-6 3.5v138.6l6 3.4V637.8zM975 904.5l145.5-84-6-3.5L975 897.6v6.9zm162-320.4-87 50.3 6 3.4 81-46.8v-6.9zM975 859.5l106.5-61.5-6-3.5L975 852.6v6.9zm160.5-233-6 3.5v161.1l6 3.4v-168zm-39 22.5-6 3.5v116.1l6 3.4V649zm-19.5 11.3-6 3.5v93.6l6 3.4V660.3zM975 882l126-72.8-6-3.5L975 875v7zm162-630.5-87 50.3 6 3.5 81-46.8v-7zM870 1632.1l-87-50.3v6.9l81 46.8 6-3.4zm93-1345.9-3-1.8-3 1.8v183.6l3 1.8 3-1.8V286.2zM790.5 1788.7v-161.1l-6-3.5v168l6-3.4zm-7.5-274.5v6.9l139.5 80.5 6-3.5-145.5-83.9zm174 102.2V1800l3 1.8 3-1.8v-183.6l-3-1.8-3 1.8zm6-332.6-3-1.8-3 1.8v183.6l3 1.8 3-1.8v-183.6zm0-665.1-3-1.8-3 1.8v183.6l3 1.8 3-1.8V618.7zm0 332.6-3-1.8-3 1.8v183.6l3 1.8 3-1.8V951.3zm-45 826.2 6 3.4v-145.5l-6 3.4v138.7zm-88.5-11.3v-116.1l-6-3.5v123l6-3.4zm-19.5 11.3v-138.6l-6-3.5v145.5l6-3.4zm39-22.5v-93.6l-6-3.5v100.5l6-3.4zm-66-188.9 100.5 58 6-3.5-106.5-61.4v6.9zm115.5 200.1 6 3.4v-123l-6 3.4v116.2zM1137 229l-106.5 61.5 6 3.5 100.5-58.1V229zM783 1543.6l120 69.3 6-3.5-126-72.8v7zm96 211.5 6 3.5v-100.5l-6 3.4v93.6zM1041 0h-6v95.7l6-3.4V0zm-19.5 0h-6v106.9l6-3.4V0zM957 137.2l3 1.8 3-1.8V0h-6v137.2zM1096.5 0h-6v103.5l6 3.4V0zm40.5 165-3-1.8L975 255v3.4l3 1.8 159-91.8V165zM1116 0h-6v114.7l6 3.5V0zm21 206.5-126 72.8 6 3.5 120-69.3v-7zm0-22.5-145.5 84 6 3.5 139.5-80.6V184zM1077 0h-6v92.2l6 3.4V0zm-75 0h-6v118.2l6-3.4V0zm-19.5 126V0h-6v129.4l6-3.4zM975 239.4l145.5-84-6-3.4L975 232.5v6.9zM1129.5 126l6 3.4V0h-6v126zM975 216.9l126-72.8-6-3.4L975 210v6.9zm0-45 87-50.3-6-3.4-81 46.8v6.9zm0 22.5 106.5-61.5-6-3.4-100.5 58v6.9zm180 756.9-3-1.8-3 1.8v183.6l3 1.8 3-1.8V951.3zm-19.5 840.9v-168l-6 3.5v161.1l6 3.4zm1.5-210.5-87 50.3 6 3.4 81-46.8v-6.9zm-21 53.7-6 3.5v138.6l6 3.4v-145.5zm-139.5-11.2v168l6-3.4v-161.1l-6-3.5zM1329 232.5l-139.5-80.6-6 3.4 145.5 84v-6.8zM996 1635.4v145.5l6-3.4v-138.6l-6-3.5zm159-1349.2-3-1.8-3 1.8v183.6l3 1.8 3-1.8V286.2zm0 332.5-3-1.8-3 1.8v183.6l3 1.8 3-1.8V618.7zm-6 997.7V1800l3 1.8 3-1.8v-183.6l-3-1.8-3 1.8zm-204 278.8-139.5-80.6-6 3.5 145.5 84v-6.9zm30-15.6 126-72.8-6-3.5-120 69.3v7zm0 22.7 145.5-84-6-3.4-139.5 80.5v6.9zm102-244.4-6 3.5v93.6l6 3.5v-100.6zm-42 0v100.5l6-3.4v-93.6l-6-3.5zm-19.5-11.2v123l6-3.4v-116.1l-6-3.5zM975 1857.1l106.5-61.5-6-3.5-100.5 58v7zm0-22.5 87-50.3-6-3.5-81 46.8v7zm219-1719.9V0h-6v118.2l6-3.5zm19.5-11.2V0h-6v106.9l6-3.4zM1329 210l-120-69.3-6 3.4 126 72.8V210zm-96-117.8V0h-6v95.7l6-3.5zm36 3.5V0h-6v92.2l6 3.5zm39 22.5V0h-6v114.7l6 3.5zm-19.5-11.3V0h-6v103.5l6 3.4zM1155 1283.8l-3-1.8-3 1.8v183.6l3 1.8 3-1.8v-183.6zm174-1096.3-100.5-58.1-6 3.4 106.5 61.5v-6.8zm-162 1666.2 114.9 66.3h12l-126.8-73.2v6.9zm-18-1716.5 3 1.8 3-1.8V0h-6v137.2zm180 27.8-81-46.8-6 3.4 87 50.3V165zm-162 1704.3v6.9l75.9 43.8h12l-87.9-50.7zM1321.5 126l6 3.4V0h-6v126zm-147 0V0h-6v129.4l6-3.4zm-7.5 1772.7 36.9 21.3h12l-48.9-28.2v6.9zm-192-374.1 106.5-61.5-6-3.5-100.5 58v7zm0-355.1 87-50.3-6-3.4-81 46.8v6.9zm21-199.2v145.5l6-3.5V973.8l-6-3.5zm-19.5-11.2v168l6-3.5V962.5l-6-3.4zm39 22.5v123l6-3.5V985l-6-3.4zm121.5 181.2-3-1.8-159 91.8v3.5l3 1.8 159-91.8v-3.5zm0 41.4-126 72.8 6 3.5 120-69.3v-7zm0-22.5-145.5 84 6 3.5 139.5-80.6v-6.9zm-102-188.9v100.5l6-3.5v-93.6l-6-3.4zM975 1192l106.5-61.5-6-3.4-100.5 58v6.9zm162 34.7-106.5 61.5 6 3.5 100.5-58.1v-6.9zm-21-256.4-6 3.4v138.6l6 3.5V970.3zm19.5-11.2-6 3.4v161.1l6 3.5v-168zM975 1237.2l145.5-84-6-3.4-139.5 80.5v6.9zm102-244.4-6 3.4v93.6l6 3.5V992.8zm-102 221.7 126-72.8-6-3.4-120 69.3v6.9zm162 344.7-106.5 61.5 6 3.4 100.5-58v-6.9zm-40.5-577.6-6 3.4v116.1l6 3.5v-123zM975 1502.1l87-50.3-6-3.5-81 46.8v7zm60-176.6v100.4l6-3.5V1329l-6-3.5zm-58.5-33.9v168l6-3.5V1295l-6-3.4zm39 22.5v123l6-3.5v-116.1l-6-3.4zm-19.5-11.2v145.5l6-3.5v-138.6l-6-3.4zm141 233.8-126 72.8 6 3.4 120-69.3v-6.9zm0-41.4-3-1.8-159 91.8v3.4l3 1.8 159-91.8v-3.4zm0 18.9-145.5 84 6 3.4 139.5-80.5v-6.9zm-60-188.8-6 3.5v93.6l6 3.5v-100.6zm39-22.5-6 3.5V1445l6 3.4v-145.5zm-141 266.8 145.5-84-6-3.5-139.5 80.6v6.9zm162-653.1-87 50.3 6 3.4 81-46.8v-6.9zm-1.5 375-6 3.5v161.1l6 3.4v-168zm-39 22.5-6 3.5v116.1l6 3.4v-123zm40.5-64.9-87 50.3 6 3.5 81-46.8v-7zm-162 297.9 126-72.8-6-3.5-120 69.3v7zm121.5 99.6-6 3.5v116.1l6 3.4v-123zm748.5-1319-6 3.4v93.6l6 3.5V327.7zM1770 0h-6v118.2l6-3.4V0zm114 305.2-6 3.4v138.6l6 3.5V305.2zM1359 837l87-50.3-6-3.5-81 46.8v7zm544.5-543-6 3.4v161.1l6 3.5V294zM1743 549.4l126-72.8-6-3.4-120 69.3v6.9zm0 22.5 145.5-84-6-3.4L1743 565v6.9zm121.5-255.4-6 3.4V436l6 3.5v-123zm40.5-110-126 72.8 6 3.5 120-69.3v-7zM1845 0h-6v92.2l6 3.4V0zm19.5 0h-6v103.5l6 3.4V0zm19.5 0h-6v114.7l6 3.4V0zm-94.5 0h-6v106.9l6-3.4V0zM1905 165l-3-1.8-159 91.8v3.4l3 1.8 159-91.8V165zm0 19-145.5 84 6 3.5 139.5-80.6V184zm-354 1049.6 100.5 58 6-3.5-106.5-61.5v7zm354-982.1-87 50.3 6 3.5 81-46.8v-7zm0 287.6-126 72.8 6 3.4 120-69.3v-6.9zm-21 98.7-6 3.5v138.6l6 3.4V637.8zm19.5-11.3-6 3.5v161.1l6 3.4v-168zM1743 526.9l106.5-61.5-6-3.4-100.5 58v6.9zm162 57.2-87 50.3 6 3.4 81-46.8v-6.9zm-162 320.4 145.5-84-6-3.5-139.5 80.6v6.9zm0-22.5 126-72.8-6-3.5-120 69.3v7zm121.5-233-6 3.5v116.1l6 3.4V649zm40.5-87.4-106.5 61.5 6 3.4 100.5-58v-6.9zm-121.5-245.1v123l6-3.5V319.9l-6-3.4zm-19.5-11.3v145.5l6-3.5V308.7l-6-3.5zm81 355.1-6 3.5v93.6l6 3.4V660.3zm60-162.8-3-1.8-159 91.8v3.5l3 1.8 159-91.8v-3.5zm0 19.1-145.5 84 6 3.4 139.5-80.5v-6.9zM1744.5 294v168l6-3.5V297.4l-6-3.4zm-1.5 210.4 87-50.3-6-3.4-81 46.8v6.9zm60-176.7v100.5l6-3.5v-93.6l-6-3.4zm-90 1567.5-139.5-80.6-6 3.5 145.5 84v-6.9zm-135-117.7v-138.6l-6-3.5v145.5l6-3.4zm135 95.2-120-69.3-6 3.5 126 72.7v-6.9zm0-22.5-100.5-58.1-6 3.5 106.5 61.5v-6.9zm-115.5-84v-116.1l-6-3.5v123l6-3.4zM1743 171.9l87-50.3-6-3.4-81 46.8v6.9zm-96 1583.2 6 3.5v-100.5l-6 3.4v93.6zm-30 0v-93.6l-6-3.4v100.5l6-3.5zm49.5-321.4 6 3.5v-123l-6 3.4v116.1zm19.5 11.2 6 3.5v-145.5l-6 3.4v138.6zm-135-233.8 120 69.3 6-3.5-126-72.8v7zm115.5 555.1 6 3.4v-123l-6 3.4v116.2zM1551 1181.7v6.9l139.5 80.5 6-3.5-145.5-83.9zm154.5 445.9v161.1l6 3.4v-168l-6 3.5zm7.5-42.4-159-91.8-3 1.8v3.5l159 91.8 3-1.8v-3.5zm0 242.5-81-46.8-6 3.4 87 50.3v-6.9zm-162-261.6 100.5 58 6-3.5-106.5-61.5v7zM1750.5 126V0h-6v129.4l6-3.4zm-25.5 11.2 3 1.8 3-1.8V0h-6v137.2zm172.5-11.2 6 3.4V0h-6v126zM1725 1616.4V1800l3 1.8 3-1.8v-183.6l-3-1.8-3 1.8zm-174-72.8 120 69.3 6-3.5-126-72.8v7zm192-1349.2 106.5-61.5-6-3.4-100.5 58v6.9zm0 45 145.5-84-6-3.4-139.5 80.5v6.9zm0-22.5 126-72.8-6-3.4-120 69.3v6.9zm-12 1066.9-3-1.8-3 1.8v183.6l3 1.8 3-1.8v-183.6zm0-332.5-3-1.8-3 1.8v183.6l3 1.8 3-1.8V951.3zm-45 826.2 6 3.4v-145.5l-6 3.4v138.7zm-127.5 11.2v-161.1l-6-3.5v168l6-3.4zm-7.5-274.5v6.9l139.5 80.5 6-3.5-145.5-83.9zm180-895.5-3-1.8-3 1.8v183.6l3 1.8 3-1.8V618.7zm0-332.5-3-1.8-3 1.8v183.6l3 1.8 3-1.8V286.2zM1638 1632l-87-50.3v6.9l81 46.8 6-3.4zM1809 0h-6v95.7l6-3.4V0zm96 1536.7-126 72.8 6 3.4 120-69.3v-6.9zm-162 365.6 145.5-84-6-3.4-139.5 80.5v6.9zm121.5-255.6-6 3.5v116.1l6 3.5v-123.1zm-61.5 11.2v100.5l6-3.4v-93.6l-6-3.5zm81-22.5-6 3.5v138.6l6 3.5v-145.6zm-141 221.7 106.5-61.5-6-3.5-100.5 58v7zm0 22.5 126-72.8-6-3.5-120 69.3v7zm0-355 106.5-61.5-6-3.5-100.5 58v7zm162 34.6-106.5 61.5 6 3.4 100.5-58v-6.9zm-121.5-245.1v123l6-3.5v-116.1l-6-3.4zm121.5 200.1-145.5 84 6 3.4 139.5-80.5v-6.9zm-102-188.8v100.5l6-3.5V1329l-6-3.6zm-39-22.5v145.5l6-3.5v-138.6l-6-3.4zm-19.5-11.3v168l6-3.5V1295l-6-3.4zm160.5 203.6-3-1.8-159 91.8v3.5l3 1.8 159-91.8v-3.5zm-162 6.9 87-50.3-6-3.5-81 46.8v7zm102 155.8-6 3.5v93.6l6 3.5v-100.6zM3 1616.4l-3-1.8v187.2l3-1.8v-183.6zm1914-149 3 1.8V1282l-3 1.8v183.6zm0 332.6 3 1.8v-187.2l-3 1.8V1800zM3 1283.8l-3-1.8v187.2l3-1.8v-183.6zm0-332.5-3-1.8v187.2l3-1.8V951.3zm1914-481.5 3 1.8V284.4l-3 1.8v183.6zm0 665.1 3 1.8V949.5l-3 1.8v183.6zm0-332.6 3 1.8V616.9l-3 1.8v183.6zm-12 779.4-87 50.3 6 3.4 81-46.8v-6.9zm-160.5 42.5v168l6-3.4v-161.1l-6-3.5zM3 618.7l-3-1.8v187.2l3-1.8V618.7zm1761 1016.7v145.5l6-3.4v-138.6l-6-3.5zm-21 199.2 87-50.3-6-3.5-81 46.8v7zM3 286.2l-3-1.8v187.2l3-1.8V286.2zm1900.5 1506v-168l-6 3.5v161.1l6 3.4zm-120-145.5v123l6-3.4v-116.1l-6-3.5zm81-665.1-6 3.4v116.1l6 3.5v-123zm40.5-110-126 72.8 6 3.4 120-69.3v-6.9zm-1.5 87.5-6 3.4v161.1l6 3.5v-168zm-19.5 11.2-6 3.4v138.6l6 3.5V970.3zm21-76.2-106.5 61.5 6 3.4 100.5-58v-6.9zm0 22.5-87 50.3 6 3.4 81-46.8v-6.9zm-162 297.9 126-72.8-6-3.4-120 69.3v6.9zm0 22.7 145.5-84-6-3.4-139.5 80.5v6.9zm0-377.7 106.5-61.5-6-3.5-100.5 58.1v6.9zm162-29.4-3-1.8-159 91.8v3.4l3 1.8 159-91.8v-3.4zM1783.5 649v123l6-3.4V652.5l-6-3.5zm19.5 11.3v100.5l6-3.4v-93.6l-6-3.5zm-39-22.5v145.5l6-3.4V641.2l-6-3.4zM1743 837l87-50.3-6-3.5-81 46.8v7zm102 155.8-6 3.4v93.6l6 3.5V992.8zm60-143.7-145.5 84 6 3.4L1905 856v-6.9zm-160.5-222.6v168l6-3.4V630l-6-3.5zm120 687.6-6 3.5v116.1l6 3.5v-123.1zM1743 1192l106.5-61.5-6-3.4-100.5 58v6.9zm162 57.2-87 50.3 6 3.5 81-46.8v-7zm-21 53.7-6 3.5V1445l6 3.5v-145.6zm21-76.2-106.5 61.5 6 3.5 100.5-58.1v-6.9zm-60 98.7-6 3.5v93.6l6 3.5v-100.6zm-102 244.3 145.5-84-6-3.5-139.5 80.6v6.9zm0-22.6 126-72.8-6-3.5-120 69.3v7zm162-342.9-126 72.8 6 3.5 120-69.3v-7zm-1.5 87.4-6 3.5v161.1l6 3.5v-168.1zm-120-310v123l6-3.5V985l-6-3.4zm19.5 11.2v100.5l6-3.5v-93.6l-6-3.4zm-39-22.5v145.5l6-3.5V973.8l-6-3.5zm141 211.4-145.5 84 6 3.5 139.5-80.6v-6.9zm0-19.1-3-1.8-159 91.8v3.5l3 1.8 159-91.8v-3.5zm-160.5-203.5v168l6-3.5V962.5l-6-3.4zm-1.5 210.4 87-50.3-6-3.4-81 46.8v6.9zM1905 229l-106.5 61.5 6 3.5 100.5-58.1V229zm-546 1628.1 106.5-61.5-6-3.5-100.5 58v7zm0 22.5 126-72.8-6-3.5-120 69.3v7zm60-221.7v100.5l6-3.4v-93.6l-6-3.5zm228-235.3 6 3.5v-100.5l-6 3.4v93.6zm-247.5 224.1v123l6-3.4v-116.1l-6-3.5zm-40.5 187.9 87-50.3-6-3.5-81 46.8v7zm1.5-210.4v168l6-3.4v-161.1l-6-3.5zm19.5 11.2v145.5l6-3.4v-138.6l-6-3.5zm141-98.7-126 72.8 6 3.4 120-69.3v-6.9zm0-22.5-145.5 84 6 3.4 139.5-80.5v-6.9zm-162-12.1 87-50.3-6-3.5-81 46.8v7zm162-6.9-3-1.8-159 91.8v3.5l3 1.8 159-91.8v-3.5zm0 64-106.5 61.5 6 3.4 100.5-58v-6.9zm-40.5 87.5-6 3.5v116.1l6 3.5v-123.1zM1359 1902.3l145.5-84-6-3.4-139.5 80.5v6.9zm141-266.9-6 3.5v138.6l6 3.5v-145.6zm19.5 156.8v-168l-6 3.5v161.1l6 3.4zm39-1666.2V0h-6v129.4l6-3.4zm154.5 39-81-46.8-6 3.4 87 50.3V165zm-7.5-39 6 3.4V0h-6v126zM1551 1898.7l36.9 21.3h12l-48.9-28.2v6.9zM1713 210l-120-69.3-6 3.4 126 72.8V210zm-135-95.3V0h-6v118.2l6-3.5zm-27 1754.6v6.9l75.9 43.8h12l-87.9-50.7zm162-1681.8-100.5-58.1-6 3.4 106.5 61.5v-6.8zm-192 1394.2-87 50.3 6 3.4 81-46.8v-6.9zm18-963-3-1.8-3 1.8v183.6l3 1.8 3-1.8V618.7zm0-332.5-3-1.8-3 1.8v183.6l3 1.8 3-1.8V286.2zm0 665.1-3-1.8-3 1.8v183.6l3 1.8 3-1.8V951.3zm-6 665.1V1800l3 1.8 3-1.8v-183.6l-3-1.8-3 1.8zm0-1479.2 3 1.8 3-1.8V0h-6v137.2zm18 1716.5 114.9 66.3h12l-126.8-73.2v6.9zm-12-569.9-3-1.8-3 1.8v183.6l3 1.8 3-1.8v-183.6zm-18-367.2-87 50.3 6 3.4 81-46.8v-6.9zm-60 76.2-6 3.4v93.6l6 3.5V992.8zm-102 221.7 126-72.8-6-3.4-120 69.3v6.9zm1.5-255.4v168l6-3.5V962.5l-6-3.4zM1359 1192l106.5-61.5-6-3.4-100.5 58v6.9zm40.5-210.4v123l6-3.5V985l-6-3.4zm-19.5-11.3v145.5l6-3.5V973.8l-6-3.5zm39 22.5v100.5l6-3.5v-93.6l-6-3.4zm-60 244.2 145.5-84-6-3.4-139.5 80.5v6.9zm121.5-255.4-6 3.4v116.1l6 3.5v-123zm40.5-110-126 72.8 6 3.4 120-69.3v-6.9zm0-22.5-145.5 84 6 3.4L1521 856v-6.9zm0-19-3-1.8-159 91.8v3.4l3 1.8 159-91.8v-3.4zm-1.5 129-6 3.4v161.1l6 3.5v-168zm-19.5 11.2-6 3.4v138.6l6 3.5V970.3zm97.5-866.8V0h-6v106.9l6-3.4zM1521 894.1l-106.5 61.5 6 3.4 100.5-58v-6.9zm-141 408.8v145.5l6-3.5v-138.6l-6-3.4zm-21 244.2 126-72.8-6-3.5-120 69.3v7zm102-221.7-6 3.5v93.6l6 3.5v-100.6zm-102 199.2 106.5-61.5-6-3.5-100.5 58v7zm121.5-210.5-6 3.5v116.1l6 3.5v-123.1zm-61.5 11.3v100.5l6-3.5V1329l-6-3.6zm-58.5-33.8v168l6-3.5V1295l-6-3.4zm-1.5 278.1 145.5-84-6-3.5-139.5 80.6v6.9zm40.5-255.6v123l6-3.5v-116.1l-6-3.4zm120-22.5-6 3.5v161.1l6 3.5v-168.1zm1.5-109.9-145.5 84 6 3.5 139.5-80.6v-6.9zm0-19.1-3-1.8-159 91.8v3.5l3 1.8 159-91.8v-3.5zm0 41.6-126 72.8 6 3.5 120-69.3v-7zm-162-34.7 87-50.3-6-3.4-81 46.8v6.9zm141 133.4-6 3.5V1445l6 3.5v-145.6zm21-76.2-106.5 61.5 6 3.5 100.5-58.1v-6.9zm0 22.5-87 50.3 6 3.5 81-46.8v-7zm-60 408.7-6 3.5v93.6l6 3.5v-100.6zm97.5-534.3V962.5l-6-3.4v168l6-3.5zm154.5 61.5-100.5-58-6 3.5L1713 1192v-6.9zm0 22.5-120-69.3-6 3.5 126 72.7v-6.9zm-135-95.2V973.8l-6-3.5v145.5l6-3.4zm135 117.7-139.5-80.5-6 3.5 145.5 84v-7zm-162-306.6 81 46.8 6-3.5-87-50.3v7zm46.5 177.6V985l-6-3.4v123l6-3.5zm49.5-11.2 6 3.5V992.8l-6 3.4v93.7zm-30 0v-93.6l-6-3.4v100.5l6-3.5zm69-310.1 6 3.4V637.8l-6 3.5v138.5zm27 382.8-81-46.8-6 3.4 87 50.3v-6.9zm-46.5-394 6 3.4V649l-6 3.5v116.1zM1551 546l120 69.3 6-3.4-126-72.8v6.9zm0-29.4v6.9l139.5 80.5 6-3.4-145.5-84zm154.5 445.9v161.1l6 3.5v-168l-6 3.4zm7.5-42.4-159-91.8-3 1.8v3.4l159 91.8 3-1.8v-3.4zM1551 901l100.5 58.1 6-3.5-106.5-61.5v6.9zm27 543.9v-138.6l-6-3.5v145.5l6-3.4zm135 117.8-139.5-80.5-6 3.4 145.5 84v-6.9zm-154.5-106.5v-161.1l-6-3.5v168l6-3.4zm154.5 84-120-69.3-6 3.4 126 72.7v-6.8zm-96-117.6V1329l-6-3.5V1426l6-3.4zm-19.5 11.1v-116.1l-6-3.5v123l6-3.4zm-46.5-177.6 81 46.8 6-3.5-87-50.3v7zm162 261.6-100.5-58-6 3.4 106.5 61.5v-6.9zm-162-949.2 100.5 58 6-3.4-106.5-61.5v6.9zm0 310 120 69.3 6-3.5-126-72.8v7zm135 233.9 6 3.5V970.3l-6 3.4v138.7zm-19.5-11.3 6 3.5v-123l-6 3.4v116.1zm46.5 151.5-159-91.8-3 1.8v3.5l159 91.8 3-1.8v-3.5zm-7.5 42.5v161.1l6 3.5v-168l-6 3.4zm-154.5-446v6.9l139.5 80.6 6-3.5-145.5-84zm66-756.9V0h-6v95.7l6-3.5zm96 1403-81-46.8-6 3.4 87 50.3v-6.9zM1578 447.3V308.7l-6-3.4v145.5l6-3.5zM1713 565l-139.5-80.5-6 3.4 145.5 84V565zm-154.5-106.5V297.4l-6-3.4v168l6-3.5zm154.5 84-120-69.3-6 3.4 126 72.8v-6.9zm-96-117.7v-93.6l-6-3.4v100.5l6-3.5zm-66-166.4 81 46.8 6-3.5-87-50.3v7zM1713 520l-100.5-58-6 3.4 106.5 61.5V520zm-115.5-84V319.9l-6-3.4v123l6-3.5zm94.5-317.8V0h-6v114.7l6 3.5zm-19.5-11.3V0h-6v103.5l6 3.4zM1647 424.8l6 3.5V327.7l-6 3.4v93.7zm66 72.7-81-46.8-6 3.4 87 50.3v-6.9zm-60-401.8V0h-6v92.2l6 3.5zm52.5 201.7v161.1l6 3.5V294l-6 3.4zm7.5-42.4-159-91.8-3 1.8v3.4l159 91.8 3-1.8V255zm0-22.5-139.5-80.6-6 3.4 145.5 84v-6.8zm0 355-159-91.8-3 1.8v3.5l159 91.8 3-1.8v-3.5zm-135 192.3V641.2l-6-3.5v145.5l6-3.4zm135 117.8L1573.5 817l-6 3.5 145.5 84v-6.9zm-154.5-106.5V630l-6-3.5v168l6-3.4zm154.5 61.5-100.5-58.1-6 3.5 106.5 61.5v-6.9zm0 22.5-120-69.3-6 3.5 126 72.8v-7zm-162-639.2 100.5 58.1 6-3.5L1551 229v6.9zm46.5 532.7V652.5l-6-3.5v123l6-3.4zm19.5-11.3v-93.6l-6-3.5v100.5l6-3.4zM1551 591l81 46.8 6-3.4-87-50.3v6.9zm135-143.7 6 3.5V305.2l-6 3.4v138.7zm-135-233.9 120 69.3 6-3.5-126-72.8v7zM1666.5 436l6 3.5v-123l-6 3.4V436zm46.5 394.1-81-46.8-6 3.5 87 50.3v-7zM1551 184v6.9l139.5 80.6 6-3.5-145.5-84zm154.5 446v161.1l6 3.4v-168l-6 3.5zM1647 757.3l6 3.4V660.3l-6 3.5v93.5zM1425 0h-6v95.7l6-3.4V0zM328.5 649l-6 3.5v116.1l6 3.4V649zM207 882l126-72.8-6-3.5L207 875v7zm0 22.5 145.5-84-6-3.5L207 897.6v6.9zm141-266.7-6 3.5v138.6l6 3.4V637.8zm-81 22.5v100.5l6-3.4v-93.6l-6-3.5zm42 0-6 3.5v93.6l6 3.4V660.3zm58.5-33.8-6 3.5v161.1l6 3.4v-168zm-120 355.1v123l6-3.5V985l-6-3.4zm0-332.6v123l6-3.4V652.5l-6-3.5zM207 504.4l87-50.3-6-3.4-81 46.8v6.9zm162-6.9-3-1.8-159 91.8v3.5l3 1.8L369 501v-3.5zM208.5 294v168l6-3.5V297.4l-6-3.4zM369 584.1l-87 50.3 6 3.4 81-46.8v-6.9zm0-67.5-145.5 84 6 3.4L369 523.5v-6.9zm0 45-106.5 61.5 6 3.4 100.5-58v-6.9zm0-22.5-126 72.8 6 3.4L369 546v-6.9zM267 992.8v100.5l6-3.5v-93.6l-6-3.4zm61.5-11.2-6 3.4v116.1l6 3.5v-123zM207 1237.2l145.5-84-6-3.4-139.5 80.5v6.9zm0-22.7 126-72.8-6-3.4-120 69.3v6.9zm141-244.2-6 3.4v138.6l6 3.5V970.3zM228 305.2v145.5l6-3.5V308.7l-6-3.5zm0 332.6v145.5l6-3.4V641.2l-6-3.4zM207 1192l106.5-61.5-6-3.4-100.5 58v6.9zm102-199.2-6 3.4v93.6l6 3.5V992.8zm58.5-33.7-6 3.4v161.1l6 3.5v-168zM207 837l87-50.3-6-3.5-81 46.8v7zm1.5-210.5v168l6-3.4V630l-6-3.5zM369 916.6l-87 50.3 6 3.4 81-46.8v-6.9zm0-86.5-3-1.8-159 91.8v3.4l3 1.8 159-91.8v-3.4zm0 64-106.5 61.5 6 3.4L369 901v-6.9zm0-22.5-126 72.8 6 3.4 120-69.3v-6.9zm0-22.5-145.5 84 6 3.4L369 856v-6.9zm-162 10.4L313.5 798l-6-3.5L207 852.6v6.9zm0-642.6 126-72.8-6-3.4L207 210v6.9zM328.5 0h-6v103.5l6 3.4V0zM207 194.4l106.5-61.5-6-3.4-100.5 58v6.9zm7.5-68.4V0h-6v129.4l6-3.4zm147 0 6 3.4V0h-6v126zM348 0h-6v114.7l6 3.4V0zM234 0h-6v118.2l6-3.4V0zm-27 171.9 87-50.3-6-3.4-81 46.8v6.9zm0 67.5 145.5-84-6-3.4L207 232.5v6.9zm-18-102.2 3 1.8 3-1.8V0h-6v137.2zM102 1632l-87-50.3v6.9l81 46.8 6-3.4zm93-1013.3-3-1.8-3 1.8v183.6l3 1.8 3-1.8V618.7zm0-332.5-3-1.8-3 1.8v183.6l3 1.8 3-1.8V286.2zm0 997.6-3-1.8-3 1.8v183.6l3 1.8 3-1.8v-183.6zm0-332.5-3-1.8-3 1.8v183.6l3 1.8 3-1.8V951.3zm-6 665.1V1800l3 1.8 3-1.8v-183.6l-3-1.8-3 1.8zM369 184l-145.5 84 6 3.5L369 190.9V184zM207 571.9l145.5-84-6-3.4L207 565v6.9zm738 1300.8-120-69.3-6 3.5 126 72.8v-7zM348 305.2l-6 3.4v138.6l6 3.5V305.2zM207 549.4l126-72.8-6-3.4-120 69.3v6.9zm0-22.5 106.5-61.5-6-3.4L207 520v6.9zm102-199.2-6 3.4v93.6l6 3.5V327.7zm-42 0v100.5l6-3.5v-93.6l-6-3.4zM367.5 294l-6 3.4v161.1l6 3.5V294zM253.5 0h-6v106.9l6-3.4V0zM309 0h-6v92.2l6 3.4V0zm-36 0h-6v95.7l6-3.4V0zm96 165-3-1.8L207 255v3.4l3 1.8 159-91.8V165zM247.5 316.5v123l6-3.5V319.9l-6-3.4zm121.5-65-87 50.3 6 3.5 81-46.8v-7zm0-22.5-106.5 61.5 6 3.5L369 235.9V229zm0-22.5-126 72.8 6 3.5 120-69.3v-7zm0 1352.7-106.5 61.5 6 3.4 100.5-58v-6.9zM406.5 126V0h-6v129.4l6-3.4zM399 1898.7l36.9 21.3h12l-48.9-28.2v6.9zm0-29.4v6.9l75.9 43.8h12l-87.9-50.7zm0-15.6 114.9 66.3h12L399 1846.8v6.9zM561 210l-120-69.3-6 3.4 126 72.8V210zm0-22.5-100.5-58.1-6 3.4L561 194.4v-6.9zm0-22.5-81-46.8-6 3.4 87 50.3V165zm-180-27.8 3 1.8 3-1.8V0h-6v137.2zM553.5 126l6 3.4V0h-6v126zM387 286.2l-3-1.8-3 1.8v183.6l3 1.8 3-1.8V286.2zm-18 1295.5-87 50.3 6 3.4 81-46.8v-6.9zm-1.5 210.5v-168l-6 3.5v161.1l6 3.4zM387 951.3l-3-1.8-3 1.8v183.6l3 1.8 3-1.8V951.3zm-180 883.3 87-50.3-6-3.5-81 46.8v7zM387 618.7l-3-1.8-3 1.8v183.6l3 1.8 3-1.8V618.7zm0 665.1-3-1.8-3 1.8v183.6l3 1.8 3-1.8v-183.6zM228 970.3v145.5l6-3.5V973.8l-6-3.5zM561 520l-100.5-58-6 3.4L561 526.9V520zm0 22.5-120-69.3-6 3.4 126 72.8v-6.9zM426 114.7V0h-6v118.2l6-3.5zm135 382.8-81-46.8-6 3.4 87 50.3v-6.9zm-135-50.2V308.7l-6-3.4v145.5l6-3.5zm19.5-11.3V319.9l-6-3.4v123l6-3.5zm-39 22.5V297.4l-6-3.4v168l6-3.5zm147-161.1v161.1l6 3.5V294l-6 3.4zM561 565l-139.5-80.5-6 3.4 145.5 84V565zM465 92.2V0h-6v95.7l6-3.5zm36 3.5V0h-6v92.2l6 3.5zm-55.5 7.8V0h-6v106.9l6-3.4zm75 3.4V0h-6v103.5l6 3.4zM561 232.5l-139.5-80.6-6 3.4 145.5 84v-6.8zm-21-114.3V0h-6v114.7l6 3.5zM561 255l-159-91.8-3 1.8v3.4l159 91.8 3-1.8V255zM381 1616.4V1800l3 1.8 3-1.8v-183.6l-3-1.8-3 1.8zm-133.5-302.3v123l6-3.5v-116.1l-6-3.4zM207 1569.7l145.5-84-6-3.5-139.5 80.6v6.9zm141-266.8-6 3.5V1445l6 3.5v-145.6zm-141 244.2 126-72.8-6-3.5-120 69.3v7zm102-221.7-6 3.5v93.6l6 3.5v-100.6zm-42 0v100.5l6-3.5V1329l-6-3.6zm-58.5 298.8v168l6-3.4v-161.1l-6-3.5zm159-332.6-6 3.5v161.1l6 3.5v-168.1zm-39 22.5-6 3.5v116.1l6 3.5v-123.1zM207 1169.5l87-50.3-6-3.4-81 46.8v6.9zm1.5-210.4v168l6-3.5V962.5l-6-3.4zM369 1162.6l-3-1.8-159 91.8v3.5l3 1.8 159-91.8v-3.5zm0 64.1-106.5 61.5 6 3.5 100.5-58.1v-6.9zm0 22.5-87 50.3 6 3.5 81-46.8v-7zm0-45L243 1277l6 3.5 120-69.3v-7zm0-22.5-145.5 84 6 3.5 139.5-80.6v-6.9zm-162 342.9 106.5-61.5-6-3.5-100.5 58v7zm21-221.7v145.5l6-3.5v-138.6l-6-3.4zm81 355-6 3.5v93.6l6 3.5v-100.6zm-102 221.7 126-72.8-6-3.5-120 69.3v7zm121.5-232.9-6 3.5v116.1l6 3.5v-123.1zM207 1902.3l145.5-84-6-3.4-139.5 80.5v6.9zm21-266.9v145.5l6-3.4v-138.6l-6-3.5zm39 22.5v100.5l6-3.4v-93.6l-6-3.5zm-19.5-11.2v123l6-3.4v-116.1l-6-3.5zM207 1857.1l106.5-61.5-6-3.5-100.5 58v7zm162-361.9-3-1.8-159 91.8v3.5l3 1.8 159-91.8v-3.5zm-162 6.9 87-50.3-6-3.5-81 46.8v7zm1.5-210.5v168l6-3.5V1295l-6-3.4zm-186 497.1v-161.1l-6-3.5v168l6-3.4zM369 1514.2l-145.5 84 6 3.4 139.5-80.5v-6.9zm-21 121.2-6 3.5v138.6l6 3.5v-145.6zm21-98.7-126 72.8 6 3.4 120-69.3v-6.9zm192 381-159-91.8-3 1.8v3.4l153.8 88.8h8.2v-2.2zM177 210 57 140.7l-6 3.4 126 72.8V210zm192 1621.3v-3.5l-3-1.8-159 91.8v2.1h8.4l153.6-88.6zM177 187.5 76.5 129.4l-6 3.4L177 194.4v-6.9zm0-22.5-81-46.8-6 3.4 87 50.3V165zm-7.5-39 6 3.4V0h-6v126zM117 95.7V0h-6v92.2l6 3.5zm-36-3.5V0h-6v95.7l6-3.5zm-19.5 11.3V0h-6v106.9l6-3.4zM3 0H0v139l3-1.8V0zm12 1914.3v5.7h9.9l-9.9-5.7zM136.5 106.9V0h-6v103.5l6 3.4zM22.5 126V0h-6v129.4l6-3.4zM177 1917.9l-159-91.8-3 1.8v3.5l153.6 88.7h8.4v-2.2zm-162-19.2 36.9 21.3h12L15 1891.8v6.9zm0-45 114.9 66.3h12L15 1846.8v6.9zm0 15.6v6.9l75.9 43.8h12L15 1869.3zM42 114.7V0h-6v118.2l6-3.5zM61.5 436V319.9l-6-3.4v123l6-3.5zM15 213.4l120 69.3 6-3.5-126-72.7v6.9zm66 211.4v-93.6l-6-3.4v100.5l6-3.5zm-39 22.5V308.7l-6-3.4v145.5l6-3.5zm69-22.5 6 3.5V327.7l-6 3.4v93.7zm-88.5 33.7V297.4l-6-3.4v168l6-3.5zm108-22.5 6 3.5v-123l-6 3.4V436zM15 235.9 115.5 294l6-3.5L15 229v6.9zM177 255 18 163.2l-3 1.8v3.4l159 91.8 3-1.8V255zm-7.5 42.4v161.1l6 3.5V294l-6 3.4zM156 118.2V0h-6v114.7l6 3.5zm21 114.3L37.5 151.9l-6 3.4 145.5 84v-6.8zm0 287.5L76.5 462l-6 3.4L177 526.9V520zm0-22.5-81-46.8-6 3.4 87 50.3v-6.9zm0 45L57 473.2l-6 3.4 126 72.8v-6.9zm0 22.5L37.5 484.5l-6 3.4 145.5 84V565zM15 258.4l81 46.8 6-3.5-87-50.3v7zm1506 1633.4-48.9 28.2h12l36.9-21.3v-6.9zm0-22.5-87.9 50.7h12l75.9-43.8v-6.9zm0-22.5-126.8 73.2h12l114.9-66.3v-6.9zm0 67.5-9.9 5.7h9.9v-5.7zm-1152-22.5-48.9 28.2h12l36.9-21.3v-6.9zm798 22.5v5.7h9.9l-9.9-5.7zm354-83v-3.5l-3-1.8-159 91.8v2.1h8.4l153.6-88.6zm-192 86.6-159-91.8-3 1.8v3.5l153.6 88.7h8.4v-2.2zm576-86.6v-3.5l-3-1.8-159 91.8v2.1h8.4l153.6-88.6zm0 83-9.9 5.7h9.9v-5.7zM1917 0v137.2l3 1.8V0h-3zm-12 1846.8-126.8 73.2h12l114.9-66.3v-6.9zm-192 71.1-159-91.8-3 1.8v3.5l153.6 88.7h8.4v-2.2zm-576-3.6-9.9 5.7h9.9v-5.7zm768-22.5-48.9 28.2h12l36.9-21.3v-6.9zm0-22.5-87.9 50.7h12l75.9-43.8v-6.9zm-354 45v5.7h9.9l-9.9-5.7zm-1152 .1v5.6h9.7l-9.7-5.6zm354-83.2v-3.4l-3-1.8-159 91.8v2.3h8.2l153.8-88.9zM465 424.8v-93.6l-6-3.4v100.5l6-3.5zm288 1467-48.9 28.2h12l36.9-21.3v-6.9zm-384 22.5-9.9 5.7h9.9v-5.7zm0-45-87.9 50.7h12l75.9-43.8v-6.9zm384 0-87.9 50.7h12l75.9-43.8v-6.9zm384-22.5-126.8 73.2h12l114.9-66.3v-6.9zm-768 0L242.2 1920h12l114.9-66.3v-6.9zm768 45-48.9 28.2h12l36.9-21.3v-6.9zm0-60.5v-3.5l-3-1.8-159 91.8v2.1h8.4l153.6-88.6zm-384 15.5L626.2 1920h12l114.9-66.3v-6.9zm384 22.5-87.9 50.7h12l75.9-43.8v-6.9zm-192 48.6-159-91.8-3 1.8v3.5l153.6 88.7h8.4v-2.2zm-192-3.6-9.9 5.7h9.9v-5.7zm30 .1v5.6h9.7l-9.7-5.6zm-613.5-286.8v161.1l6 3.4v-168l-6 3.5zM81 1422.4V1329l-6-3.5V1426l6-3.6zm-19.5 11.3v-116.1l-6-3.5v123l6-3.4zM150 447.3l6 3.5V305.2l-6 3.4v138.7zM42 1444.9v-138.6l-6-3.5v145.5l6-3.4zm69-22.3 6 3.5v-100.5l-6 3.4v93.6zm19.5 11.1 6 3.5v-123l-6 3.4v116.1zm19.5-321.3 6 3.5V970.3l-6 3.4v138.7zM22.5 1456.2v-161.1l-6-3.5v168l6-3.4zM15 1256.1l81 46.8 6-3.4-87-50.3v6.9zm162-3.5-159-91.8-3 1.8v3.5l159 91.8 3-1.8v-3.5zm0 310.1-139.5-80.5-6 3.4 145.5 84v-6.9zM15 849.1v6.9l139.5 80.6 6-3.5-145.5-84zm154.5 446v161.1l6 3.5v-168l-6 3.4zm7.5 245.1-120-69.3-6 3.4 126 72.8v-6.9zm0-22.5-100.5-58-6 3.4 106.5 61.5v-6.9zm0-22.5-81-46.8-6 3.4 87 50.3v-6.9zM15 1233.6l100.5 58.1 6-3.5L15 1226.7v6.9zm27 543.9v-138.6l-6-3.5v145.5l6-3.4zm69-22.4 6 3.5v-100.5l-6 3.4v93.6zm-30-.1v-93.6l-6-3.5v100.5l6-3.4zm-19.5 11.2v-116.1l-6-3.5v123l6-3.4zM15 1566.1l100.5 58.1 6-3.4L15 1559.2v6.9zm135 211.4 6 3.4v-145.5l-6 3.4v138.7zm-19.5-11.3 6 3.4v-123l-6 3.4v116.2zm19.5-321.3 6 3.5v-145.5l-6 3.4v138.6zm-135 98.7 120 69.3 6-3.4-126-72.8v6.9zm0-29.4v6.9l139.5 80.5 6-3.5L15 1514.2zm162 71-159-91.8-3 1.8v3.5l159 91.8 3-1.8v-3.5zM15 1181.7v6.9l139.5 80.5 6-3.5L15 1181.7zm162 691-120-69.3-6 3.5 126 72.8v-7zm0 22.5-139.5-80.6-6 3.5 145.5 84v-6.9zm0-45-100.5-58.1-6 3.5 106.5 61.5v-6.9zm0-22.5-81-46.8-6 3.4 87 50.3v-6.9zM15 1211.1l120 69.3 6-3.5-126-72.8v7zm46.5-442.5V652.5l-6-3.5v123l6-3.4zM81 757.3v-93.6l-6-3.5v100.5l6-3.4zM15 878.5l120 69.3 6-3.5-126-72.7v6.9zM15 546l120 69.3 6-3.4-126-72.8v6.9zm0 45 81 46.8 6-3.4-87-50.3v6.9zm115.5 177.6 6 3.4V649l-6 3.5v116.1zM111 757.3l6 3.4V660.3l-6 3.5v93.5zM15 568.5l100.5 58 6-3.4L15 561.6v6.9zm27 211.3V641.2l-6-3.5v145.5l6-3.4zm135-192.3L18 495.7l-3 1.8v3.5l159 91.8 3-1.8v-3.5zM15 184v6.9l139.5 80.6 6-3.5L15 184zm154.5 446v161.1l6 3.4v-168l-6 3.5zm7.5 222.6L76.5 794.5l-6 3.5L177 859.5v-6.9zm0-22.5-81-46.8-6 3.5 87 50.3v-7zm0 45L57 805.8l-6 3.5L177 882v-6.9zm0 22.5L37.5 817l-6 3.5 145.5 84v-6.9zM22.5 791.1V630l-6-3.5v168l6-3.4zM81 1089.9v-93.6l-6-3.5v100.5l6-3.4zM15 923.5l81 46.8 6-3.4-87-50.3v6.9zm46.5 177.6V985l-6-3.5v123l6-3.4zM42 1112.4V973.8l-6-3.5v145.5l6-3.4zm108-332.6 6 3.4V637.8l-6 3.5v138.5zm-19.5 321.3 6 3.5v-123l-6 3.4v116.1zm-108 22.5V962.5l-6-3.4v168l6-3.5zM15 901l100.5 58.1 6-3.5L15 894.1v6.9zm96 188.9 6 3.5V992.8l-6 3.4v93.7zm58.5-127.4v161.1l6 3.5v-168l-6 3.4zm7.5-42.4L18 828.3l-3 1.8v3.4l159 91.8 3-1.8v-3.4zM15 516.6v6.9L154.5 604l6-3.4-145.5-84zm162 691-120-69.3-6 3.5 126 72.8v-7zm0-45-81-46.8-6 3.4 87 50.3v-6.9zm0 67.5-139.5-80.5-6 3.5 145.5 84v-7zm0-45-100.5-58-6 3.5L177 1192v-6.9zm151.5-868.6-6 3.4V436l6 3.5v-123zM765 1616.4V1800l3 1.8 3-1.8v-183.6l-3-1.8-3 1.8zm6-332.6-3-1.8-3 1.8v183.6l3 1.8 3-1.8v-183.6zm0-332.5-3-1.8-3 1.8v183.6l3 1.8 3-1.8V951.3zm0-332.6-3-1.8-3 1.8v183.6l3 1.8 3-1.8V618.7zm12 1235 114.9 66.3h12L783 1846.8v6.9zm0 15.6v6.9l75.9 43.8h12l-87.9-50.7zM765 137.2l3 1.8 3-1.8V0h-6v137.2zm180 405.3-120-69.3-6 3.4 126 72.8v-6.9zM751.5 1792.2v-168l-6 3.5v161.1l6 3.4zm-120-145.5v123l6-3.4v-116.1l-6-3.5zM591 1857.1l106.5-61.5-6-3.5-100.5 58v7zm60-199.2v100.5l6-3.4v-93.6l-6-3.5zm-39-22.5v145.5l6-3.4v-138.6l-6-3.5zm171 263.3 36.9 21.3h12l-48.9-28.2v6.9zm-192-64.1 87-50.3-6-3.5-81 46.8v7zm1.5-210.4v168l6-3.4v-161.1l-6-3.5zm160.5-42.5-87 50.3 6 3.4 81-46.8v-6.9zM945 232.5l-139.5-80.6-6 3.4 145.5 84v-6.8zm-21-114.3V0h-6v114.7l6 3.5zm-19.5-11.3V0h-6v103.5l6 3.4zM945 255l-159-91.8-3 1.8v3.4l159 91.8 3-1.8V255zm-354 959.5 126-72.8-6-3.4-120 69.3v6.9zM945 520l-100.5-58-6 3.4L945 526.9V520zm-7.5-222.6v161.1l6 3.5V294l-6 3.4zm7.5 200.1-81-46.8-6 3.4 87 50.3v-6.9zM849 92.2V0h-6v95.7l6-3.5zm96 72.8-81-46.8-6 3.4 87 50.3V165zm-7.5-39 6 3.4V0h-6v126zm7.5 61.5-100.5-58-6 3.4L945 194.4v-6.9zM790.5 126V0h-6v129.4l6-3.4zm39-22.5V0h-6v106.9l6-3.4zM945 210l-120-69.3-6 3.4 126 72.8V210zm-135-95.3V0h-6v118.2l6-3.5zm-39 171.5-3-1.8-3 1.8v183.6l3 1.8 3-1.8V286.2zm-18 876.4-3-1.8-159 91.8v3.5l3 1.8 159-91.8v-3.5zm0 86.6-87 50.3 6 3.5 81-46.8v-7zm0-22.5-106.5 61.5 6 3.5 100.5-58.1v-6.9zm0-45-145.5 84 6 3.5 139.5-80.6v-6.9zm0 22.5L627 1277l6 3.5 120-69.3v-7zm-40.5 109.9-6 3.5v116.1l6 3.5v-123.1zm39-22.5-6 3.5v161.1l6 3.4v-168zM693 1657.9l-6 3.5v93.6l6 3.5v-100.6zm-102-88.2 145.5-84-6-3.5-139.5 80.6v6.9zm60-576.9v100.5l6-3.5v-93.6l-6-3.4zM591 1192l106.5-61.5-6-3.4-100.5 58v6.9zm102-199.2-6 3.4v93.6l6 3.5V992.8zm-61.5-11.2v123l6-3.5V985l-6-3.4zm-39-22.5v168l6-3.5V962.5l-6-3.4zm19.5 11.2v145.5l6-3.5V973.8l-6-3.5zm-21 199.2 87-50.3-6-3.4-81 46.8v6.9zm141 133.4-6 3.5V1445l6 3.4v-145.5zm21 192.3-3-1.8-159 91.8v3.5l3 1.8 159-91.8v-3.5zm-21 140.2-6 3.5v138.6l6 3.4v-145.5zm21-98.7-126 72.8 6 3.4 120-69.3v-6.9zm0-22.5-145.5 84 6 3.4 139.5-80.5v-6.9zm0 45-106.5 61.5 6 3.4 100.5-58v-6.9zm-162 320.4 126-72.8-6-3.5-120 69.3v7zm0 22.7 145.5-84-6-3.4-139.5 80.5v6.9zm121.5-255.6-6 3.5v116.1l6 3.5v-123.1zM612 1302.9v145.5l6-3.5v-138.6l-6-3.4zM399 258.4l81 46.8 6-3.5-87-50.3v7zm294 1067-6 3.5v93.6l6 3.5v-100.6zm-42 0v100.5l6-3.5V1329l-6-3.6zm-60 199.2 106.5-61.5-6-3.5-100.5 58v7zm1.5-233v168l6-3.5V1295l-6-3.4zm-1.5 255.5 126-72.8-6-3.5-120 69.3v7zm40.5-233v123l6-3.5v-116.1l-6-3.4zM885 95.7V0h-6v92.2l6 3.5zm33 1016.7 6 3.5V970.3l-6 3.4v138.7zm27 140.2-159-91.8-3 1.8v3.5l159 91.8 3-1.8v-3.5zM783 849.1v6.9l139.5 80.6 6-3.5-145.5-84zm0 29.4 120 69.3 6-3.5-126-72.8v7zm154.5 416.6v161.1l6 3.5v-168l-6 3.4zm7.5 222.6-100.5-58.1-6 3.5 106.5 61.5v-6.9zm-46.5-416.6 6 3.5v-123l-6 3.4v116.1zm46.5 439.1-120-69.3-6 3.5 126 72.8v-7zm0-45-81-46.8-6 3.4 87 50.3v-6.9zm-135-382.8V973.8l-6-3.5v145.5l6-3.4zm-19.5 11.2V962.5l-6-3.4v168l6-3.5zM945 1230.1l-139.5-80.5-6 3.5 145.5 84v-7zm-96-140.2v-93.6l-6-3.5v100.5l6-3.4zm30 0 6 3.5V992.8l-6 3.4v93.7zM783 901l100.5 58.1 6-3.5L783 894.1v6.9zm0 22.7 81 46.8 6-3.5-87-50.3v7zm46.5 177.4V985l-6-3.5v123l6-3.4zm-46.5 80.6v6.9l139.5 80.5 6-3.5-145.5-83.9zm115.5 252 6 3.5v-123l-6 3.4v116.1zM945 565l-139.5-80.5-6 3.4 145.5 84V565zm-162 646.1 120 69.3 6-3.5-126-72.8v7zm135 233.8 6 3.5v-145.5l-6 3.4v138.6zm19.5 182.7v161.1l6 3.4v-168l-6 3.5zm7.5 222.6-100.5-58.1-6 3.5 106.5 61.5v-6.9zm0-287.5-139.5-80.5-6 3.4 145.5 84v-6.9zm0 265-81-46.8-6 3.4 87 50.3v-6.9zm-115.5-394v-116.1l-6-3.5v123l6-3.4zm-19.5 11.2v-138.6l-6-3.5v145.5l6-3.4zm-27-211.3 100.5 58 6-3.5-106.5-61.4v6.9zm7.5 222.6v-161.1l-6-3.5v168l6-3.4zm88.5-33.6 6 3.5v-100.5l-6 3.4v93.6zm-96-166.4 81 46.8 6-3.4-87-50.3v6.9zm66 166.2V1329l-6-3.5V1426l6-3.6zm96 162.8-159-91.8-3 1.8v3.5l159 91.8 3-1.8v-3.5zM918 447.3l6 3.5V305.2l-6 3.4v138.7zM783 184v6.9l139.5 80.6 6-3.5L783 184zm162 403.5-159-91.8-3 1.8v3.5l159 91.8 3-1.8v-3.5zM783 213.4l120 69.3 6-3.5-126-72.8v7zm162 661.7-120-69.3-6 3.5L945 882v-6.9zm0 332.5-120-69.3-6 3.5 126 72.8v-7zM937.5 630v161.1l6 3.4v-168l-6 3.5zm-39-194 6 3.5v-123l-6 3.4V436zM945 830.1l-81-46.8-6 3.5 87 50.3v-7zM783 235.9 883.5 294l6-3.5L783 229v6.9zm7.5 222.6V297.4l-6-3.4v168l6-3.5zm39-22.5V319.9l-6-3.4v123l6-3.5zM810 447.3V308.7l-6-3.4v145.5l6-3.5zm69-22.5 6 3.5V327.7l-6 3.4v93.7zm-96-166.4 81 46.8 6-3.5-87-50.3v7zm66 166.4v-93.6l-6-3.4v100.5l6-3.5zm96 427.8-100.5-58.1-6 3.5L945 859.5v-6.9zm-162-336v6.9L922.5 604l6-3.4-145.5-84zm135 263.2 6 3.4V637.8l-6 3.5v138.5zm27 140.3-159-91.8-3 1.8v3.4l159 91.8 3-1.8v-3.4zM783 546l120 69.3 6-3.4-126-72.8v6.9zm115.5 222.6 6 3.4V649l-6 3.5v116.1zm39 193.9v161.1l6 3.5v-168l-6 3.4zm7.5 222.6L844.5 1127l-6 3.5L945 1192v-6.9zm0-22.5-81-46.8-6 3.4 87 50.3v-6.9zm-115.5-394V652.5l-6-3.5v123l6-3.4zM810 779.8V641.2l-6-3.5v145.5l6-3.4zm-19.5 11.3V630l-6-3.5v168l6-3.4zM945 897.6 805.5 817l-6 3.5 145.5 84v-6.9zm-66-140.3 6 3.4V660.3l-6 3.5v93.5zm-96-188.8 100.5 58 6-3.4L783 561.6v6.9zm66 188.8v-93.6l-6-3.5v100.5l6-3.4zM783 591l81 46.8 6-3.4-87-50.3v6.9zm-192 911.1 87-50.3-6-3.5-81 46.8v7zm-30 60.6-139.5-80.5-6 3.4 145.5 84v-6.9zm0-45-100.5-58-6 3.4 106.5 61.5v-6.9zm-96-95.1V1329l-6-3.5V1426l6-3.4zm96 72.6-81-46.8-6 3.4 87 50.3v-6.9zm-154.5-39v-161.1l-6-3.5v168l6-3.4zm39-22.5v-116.1l-6-3.5v123l6-3.4zm108-138.6v161.1l6 3.5v-168l-6 3.4zM426 1444.9v-138.6l-6-3.5v145.5l6-3.4zm135 95.3-120-69.3-6 3.4 126 72.7v-6.8zM399 901l100.5 58.1 6-3.5L399 894.1v6.9zm96 188.9 6 3.5V992.8l-6 3.4v93.7zm66 162.7-159-91.8-3 1.8v3.5l159 91.8 3-1.8v-3.5zm-46.5-151.5 6 3.5v-123l-6 3.4v116.1zM399 849.1v6.9l139.5 80.6 6-3.5-145.5-84zm135 263.3 6 3.5V970.3l-6 3.4v138.7zM399 878.5l120 69.3 6-3.5-126-72.8v7zm27 899v-138.6l-6-3.5v145.5l6-3.4zm135 72.7-100.5-58.1-6 3.5 106.5 61.5v-6.9zm0 22.5-120-69.3-6 3.5 126 72.7v-6.9zm0 22.5-139.5-80.6-6 3.5 145.5 84v-6.9zm-7.5-267.6v161.1l6 3.4v-168l-6 3.5zm7.5 200.1-81-46.8-6 3.5 87 50.3v-7zm-162-904 81 46.8 6-3.5-87-50.3v7zm66 831.4v-93.6l-6-3.4v100.5l6-3.5zm-19.5 11.1v-116.1l-6-3.5v123l6-3.4zM399 1233.6l100.5 58 6-3.5-106.5-61.4v6.9zm0 22.6 81 46.8 6-3.4-87-50.3v6.9zm162 329-159-91.8-3 1.8v3.5l159 91.8 3-1.8v-3.5zm-66-162.6 6 3.5v-100.5l-6 3.4v93.6zm19.5 11.1 6 3.5v-123l-6 3.4v116.1zM495 1755.1l6 3.5v-100.5l-6 3.4v93.6zm39-310.2 6 3.5v-145.5l-6 3.4v138.6zm-135-233.8 120 69.3 6-3.5-126-72.8v7zm0-29.4v6.9l139.5 80.5 6-3.5-145.5-83.9zm162-329.1-100.5-58.1-6 3.5L561 859.5v-6.9zm-96-95.3v-93.6l-6-3.5v100.5l6-3.4zm96 117.8-120-69.3-6 3.5L561 882v-6.9zm0-45-81-46.8-6 3.5 87 50.3v-7zm-154.5-39V630l-6-3.5v168l6-3.4zm39-22.5V652.5l-6-3.5v123l6-3.4zM426 779.8V641.2l-6-3.5v145.5l6-3.4zM553.5 630v161.1l6 3.4v-168l-6 3.5zm7.5 267.6L421.5 817l-6 3.5 145.5 84v-6.9zM399 235.9 499.5 294l6-3.5L399 229v6.9zm96 188.9 6 3.5V327.7l-6 3.4v93.7zm19.5 11.2 6 3.5v-123l-6 3.4V436zM399 213.4l120 69.3 6-3.5-126-72.8v7zm162 374.1-159-91.8-3 1.8v3.5l159 91.8 3-1.8v-3.5zM399 184v6.9l139.5 80.6 6-3.5L399 184zm135 263.3 6 3.5V305.2l-6 3.4v138.7zm27 472.8-159-91.8-3 1.8v3.4l159 91.8 3-1.8v-3.4zm0 287.5-120-69.3-6 3.5 126 72.7v-6.9zm0-22.5-100.5-58-6 3.5L561 1192v-6.9zm0 45-139.5-80.5-6 3.5 145.5 84v-7zm-7.5-267.6v161.1l6 3.5v-168l-6 3.4zm7.5 200.1-81-46.8-6 3.5 87 50.3v-7zm-115.5-61.5V985l-6-3.4v123l6-3.5zm-39 22.5V962.5l-6-3.4v168l6-3.5zm19.5-11.2V973.8l-6-3.5v145.5l6-3.4zM399 591l81 46.8 6-3.4-87-50.3v6.9zm115.5 177.6 6 3.4V649l-6 3.5v116.1zM399 568.5l100.5 58 6-3.4L399 561.6v6.9zm96 188.8 6 3.4V660.3l-6 3.5v93.5zm-30 332.6v-93.6l-6-3.4v100.5l6-3.5zm-66-573.3v6.9L538.5 604l6-3.4-145.5-84zm135 263.2 6 3.4V637.8l-6 3.5v138.5zM399 546l120 69.3 6-3.4-126-72.8v6.9zm180 737.8-3-1.8-3 1.8v183.6l3 1.8 3-1.8v-183.6zm174-744.7-126 72.8 6 3.4L753 546v-6.9zm0 22.5-106.5 61.5 6 3.4 100.5-58v-6.9zm0-64.1-3-1.8-159 91.8v3.5l3 1.8L753 501v-3.5zm0 86.6-87 50.3 6 3.4 81-46.8v-6.9zm0-67.5-145.5 84 6 3.4L753 523.5v-6.9zm-162 32.8 126-72.8-6-3.4-120 69.3v6.9zm160.5 77.1-6 3.5v161.1l6 3.4v-168zm-39 22.5-6 3.5v116.1l6 3.4V649zm19.5-11.2-6 3.5v138.6l6 3.4V637.8zM591 504.4l87-50.3-6-3.4-81 46.8v6.9zm0 22.5 106.5-61.5-6-3.4L591 520v6.9zm102-199.2-6 3.4v93.6l6 3.5V327.7zm-42 0v100.5l6-3.5v-93.6l-6-3.4zM592.5 294v168l6-3.5V297.4l-6-3.4zm39 22.5v123l6-3.5V319.9l-6-3.4zM612 305.2v145.5l6-3.5V308.7l-6-3.5zm-21 599.3 145.5-84-6-3.5L591 897.6v6.9zm162-32.9-126 72.8 6 3.4 120-69.3v-6.9zm0 22.5-106.5 61.5 6 3.4L753 901v-6.9zm0 22.5-87 50.3 6 3.4 81-46.8v-6.9zm0-67.5-145.5 84 6 3.4L753 856v-6.9zm-21 121.2-6 3.4v138.6l6 3.5V970.3zM591 1237l145.5-84-6-3.4-139.5 80.5v6.9zm160.5-277.9-6 3.4v161.1l6 3.5v-168zM591 882l126-72.8-6-3.5L591 875v7zm162-51.9-3-1.8-159 91.8v3.4l3 1.8 159-91.8v-3.4zm-162 29.4L697.5 798l-6-3.5L591 852.6v6.9zm102-199.2-6 3.5v93.6l6 3.4V660.3zm-42 0v100.5l6-3.4v-93.6l-6-3.5zM591 837l87-50.3-6-3.5-81 46.8v7zm1.5-210.5v168l6-3.4V630l-6-3.5zm39 22.5v123l6-3.4V652.5l-6-3.5zM612 637.8v145.5l6-3.4V641.2l-6-3.4zm-39 978.6V1800l3 1.8 3-1.8v-183.6l-3-1.8-3 1.8zm-174-50.3 100.5 58 6-3.5-106.5-61.4v6.9zm313.5-584.5-6 3.4v116.1l6 3.5v-123zM573 137.2l3 1.8 3-1.8V0h-6v137.2zm6 814.1-3-1.8-3 1.8v183.6l3 1.8 3-1.8V951.3zm12-711.9 145.5-84-6-3.4L591 232.5v6.9zm-12 379.3-3-1.8-3 1.8v183.6l3 1.8 3-1.8V618.7zm133.5-302.2-6 3.4V436l6 3.5v-123zM598.5 126V0h-6v129.4l6-3.4zm-7.5 90.9 126-72.8-6-3.4L591 210v6.9zM399 1543.6l120 69.3 6-3.5-126-72.8v7zm135 233.9 6 3.4v-145.5l-6 3.4v138.7zm-19.5-11.3 6 3.4v-123l-6 3.4v116.2zm-108 22.5v-161.1l-6-3.5v168l6-3.4zm79.5-156.6-87-50.3v6.9l81 46.8 6-3.4zm93-1345.9-3-1.8-3 1.8v183.6l3 1.8 3-1.8V286.2zm-180 1228v6.9l139.5 80.5 6-3.5-145.5-83.9zM745.5 126l6 3.4V0h-6v126zm7.5 80.5-126 72.8 6 3.5 120-69.3v-7zm0-41.5-3-1.8L591 255v3.4l3 1.8 159-91.8V165zm0 64-106.5 61.5 6 3.5L753 235.9V229zm-162-34.6 106.5-61.5-6-3.4-100.5 58v6.9zm162 57.1-87 50.3 6 3.5 81-46.8v-7zM591 571.9l145.5-84-6-3.4L591 565v6.9zm141-266.7-6 3.4v138.6l6 3.5V305.2zm19.5-11.2-6 3.4v161.1l6 3.5V294zm1.5-110-145.5 84 6 3.5L753 190.9V184zM618 0h-6v118.2l6-3.4V0zm114 0h-6v114.7l6 3.5V0zM591 171.9l87-50.3-6-3.4-81 46.8v6.9zM693 0h-6v92.2l6 3.4V0zm-36 0h-6v95.7l6-3.4V0zm-19.5 0h-6v106.9l6-3.4V0zm75 0h-6v103.5l6 3.4V0z" fill="#80cbc4"/></svg>